<?xml version="1.0" encoding="utf-8" ?>
<svg height="674.55005" version="1.1" width="899.54999" xmlns="http://www.w3.org/2000/svg" xmlns:xlink="http://www.w3.org/1999/xlink">
	<defs>
		<linearGradient id="gradient-obj1" x1="0" x2="6.12323399574e-17" y1="0" y2="1.0">
			<stop offset="0%" stop-color="#0065bd" stop-opacity="1"/>
			<stop offset="17%" stop-color="#0065bd" stop-opacity="1"/>
			<stop offset="49%" stop-color="#1a74c4" stop-opacity="1"/>
			<stop offset="100%" stop-color="#00427b" stop-opacity="1"/>
		</linearGradient>
		<linearGradient id="gradient-obj2" x1="0" x2="6.12323399574e-17" y1="0" y2="1.0">
			<stop offset="0%" stop-color="#2a82cd" stop-opacity="1"/>
			<stop offset="45%" stop-color="#10528b" stop-opacity="1"/>
			<stop offset="100%" stop-color="#10528b" stop-opacity="1"/>
		</linearGradient>
	</defs>
	<rect fill="white" fill-opacity="1" height="674.55005" id="0" rx="0" ry="0" stroke="none" stroke-opacity="1" stroke-width="1" width="899.54999" x="0" y="0"/>
	<rect fill="url(#gradient-obj1)" height="674.55005" id="1" rx="0" ry="0" stroke="black" stroke-width="1" width="899.54999" x="0" y="0"/>
	<path d="m 205.20352,540.42136 c -19.01914,-10.5646 -38.03828,-33.10766 -38.03828,-66.91866 0,-40.85167 33.10765,-71.84928 73.25598,-71.84928 24.65311,0 42.9689,9.86125 57.05741,25.35646 4.93062,-2.82057 10.56459,-4.22727 16.90191,-4.22727 11.26795,0 20.42584,5.63397 25.35646,11.26794 3.52393,-1.4067 7.04067,-2.11005 11.97129,-2.11005 14.79187,0 28.88038,11.26794 28.88038,28.88038 0,12.68182 -7.04067,22.54306 -14.08851,29.58373 -3.52392,3.52393 -4.93062,5.63397 -5.63397,10.5646 -1.4067,11.26794 2.11005,27.47368 8.45454,36.63157 3.52393,4.93063 7.04067,7.7512 16.19857,7.04067 22.54306,-1.4067 62.69138,-4.93062 104.2464,-4.93062 35.2177,0 60.57416,0.70335 74.66985,0 26.76316,-8.45454 52.82297,-16.19856 83.82057,-23.94976 11.26795,-2.82057 28.88039,-6.33732 37.33493,-16.19856 -8.45454,4.93062 -23.95694,8.45454 -37.33493,9.86124 -19.01196,2.82058 -42.26554,7.04067 -55.64353,9.1579 -4.9378,0.70334 -7.7512,-0.70335 -7.7512,-4.22728 l -1.4067,-35.92105 c 0,-2.11005 0.71053,-2.82057 2.11005,-2.82057 1.41388,0 2.11722,0.70335 3.52392,1.4067 6.3445,3.52392 12.68182,5.63397 22.54306,5.63397 7.04067,0 13.37799,-2.82058 13.37799,-8.45455 -0.70335,-4.93062 -5.63397,-9.15789 -14.79186,-9.15789 -24.66029,0 -40.85167,19.72249 -71.14593,19.72249 -25.35646,0 -41.5622,-16.19857 -41.5622,-34.51436 0,-13.38516 7.7512,-23.24641 19.72249,-28.17703 -4.22727,6.33732 -5.63397,10.56459 -5.63397,16.19857 0,13.38516 14.08851,23.24641 35.92105,23.24641 23.24641,0 35.92105,-5.63398 53.53349,-5.63398 14.08851,0 23.94258,4.22728 26.76315,9.1579 -0.70335,-12.68182 -9.85406,-21.83254 -23.94258,-21.83254 -7.04785,0 -14.08851,3.52393 -16.90191,8.45455 -0.71053,1.4067 -1.41388,2.11005 -2.82058,2.11005 -1.41387,0 -2.11722,-0.70335 -2.11722,-2.11005 l -4.9378,-40.85167 c -0.70335,-4.93063 1.41388,-9.1579 7.7512,-9.86125 l 28.17703,-2.82057 -18.31579,-36.63158 35.92105,0 c 0,7.04067 4.9378,11.97129 10.57177,11.97129 5.63397,0 10.57177,-4.93062 10.57177,-11.97129 l 30.28708,0 c 0,7.04067 4.22727,11.97129 10.56459,11.97129 4.9378,0 9.86842,-4.93062 9.86842,-11.97129 l 36.63158,0 -21.13636,42.26555 c 47.89952,19.01914 82.41387,64.09808 82.41387,116.92822 0,46.49282 -15.49522,72.55263 -37.33493,102.13636 -6.33732,7.74402 -9.85406,16.19857 -9.85406,34.51435 0,40.85168 36.63157,73.95933 84.52391,73.95933 23.23924,0 40.14833,-3.51675 57.75359,-11.97129 -3.51675,0.70335 -7.74402,0.70335 -11.97129,0.70335 -45.07895,0 -86.64114,-35.92105 -86.64114,-84.52392 0,-39.44497 21.83971,-65.50478 50.71291,-85.93062 5.63397,-4.22727 11.97847,-8.45454 17.61244,-12.68182 -18.31579,-15.49521 -30.28708,-31.70095 -30.99043,-52.12679 -11.97847,-4.22727 -21.12918,-14.79186 -21.12918,-29.58373 0,-19.72248 17.60526,-36.63157 39.44497,-36.63157 15.49521,0 27.47368,6.33732 35.2177,12.68181 -12.68182,9.1579 -22.54306,22.54306 -22.54306,40.14833 0,19.72248 13.37799,34.51435 30.28708,45.78229 16.90191,-11.26794 30.99043,-26.05981 30.99043,-45.78229 0,-17.61244 -9.85407,-30.99043 -22.54306,-40.14833 7.75119,-6.33732 19.72249,-12.68181 35.22488,-12.68181 21.83253,0 39.44497,16.90191 39.44497,36.63157 0,14.79187 -9.15789,25.35646 -21.13636,29.58373 -0.70335,21.83254 -13.37799,38.03828 -33.10048,54.23684 37.33493,28.88038 66.21531,56.35407 66.21531,99.31579 0,66.22248 -62.68421,131.02391 -156.3732,131.02391 -14.79904,0 -23.94976,-2.11722 -32.4043,-4.23445 7.75119,11.26794 15.49521,22.54306 19.01913,40.85885 7.0335,2.11005 28.17704,3.51675 42.96172,3.51675 26.76316,0 63.39474,-9.86125 72.55263,-20.42584 3.51675,7.03349 7.03349,16.90192 7.03349,26.76316 0,16.90191 -12.67464,26.77033 -27.4665,29.59091 5.63397,43.66507 11.26794,92.97846 11.26794,131.00956 0,52.13398 -17.61244,72.55268 -42.9689,75.37318 1.41388,-1.4067 2.11723,-3.5167 2.11723,-6.3373 0,-11.9785 -11.26794,-20.433 -23.94976,-20.433 -21.12919,0 -29.58373,10.5646 -51.42344,10.5646 -17.60526,0 -23.94259,-10.5646 -39.44498,-10.5646 -9.85406,0 -16.90191,7.0407 -16.90191,15.4952 0,4.2273 1.41388,7.7512 4.23445,11.268 -19.72249,-0.7034 -35.92823,-18.3158 -35.92823,-36.6316 0,-6.3373 1.4067,-11.268 4.22727,-16.90195 -4.93062,-4.9378 -9.15789,-12.68181 -9.15789,-21.83971 0,-11.26794 8.45455,-20.42583 20.43301,-23.23923 1.4067,-14.79187 14.08852,-26.05981 29.58373,-26.05981 18.31579,0 30.29426,11.97129 36.63158,30.28708 1.4067,4.22727 2.82058,5.63397 7.04067,5.63397 7.74402,0.71053 18.31579,-0.71052 24.65311,-2.11005 3.52392,-0.71052 5.63397,-3.52392 5.63397,-6.34449 -0.70335,-20.43302 -4.93062,-49.30622 -9.15072,-66.21531 -7.04067,0.70335 -28.17703,2.11722 -40.14832,2.11722 -30.99043,0 -60.58134,-13.38516 -76.07655,-48.60286 -45.07895,2.82057 -90.15789,2.11004 -133.83731,-2.11005 -0.70335,2.11005 -0.70335,3.51674 -0.70335,4.93062 0,8.45454 7.04067,16.90191 16.90191,16.90191 9.15072,0 16.20574,-3.52392 19.72249,-8.45454 2.11722,5.63397 3.51674,12.68182 3.51674,19.72248 0,17.61244 -13.37799,28.88039 -30.28708,28.88039 -3.52392,0 -7.04067,-0.71053 -8.45454,-1.41388 -0.71053,29.59091 2.11005,62.69138 2.11005,93.68899 0,24.65312 -14.08852,51.42342 -45.7823,57.76082 1.4067,-1.4067 2.11005,-3.5168 2.11005,-6.3374 0,-11.9784 -11.26794,-20.433 -23.94976,-20.433 -21.12919,0 -29.58373,10.5646 -51.42344,10.5646 -17.61244,0 -23.94976,-10.5646 -39.44498,-10.5646 -9.86124,0 -16.90191,7.0407 -16.90191,15.4952 0,4.2273 1.4067,7.7512 4.22727,11.268 -14.08851,-0.7034 -23.24641,-9.8613 -32.4043,-17.6053 l -26.76316,-23.2464 -49.30621,-219.05741 -20.42584,-13.38517 -7.04067,-32.4043 c -14.08852,-9.86125 -21.12919,-21.12919 -21.12919,-35.92105 0,-8.45455 3.52393,-14.79904 7.7512,-19.72249 -2.11005,-7.04785 -2.82057,-14.79904 -2.82057,-21.83971 l -16.19857,-73.95933 -41.5622,183.84688 -20.42583,13.38517 -52.12679,222.58851 -47.899523,37.3278 121.169853,-511.37084 z m -81.70335,470.52634 52.12679,-223.29191 20.42584,-14.08851 45.78229,-199.33492 -5.63397,-24.65311 c -7.04067,-0.70335 -14.79186,-2.82057 -22.54306,-5.63397 L 98.136537,1031.3807 123.50017,1010.9477 Z M 290.43796,651.01226 c 1.4067,0 2.82058,0 4.93062,0.70335 0.70335,-5.63397 2.82058,-9.86124 5.63397,-12.68182 l -24.6531,-114.10765 c 4.22727,-2.82057 9.15789,-7.04067 11.26794,-10.56459 -1.4067,-10.56459 -2.82058,-23.94976 -7.7512,-32.4043 -2.82057,19.01913 -19.01914,30.28708 -37.33492,30.28708 -19.72249,0 -37.33493,-16.19857 -37.33493,-37.33493 0,-20.42584 16.90191,-36.63158 37.33493,-36.63158 8.45454,0 16.19856,2.82058 23.24641,7.7512 6.33732,-4.93062 14.08851,-6.33732 21.12918,-6.33732 0.70335,-2.11005 2.11005,-4.22727 3.52392,-6.33732 -12.68181,-14.79187 -28.88038,-21.83254 -50.00956,-21.83254 -35.92105,0 -64.09808,28.17703 -64.09808,62.69139 0,35.92105 28.17703,64.80143 62.69138,64.80143 l 4.22727,0 26.76316,121.85884 c 2.82057,-4.22727 9.86842,-9.86124 20.43301,-9.86124 z M 272.12217,481.24672 c 0,-2.82057 -2.11004,-4.22727 -4.93062,-4.22727 -4.93062,0 -8.45454,4.22727 -10.56459,10.56459 -2.11005,-5.63397 -3.52392,-10.56459 -3.52392,-15.49521 0,-7.04067 2.11004,-14.08852 6.33732,-19.72249 -4.93063,-3.52392 -9.86125,-4.93062 -15.49522,-4.93062 -15.49521,0 -28.17703,11.97129 -28.17703,27.47368 0,15.50239 12.68182,28.17703 28.17703,28.17703 14.79187,0 28.17703,-12.68182 28.17703,-21.83971 z m 224.69856,138.06459 c 2.11004,-24.65311 16.90191,-53.53349 47.89951,-69.02871 -16.90191,-0.70335 -35.92105,-1.4067 -59.16746,-1.4067 -32.4043,0 -69.0287,2.11005 -100.72966,4.93062 -11.26794,0.70335 -18.31578,-4.22727 -23.94976,-11.97129 -7.75119,-11.26794 -10.56459,-28.17703 -9.86124,-40.85167 0.70335,-7.7512 4.22727,-11.97129 9.86124,-17.61244 5.63398,-5.64115 9.86125,-12.68182 9.86125,-22.54306 0,-12.68182 -9.86125,-21.83253 -20.42584,-21.83253 -3.52392,0 -6.33732,0.70334 -7.75119,1.40669 2.11004,3.52393 4.22727,7.7512 4.22727,14.79187 0,10.56459 -4.22727,21.12918 -11.97129,30.28708 4.22727,-11.26794 5.63397,-16.90191 5.63397,-25.35646 0,-16.90191 -11.97129,-30.28708 -27.47368,-30.28708 -7.7512,0 -16.19857,4.22727 -19.72249,11.26794 14.79186,4.93063 24.65311,18.31579 24.65311,33.81101 0,9.15789 -2.82058,16.19856 -5.63397,23.24641 0.70335,-5.63397 0.70335,-9.86125 0.70335,-14.08852 0,-19.01914 -11.26795,-35.92105 -28.17704,-35.92105 -19.01913,0 -27.47368,13.38517 -26.76315,27.47368 2.11004,-2.11005 6.33732,-4.93062 13.38516,-4.93062 9.1579,0 19.72249,4.93062 22.54306,24.65311 3.52393,26.76316 8.45455,40.85167 16.90192,56.35406 3.52392,7.04067 7.04067,14.79187 7.04067,23.94976 0,9.86125 -6.33732,18.31579 -13.38517,22.54306 7.04067,9.1579 19.01914,13.38517 36.63158,13.38517 11.97129,0 22.54306,-2.11005 38.03827,-2.11005 34.51436,0 63.39474,8.45455 81.71052,32.40431 12.68182,-8.47608 23.24642,-14.82058 35.92106,-22.56459 z M 393.98102,788.35914 c 6.33732,-7.74402 16.19856,-21.83253 29.58373,-33.811 12.68182,-11.26794 24.65311,-19.72249 38.03827,-26.76316 9.86125,-4.9378 19.72249,-8.45454 28.17704,-8.45454 14.08851,0 21.83253,8.45454 21.83253,15.49521 12.68182,-7.04067 23.94976,-13.37799 37.33493,-19.01196 -33.81101,-16.90191 -50.00957,-47.89952 -52.83014,-83.1244 -31.70096,16.20575 -68.32536,45.07895 -98.61244,70.43541 -10.56459,8.45454 -19.72249,8.45454 -30.28708,4.9378 -7.75119,-2.82058 -16.90191,-9.86125 -21.12918,-17.60527 -1.4067,-2.82057 -2.11005,-6.34449 -2.11005,-9.86842 l 0.70335,-14.79186 c 0.70335,-15.49522 -11.26794,-24.66029 -23.24641,-24.66029 -8.45455,0 -16.19857,2.82058 -19.72249,11.26794 12.68182,4.9378 23.94976,17.61244 25.35646,40.15551 -10.56459,-25.35646 -22.54306,-33.10048 -33.811,-33.10048 -18.31579,0 -23.94976,16.90191 -23.24641,27.4665 4.22727,-2.11004 9.15789,-3.52392 14.79186,-3.52392 16.90191,0 29.58373,12.689 33.10765,29.59091 -10.56459,-14.79904 -19.01913,-21.13636 -33.10765,-21.13636 -11.97129,0 -19.72249,9.15789 -19.72249,20.43301 0,9.86124 2.82058,19.01196 14.08852,27.4665 -0.70335,-9.85406 5.63397,-18.30861 15.49521,-18.30861 9.86125,0 15.49522,4.93063 21.83254,12.67464 12.68182,16.20574 23.94976,24.66029 37.33493,31.70096 10.56459,5.63397 14.08851,14.08851 14.08851,21.12918 0,4.22728 -1.4067,9.15072 -4.22727,13.38517 2.11005,1.39952 4.93062,1.39952 8.45454,1.39952 7.04067,0.007 15.49522,-4.92344 21.83254,-13.37799 z M 309.4571,575.63906 c 0,-5.63397 -2.82057,-11.97129 -4.93062,-16.90191 -4.93062,-10.5646 -10.5646,-21.83254 -14.08852,-33.10766 l -4.22727,4.22727 14.08852,61.98804 c 3.52392,-1.41388 9.15789,-8.46172 9.15789,-16.20574 z m 69.0287,439.53584 c 0,-6.3373 1.4067,-11.2679 4.22728,-16.90189 -4.93063,-4.9378 -9.1579,-12.68182 -9.1579,-21.83971 0,-3.51675 0.70335,-6.33732 2.11005,-9.15072 L 328.46906,758.78259 c -5.63397,-4.9378 -12.68182,-12.68182 -18.31579,-19.01914 -5.63397,-7.03349 -9.86124,-9.85406 -15.49521,-9.85406 -4.93062,0 -9.1579,4.22009 -7.7512,11.97129 l 7.04067,31.69377 20.42584,14.08852 49.30621,219.76793 15.49522,13.3852 c -0.689,-2.1244 -0.689,-3.5239 -0.689,-5.6412 z m 14.08852,-319.08369 c 16.90191,-14.79905 38.03828,-31.70096 61.28469,-49.3134 -16.90192,-19.72249 -44.3756,-27.4665 -73.95933,-27.4665 -21.83254,0 -30.99043,1.40669 -40.85167,1.40669 -12.68182,0 -28.17704,-4.22727 -35.92105,-13.38516 l 6.33732,27.47368 c 2.82057,-1.4067 8.45454,-2.82057 13.38516,-2.82057 14.79187,0 30.28708,10.57177 30.28708,30.29425 0,5.63397 -1.4067,12.67464 -1.4067,16.19857 0,3.52392 0.70335,6.34449 2.11005,8.45454 3.52393,4.93062 11.26794,11.26794 17.61244,13.37799 7.03349,2.11723 13.37081,2.11723 21.12201,-4.22009 z m 101.43301,264.84687 c 3.52392,-0.71053 5.63397,-3.52392 5.63397,-7.04785 -0.70335,-40.14832 -9.15789,-92.26793 -9.15789,-131.72008 0,-29.58373 7.75119,-51.42345 41.56219,-62.69139 30.99043,-10.56459 69.73206,-15.48804 90.15789,-15.48804 4.23445,0 9.1579,0 19.01914,1.39953 -30.29426,-11.9713 -54.94019,-18.30862 -79.5933,-23.94259 -17.61243,6.33732 -39.44497,18.30861 -60.57416,30.28708 1.4067,-3.52392 2.11005,-6.34449 2.11005,-9.86124 0,-6.33732 -4.22727,-12.68182 -13.38516,-12.68182 -8.45455,0 -16.90192,3.52393 -23.94976,7.04067 -11.97129,6.33732 -26.05981,15.49522 -35.92105,24.66029 -13.38517,11.97129 -23.24641,24.65311 -28.88039,31.69378 -8.45454,10.57177 -19.72248,16.90191 -31.70095,16.90191 -6.33732,0 -11.97129,-1.4067 -16.90191,-4.9378 3.52392,-3.51675 7.04067,-7.74402 7.04067,-14.79187 0,-5.63397 -2.82058,-11.26794 -7.04067,-14.79186 -4.22728,-3.52392 -9.1579,-5.63397 -12.68182,-8.45455 l 42.9689,191.5909 c 2.82057,-2.11722 6.33732,-3.52392 11.26794,-4.9378 1.4067,-14.79186 14.08851,-26.0598 29.58373,-26.0598 18.31579,0 30.28708,11.97129 36.63158,30.28708 1.40669,4.22727 2.82057,5.63397 7.04067,5.63397 7.75119,0.73205 20.42583,-0.68182 26.77033,-2.08852 z m -90.86842,73.25602 c 0,-11.268 10.5646,-19.7225 23.94976,-19.7225 17.61244,0 27.47368,11.2679 42.26555,11.2679 17.61244,0 22.54306,-10.5717 47.19617,-10.5717 18.31579,0 31.70095,11.2679 32.4043,23.9497 14.08134,-5.634 26.05981,-23.2464 26.05981,-45.07894 0,-28.88038 -1.4067,-68.33253 -1.4067,-104.24641 4.9378,1.4067 9.86125,2.82058 18.31579,2.82058 13.37799,0 21.12919,-8.45455 21.12919,-18.31579 0,-2.82058 0,-4.9378 -0.70335,-7.04067 -4.9378,2.11005 -9.86842,2.82057 -14.08852,2.82057 -13.38517,0 -25.35646,-10.56459 -26.06698,-29.58373 0,-3.51674 0,-6.33732 0.71052,-9.15072 36.63158,2.82058 76.77273,4.93063 113.4043,2.82058 -10.57177,-4.23445 -14.79186,-13.38517 -14.79186,-21.13636 0,-5.63398 3.51674,-10.5646 8.45454,-12.67464 -9.15789,-21.13637 -26.06698,-37.33493 -40.85885,-47.19617 -26.76315,-1.4067 -70.4354,4.93779 -102.8397,14.79186 -29.58373,9.15789 -35.21771,30.99043 -35.21771,54.24402 0,32.4043 6.33733,82.41387 6.33733,132.42343 0,7.04067 -2.82058,11.26795 -8.45455,13.37799 -7.7512,3.52393 -23.24641,5.63398 -33.811,4.23445 -6.33732,-0.71052 -9.86125,-2.82057 -12.68182,-10.57177 -5.63397,-16.20574 -16.19856,-26.0598 -28.88038,-26.0598 -13.38517,0 -20.42584,9.85406 -22.54306,16.90191 21.83253,0 35.92105,11.26794 43.67224,26.05981 -12.68181,-11.26794 -25.35645,-18.31579 -40.85167,-18.31579 -14.08851,0 -22.54306,9.15789 -22.54306,19.01196 0,4.9378 0.70335,11.26794 4.22727,14.79904 4.93062,-7.04067 16.90192,-11.26794 26.05981,-11.26794 14.79187,0 23.94976,7.74402 27.47368,14.79904 -7.75119,-5.63397 -15.49521,-7.75119 -24.65311,-7.75119 -14.08851,0 -26.76315,10.57178 -26.76315,24.66028 0,14.0885 7.04067,25.3565 19.01914,31.6938 -2.11723,-3.5383 -3.52393,-7.7727 -3.52393,-11.9928 z M 582.75852,464.34481 c -20.43301,4.22727 -30.28708,5.63397 -36.63158,5.63397 -24.65311,0 -39.44497,-11.26794 -40.85167,-26.06699 -2.82057,17.61244 9.86124,33.10766 32.4043,33.10766 14.08852,0.007 27.46651,-4.2201 45.07895,-12.67464 z m -47.18899,183.8397 c 0,-39.44497 27.47368,-65.50478 67.622,-80.29665 19.72249,-7.04067 45.07895,-13.37799 76.07655,-28.17703 30.99043,-14.79186 47.189,-40.14832 47.189,-76.07655 0,-28.17703 -9.86125,-50.71292 -30.28708,-58.46411 12.67464,8.45454 14.79186,16.90191 14.79186,25.35646 0,9.86124 -7.75119,16.90191 -15.49521,16.90191 -7.04067,0 -10.5646,-4.9378 -13.37799,-11.26794 3.51674,3.51674 6.33732,4.93062 10.56459,4.93062 7.04067,0 10.56459,-4.93062 10.56459,-11.26794 0,-19.01196 -16.19856,-26.76316 -38.73444,-26.76316 -11.88517,0 -28.38517,1.02632 -45.6244,2.61244 1.56459,1.30622 3.16507,2.38995 4.77272,3.02153 4.22728,2.11723 9.15072,2.82058 16.19857,3.52393 9.86124,1.40669 19.01913,2.11004 26.76315,4.93062 -8.45454,0 -16.19856,1.4067 -23.23923,3.52392 -2.11722,7.04067 -4.9378,10.56459 -9.86124,10.56459 -4.9378,0 -8.45455,-2.82057 -11.26795,-7.74402 -2.28229,-4.57177 -4.57894,-10.99521 -6.6244,-17.51196 -10.32775,0.99043 -20.83492,2.16029 -30.71052,3.43063 l 2.82057,32.4043 c 2.11723,-2.82057 9.15072,-6.33732 16.90192,-6.33732 17.60526,0 30.99042,13.38517 30.99042,29.58373 0,17.61244 -11.26794,25.35646 -25.35645,25.35646 -8.45455,0 -16.20574,-3.52393 -20.42584,-6.33732 l 1.39952,26.0598 c 20.43302,-3.52392 38.74163,-6.33732 61.98804,-9.15789 28.17703,-4.22727 54.24401,-10.56459 54.94736,-54.23684 1.39952,2.82058 3.51675,9.1579 3.51675,14.79187 0,28.88038 -17.60526,48.60286 -45.7823,57.76076 -30.99042,9.86124 -69.03588,19.01914 -95.09568,28.17703 -36.63158,12.68182 -64.80144,40.85167 -64.80144,78.88995 0,38.74162 16.90192,71.13875 59.16746,87.34449 -22.55023,-20.44737 -29.5909,-40.86602 -29.5909,-65.52631 z m 41.55502,21.83971 c 0,-32.4043 22.54306,-54.94019 54.94019,-69.0287 26.0598,-11.26795 43.67224,-19.72249 65.50478,-30.99043 34.52153,-18.31579 49.31339,-53.53349 49.31339,-88.75119 0,-34.52153 -12.68899,-61.98804 -32.41148,-71.14593 11.26794,9.86124 19.72249,28.88038 19.72249,53.53349 0,38.03827 -16.90191,68.33253 -51.41627,84.52392 -23.94976,11.26794 -45.78229,17.61244 -73.95932,27.47368 -38.04546,12.68182 -63.39474,38.03827 -63.39474,73.25598 0,28.17703 15.49522,60.57416 40.85885,69.0287 l 12.67464,4.22727 c -15.48803,-14.79904 -21.83253,-32.4043 -21.83253,-52.12679 z m 37.33493,24.65311 c 0,-28.17703 19.01196,-47.18899 42.96172,-59.87081 21.12918,-11.26794 37.32774,-19.01914 54.23683,-30.29426 42.26555,-27.4665 57.05742,-60.57416 57.05742,-102.8397 0,-30.28708 -10.5646,-64.09809 -35.92105,-83.11722 12.67464,14.79904 21.83253,34.52152 21.83253,63.39473 0,38.03827 -12.68182,72.55263 -51.42344,94.38516 -20.42584,11.97847 -42.96172,22.54306 -67.62201,33.10765 -23.94258,9.86125 -48.59569,30.28708 -48.59569,61.98804 0,26.76316 14.79187,47.18899 34.51435,57.05024 l 11.26795,5.63397 c -9.85407,-9.15072 -18.30861,-21.82536 -18.30861,-39.4378 z m 111.9976,-326.13156 -17.61244,0 c -1.39952,7.04067 -9.15072,12.68182 -16.19857,12.68182 -8.45454,0 -14.79904,-4.9378 -16.19856,-12.68182 l -19.01914,0 c -1.4067,7.04067 -8.45454,12.68182 -16.20574,12.68182 -8.45454,0 -14.08851,-4.9378 -15.48804,-12.68182 l -17.61244,0 11.97847,28.8732 c 13.37799,-0.70335 30.28708,-1.4067 42.26555,-1.4067 23.23923,0 35.92105,2.82058 48.59569,5.63398 l 15.49522,-33.10048 z m -74.66268,346.5574 c 0,-14.79905 4.22727,-23.94976 11.97129,-32.40431 20.43302,-23.94976 50.71292,-30.99043 76.7799,-52.12679 33.81101,-28.17703 50.71292,-66.21531 50.71292,-109.88755 0,-36.63158 -16.19857,-66.91866 -35.92105,-86.64115 11.97129,16.20574 21.12201,40.85168 21.12201,67.62201 0,45.78947 -12.67464,78.88995 -58.46412,109.88755 -14.79904,9.86125 -38.03827,21.12919 -56.35406,30.99043 -19.01196,10.57177 -37.33493,28.17703 -37.33493,52.12679 0,25.35646 16.20575,42.26555 40.85885,52.83014 -9.15071,-8.44736 -13.37081,-20.42583 -13.37081,-32.39712 z m 60.56698,116.92822 c -6.33732,-36.63158 -20.42583,-61.98804 -49.29904,-78.88995 -5.63397,-3.51674 -10.57177,0.70335 -6.34449,4.22727 9.15789,8.45455 28.17703,26.76316 34.52153,47.189 -6.3445,0 -9.1579,4.23445 -9.1579,9.15789 0,11.97847 12.68182,19.72249 21.12919,19.72249 3.51674,0.007 6.33014,-0.70335 9.15071,-1.4067 z m 35.22488,202.15551 c 0,-11.268 10.57177,-19.7225 23.94976,-19.7225 17.61244,0 27.46651,11.2679 42.26555,11.2679 17.61244,0 22.54306,-10.5645 47.18899,-10.5645 18.32297,0 31.70096,11.2679 32.41148,23.9497 14.08852,-5.634 23.94259,-22.543 23.94259,-57.76076 0,-45.07894 -6.33732,-100.72966 -13.37799,-142.99521 21.83253,-1.4067 30.28708,-9.86124 30.28708,-22.54306 0,-4.93062 -1.39953,-9.15072 -2.82058,-11.97129 -20.42583,9.86124 -42.26555,15.49521 -67.622,15.49521 -17.60527,0 -40.8445,-2.11722 -52.11962,-6.34449 -5.63397,-28.17703 -21.13636,-52.12679 -33.10765,-64.80143 12.68182,5.63397 35.2177,11.26794 54.94019,11.26794 83.82057,0 146.51195,-58.46411 146.51195,-121.1555 0,-38.03827 -23.94976,-65.50478 -62.69138,-93.68181 l -14.08852,9.86124 c 42.26555,28.87321 56.35406,55.64354 56.35406,81 0,34.52153 -28.8732,61.98803 -65.50478,61.98803 -36.63157,0 -65.50478,-27.4665 -65.50478,-61.98803 0,-33.10048 21.83254,-55.64354 60.56698,-81.71052 9.1579,-5.63397 19.72249,-13.37799 29.59091,-20.42584 15.48804,-11.97847 34.51435,-33.10765 30.99043,-53.53349 11.26794,-2.82057 19.01196,-9.15789 19.01196,-24.66029 0,-16.90191 -14.08851,-28.8732 -29.58373,-28.8732 -11.26794,0 -18.31579,2.82057 -23.23923,4.93062 12.67464,11.26794 19.01196,26.06699 19.01196,38.74163 0,20.42583 -8.45455,34.51435 -29.58373,49.30621 -14.79187,10.5646 -31.69378,21.12919 -47.89952,33.10048 -32.40431,23.94976 -50.01674,48.60287 -50.01674,82.41387 0,49.30622 40.1555,77.48325 78.19377,77.48325 21.83971,0 40.85167,-4.22727 58.46411,-16.90191 -20.43301,23.23923 -61.98803,45.07894 -106.36363,45.07894 -55.65071,0 -94.38516,-38.03827 -94.38516,-83.11722 0,-9.86124 1.4067,-16.90191 2.82057,-20.43301 -27.4665,24.66029 -54.24401,28.88038 -73.25597,50.01674 -8.45455,9.15072 -11.26795,18.31579 -11.26795,28.87321 0,13.38516 6.3445,25.35646 15.49522,33.811 9.86124,8.45455 20.42584,19.01914 26.05981,28.17703 9.15789,14.08852 14.08851,30.99043 18.32296,47.89952 9.85407,39.44497 38.73445,55.65072 75.36603,55.65072 11.97846,0 34.52153,-2.11723 45.78947,-5.63398 -1.41388,4.93063 -1.41388,9.15072 0,14.79187 4.93062,21.12919 8.45454,42.9689 9.15071,64.10526 0,7.04067 -2.82057,10.56459 -9.15071,13.37799 -7.7512,3.52392 -22.54306,5.63397 -33.10766,4.22727 -6.33732,-0.70335 -9.86124,-2.82057 -12.68181,-10.56459 -5.63397,-16.20574 -16.19857,-26.06699 -28.88038,-26.06699 -13.37799,0 -20.42584,9.86125 -22.54307,16.90192 21.83972,0 35.92823,11.26794 43.67943,26.06698 -12.689,-11.26794 -25.35646,-18.31579 -40.85885,-18.31579 -14.08852,0 -22.54306,9.15072 -22.54306,19.01196 0,4.9378 0.71052,11.26795 4.23445,14.79905 4.93062,-7.04067 16.90191,-11.26795 26.0598,-11.26795 14.79187,0 23.94976,7.74402 27.47369,14.79187 -7.7512,-5.63397 -15.50239,-7.74402 -24.66029,-7.74402 -14.08852,0 -26.76316,10.56457 -26.76316,24.65307 0,14.0886 7.04067,25.3565 19.01197,31.701 -2.11005,-3.5096 -3.52393,-7.7368 -3.52393,-11.9641 z M 888.46424,521.39504 c -23.23923,-16.90191 -31.69377,-30.99043 -31.69377,-51.41626 0,-12.68182 6.33732,-27.47369 19.01196,-38.74163 -4.93062,-2.11004 -11.97847,-4.93062 -23.24641,-4.93062 -15.48804,0 -29.57656,11.97129 -29.57656,28.87321 0,15.49521 7.74402,21.83971 19.01196,24.66028 -3.52392,19.72249 14.08852,39.44497 31.70096,52.82296 l 14.79186,-11.26794 z m 61.28469,114.11483 c 0,-29.58373 -16.90191,-50.71292 -54.24402,-76.07655 -38.03827,25.35646 -57.05741,45.07894 -57.05741,76.07655 0,29.58373 24.66029,53.53349 55.65072,53.53349 30.99042,0 55.65071,-23.94976 55.65071,-53.53349 z" fill="url(#gradient-obj2)" id="2" path="m 205.20352,540.42136 c -19.01914,-10.5646 -38.03828,-33.10766 -38.03828,-66.91866 0,-40.85167 33.10765,-71.84928 73.25598,-71.84928 24.65311,0 42.9689,9.86125 57.05741,25.35646 4.93062,-2.82057 10.56459,-4.22727 16.90191,-4.22727 11.26795,0 20.42584,5.63397 25.35646,11.26794 3.52393,-1.4067 7.04067,-2.11005 11.97129,-2.11005 14.79187,0 28.88038,11.26794 28.88038,28.88038 0,12.68182 -7.04067,22.54306 -14.08851,29.58373 -3.52392,3.52393 -4.93062,5.63397 -5.63397,10.5646 -1.4067,11.26794 2.11005,27.47368 8.45454,36.63157 3.52393,4.93063 7.04067,7.7512 16.19857,7.04067 22.54306,-1.4067 62.69138,-4.93062 104.2464,-4.93062 35.2177,0 60.57416,0.70335 74.66985,0 26.76316,-8.45454 52.82297,-16.19856 83.82057,-23.94976 11.26795,-2.82057 28.88039,-6.33732 37.33493,-16.19856 -8.45454,4.93062 -23.95694,8.45454 -37.33493,9.86124 -19.01196,2.82058 -42.26554,7.04067 -55.64353,9.1579 -4.9378,0.70334 -7.7512,-0.70335 -7.7512,-4.22728 l -1.4067,-35.92105 c 0,-2.11005 0.71053,-2.82057 2.11005,-2.82057 1.41388,0 2.11722,0.70335 3.52392,1.4067 6.3445,3.52392 12.68182,5.63397 22.54306,5.63397 7.04067,0 13.37799,-2.82058 13.37799,-8.45455 -0.70335,-4.93062 -5.63397,-9.15789 -14.79186,-9.15789 -24.66029,0 -40.85167,19.72249 -71.14593,19.72249 -25.35646,0 -41.5622,-16.19857 -41.5622,-34.51436 0,-13.38516 7.7512,-23.24641 19.72249,-28.17703 -4.22727,6.33732 -5.63397,10.56459 -5.63397,16.19857 0,13.38516 14.08851,23.24641 35.92105,23.24641 23.24641,0 35.92105,-5.63398 53.53349,-5.63398 14.08851,0 23.94258,4.22728 26.76315,9.1579 -0.70335,-12.68182 -9.85406,-21.83254 -23.94258,-21.83254 -7.04785,0 -14.08851,3.52393 -16.90191,8.45455 -0.71053,1.4067 -1.41388,2.11005 -2.82058,2.11005 -1.41387,0 -2.11722,-0.70335 -2.11722,-2.11005 l -4.9378,-40.85167 c -0.70335,-4.93063 1.41388,-9.1579 7.7512,-9.86125 l 28.17703,-2.82057 -18.31579,-36.63158 35.92105,0 c 0,7.04067 4.9378,11.97129 10.57177,11.97129 5.63397,0 10.57177,-4.93062 10.57177,-11.97129 l 30.28708,0 c 0,7.04067 4.22727,11.97129 10.56459,11.97129 4.9378,0 9.86842,-4.93062 9.86842,-11.97129 l 36.63158,0 -21.13636,42.26555 c 47.89952,19.01914 82.41387,64.09808 82.41387,116.92822 0,46.49282 -15.49522,72.55263 -37.33493,102.13636 -6.33732,7.74402 -9.85406,16.19857 -9.85406,34.51435 0,40.85168 36.63157,73.95933 84.52391,73.95933 23.23924,0 40.14833,-3.51675 57.75359,-11.97129 -3.51675,0.70335 -7.74402,0.70335 -11.97129,0.70335 -45.07895,0 -86.64114,-35.92105 -86.64114,-84.52392 0,-39.44497 21.83971,-65.50478 50.71291,-85.93062 5.63397,-4.22727 11.97847,-8.45454 17.61244,-12.68182 -18.31579,-15.49521 -30.28708,-31.70095 -30.99043,-52.12679 -11.97847,-4.22727 -21.12918,-14.79186 -21.12918,-29.58373 0,-19.72248 17.60526,-36.63157 39.44497,-36.63157 15.49521,0 27.47368,6.33732 35.2177,12.68181 -12.68182,9.1579 -22.54306,22.54306 -22.54306,40.14833 0,19.72248 13.37799,34.51435 30.28708,45.78229 16.90191,-11.26794 30.99043,-26.05981 30.99043,-45.78229 0,-17.61244 -9.85407,-30.99043 -22.54306,-40.14833 7.75119,-6.33732 19.72249,-12.68181 35.22488,-12.68181 21.83253,0 39.44497,16.90191 39.44497,36.63157 0,14.79187 -9.15789,25.35646 -21.13636,29.58373 -0.70335,21.83254 -13.37799,38.03828 -33.10048,54.23684 37.33493,28.88038 66.21531,56.35407 66.21531,99.31579 0,66.22248 -62.68421,131.02391 -156.3732,131.02391 -14.79904,0 -23.94976,-2.11722 -32.4043,-4.23445 7.75119,11.26794 15.49521,22.54306 19.01913,40.85885 7.0335,2.11005 28.17704,3.51675 42.96172,3.51675 26.76316,0 63.39474,-9.86125 72.55263,-20.42584 3.51675,7.03349 7.03349,16.90192 7.03349,26.76316 0,16.90191 -12.67464,26.77033 -27.4665,29.59091 5.63397,43.66507 11.26794,92.97846 11.26794,131.00956 0,52.13398 -17.61244,72.55268 -42.9689,75.37318 1.41388,-1.4067 2.11723,-3.5167 2.11723,-6.3373 0,-11.9785 -11.26794,-20.433 -23.94976,-20.433 -21.12919,0 -29.58373,10.5646 -51.42344,10.5646 -17.60526,0 -23.94259,-10.5646 -39.44498,-10.5646 -9.85406,0 -16.90191,7.0407 -16.90191,15.4952 0,4.2273 1.41388,7.7512 4.23445,11.268 -19.72249,-0.7034 -35.92823,-18.3158 -35.92823,-36.6316 0,-6.3373 1.4067,-11.268 4.22727,-16.90195 -4.93062,-4.9378 -9.15789,-12.68181 -9.15789,-21.83971 0,-11.26794 8.45455,-20.42583 20.43301,-23.23923 1.4067,-14.79187 14.08852,-26.05981 29.58373,-26.05981 18.31579,0 30.29426,11.97129 36.63158,30.28708 1.4067,4.22727 2.82058,5.63397 7.04067,5.63397 7.74402,0.71053 18.31579,-0.71052 24.65311,-2.11005 3.52392,-0.71052 5.63397,-3.52392 5.63397,-6.34449 -0.70335,-20.43302 -4.93062,-49.30622 -9.15072,-66.21531 -7.04067,0.70335 -28.17703,2.11722 -40.14832,2.11722 -30.99043,0 -60.58134,-13.38516 -76.07655,-48.60286 -45.07895,2.82057 -90.15789,2.11004 -133.83731,-2.11005 -0.70335,2.11005 -0.70335,3.51674 -0.70335,4.93062 0,8.45454 7.04067,16.90191 16.90191,16.90191 9.15072,0 16.20574,-3.52392 19.72249,-8.45454 2.11722,5.63397 3.51674,12.68182 3.51674,19.72248 0,17.61244 -13.37799,28.88039 -30.28708,28.88039 -3.52392,0 -7.04067,-0.71053 -8.45454,-1.41388 -0.71053,29.59091 2.11005,62.69138 2.11005,93.68899 0,24.65312 -14.08852,51.42342 -45.7823,57.76082 1.4067,-1.4067 2.11005,-3.5168 2.11005,-6.3374 0,-11.9784 -11.26794,-20.433 -23.94976,-20.433 -21.12919,0 -29.58373,10.5646 -51.42344,10.5646 -17.61244,0 -23.94976,-10.5646 -39.44498,-10.5646 -9.86124,0 -16.90191,7.0407 -16.90191,15.4952 0,4.2273 1.4067,7.7512 4.22727,11.268 -14.08851,-0.7034 -23.24641,-9.8613 -32.4043,-17.6053 l -26.76316,-23.2464 -49.30621,-219.05741 -20.42584,-13.38517 -7.04067,-32.4043 c -14.08852,-9.86125 -21.12919,-21.12919 -21.12919,-35.92105 0,-8.45455 3.52393,-14.79904 7.7512,-19.72249 -2.11005,-7.04785 -2.82057,-14.79904 -2.82057,-21.83971 l -16.19857,-73.95933 -41.5622,183.84688 -20.42583,13.38517 -52.12679,222.58851 -47.899523,37.3278 121.169853,-511.37084 z m -81.70335,470.52634 52.12679,-223.29191 20.42584,-14.08851 45.78229,-199.33492 -5.63397,-24.65311 c -7.04067,-0.70335 -14.79186,-2.82057 -22.54306,-5.63397 L 98.136537,1031.3807 123.50017,1010.9477 Z M 290.43796,651.01226 c 1.4067,0 2.82058,0 4.93062,0.70335 0.70335,-5.63397 2.82058,-9.86124 5.63397,-12.68182 l -24.6531,-114.10765 c 4.22727,-2.82057 9.15789,-7.04067 11.26794,-10.56459 -1.4067,-10.56459 -2.82058,-23.94976 -7.7512,-32.4043 -2.82057,19.01913 -19.01914,30.28708 -37.33492,30.28708 -19.72249,0 -37.33493,-16.19857 -37.33493,-37.33493 0,-20.42584 16.90191,-36.63158 37.33493,-36.63158 8.45454,0 16.19856,2.82058 23.24641,7.7512 6.33732,-4.93062 14.08851,-6.33732 21.12918,-6.33732 0.70335,-2.11005 2.11005,-4.22727 3.52392,-6.33732 -12.68181,-14.79187 -28.88038,-21.83254 -50.00956,-21.83254 -35.92105,0 -64.09808,28.17703 -64.09808,62.69139 0,35.92105 28.17703,64.80143 62.69138,64.80143 l 4.22727,0 26.76316,121.85884 c 2.82057,-4.22727 9.86842,-9.86124 20.43301,-9.86124 z M 272.12217,481.24672 c 0,-2.82057 -2.11004,-4.22727 -4.93062,-4.22727 -4.93062,0 -8.45454,4.22727 -10.56459,10.56459 -2.11005,-5.63397 -3.52392,-10.56459 -3.52392,-15.49521 0,-7.04067 2.11004,-14.08852 6.33732,-19.72249 -4.93063,-3.52392 -9.86125,-4.93062 -15.49522,-4.93062 -15.49521,0 -28.17703,11.97129 -28.17703,27.47368 0,15.50239 12.68182,28.17703 28.17703,28.17703 14.79187,0 28.17703,-12.68182 28.17703,-21.83971 z m 224.69856,138.06459 c 2.11004,-24.65311 16.90191,-53.53349 47.89951,-69.02871 -16.90191,-0.70335 -35.92105,-1.4067 -59.16746,-1.4067 -32.4043,0 -69.0287,2.11005 -100.72966,4.93062 -11.26794,0.70335 -18.31578,-4.22727 -23.94976,-11.97129 -7.75119,-11.26794 -10.56459,-28.17703 -9.86124,-40.85167 0.70335,-7.7512 4.22727,-11.97129 9.86124,-17.61244 5.63398,-5.64115 9.86125,-12.68182 9.86125,-22.54306 0,-12.68182 -9.86125,-21.83253 -20.42584,-21.83253 -3.52392,0 -6.33732,0.70334 -7.75119,1.40669 2.11004,3.52393 4.22727,7.7512 4.22727,14.79187 0,10.56459 -4.22727,21.12918 -11.97129,30.28708 4.22727,-11.26794 5.63397,-16.90191 5.63397,-25.35646 0,-16.90191 -11.97129,-30.28708 -27.47368,-30.28708 -7.7512,0 -16.19857,4.22727 -19.72249,11.26794 14.79186,4.93063 24.65311,18.31579 24.65311,33.81101 0,9.15789 -2.82058,16.19856 -5.63397,23.24641 0.70335,-5.63397 0.70335,-9.86125 0.70335,-14.08852 0,-19.01914 -11.26795,-35.92105 -28.17704,-35.92105 -19.01913,0 -27.47368,13.38517 -26.76315,27.47368 2.11004,-2.11005 6.33732,-4.93062 13.38516,-4.93062 9.1579,0 19.72249,4.93062 22.54306,24.65311 3.52393,26.76316 8.45455,40.85167 16.90192,56.35406 3.52392,7.04067 7.04067,14.79187 7.04067,23.94976 0,9.86125 -6.33732,18.31579 -13.38517,22.54306 7.04067,9.1579 19.01914,13.38517 36.63158,13.38517 11.97129,0 22.54306,-2.11005 38.03827,-2.11005 34.51436,0 63.39474,8.45455 81.71052,32.40431 12.68182,-8.47608 23.24642,-14.82058 35.92106,-22.56459 z M 393.98102,788.35914 c 6.33732,-7.74402 16.19856,-21.83253 29.58373,-33.811 12.68182,-11.26794 24.65311,-19.72249 38.03827,-26.76316 9.86125,-4.9378 19.72249,-8.45454 28.17704,-8.45454 14.08851,0 21.83253,8.45454 21.83253,15.49521 12.68182,-7.04067 23.94976,-13.37799 37.33493,-19.01196 -33.81101,-16.90191 -50.00957,-47.89952 -52.83014,-83.1244 -31.70096,16.20575 -68.32536,45.07895 -98.61244,70.43541 -10.56459,8.45454 -19.72249,8.45454 -30.28708,4.9378 -7.75119,-2.82058 -16.90191,-9.86125 -21.12918,-17.60527 -1.4067,-2.82057 -2.11005,-6.34449 -2.11005,-9.86842 l 0.70335,-14.79186 c 0.70335,-15.49522 -11.26794,-24.66029 -23.24641,-24.66029 -8.45455,0 -16.19857,2.82058 -19.72249,11.26794 12.68182,4.9378 23.94976,17.61244 25.35646,40.15551 -10.56459,-25.35646 -22.54306,-33.10048 -33.811,-33.10048 -18.31579,0 -23.94976,16.90191 -23.24641,27.4665 4.22727,-2.11004 9.15789,-3.52392 14.79186,-3.52392 16.90191,0 29.58373,12.689 33.10765,29.59091 -10.56459,-14.79904 -19.01913,-21.13636 -33.10765,-21.13636 -11.97129,0 -19.72249,9.15789 -19.72249,20.43301 0,9.86124 2.82058,19.01196 14.08852,27.4665 -0.70335,-9.85406 5.63397,-18.30861 15.49521,-18.30861 9.86125,0 15.49522,4.93063 21.83254,12.67464 12.68182,16.20574 23.94976,24.66029 37.33493,31.70096 10.56459,5.63397 14.08851,14.08851 14.08851,21.12918 0,4.22728 -1.4067,9.15072 -4.22727,13.38517 2.11005,1.39952 4.93062,1.39952 8.45454,1.39952 7.04067,0.007 15.49522,-4.92344 21.83254,-13.37799 z M 309.4571,575.63906 c 0,-5.63397 -2.82057,-11.97129 -4.93062,-16.90191 -4.93062,-10.5646 -10.5646,-21.83254 -14.08852,-33.10766 l -4.22727,4.22727 14.08852,61.98804 c 3.52392,-1.41388 9.15789,-8.46172 9.15789,-16.20574 z m 69.0287,439.53584 c 0,-6.3373 1.4067,-11.2679 4.22728,-16.90189 -4.93063,-4.9378 -9.1579,-12.68182 -9.1579,-21.83971 0,-3.51675 0.70335,-6.33732 2.11005,-9.15072 L 328.46906,758.78259 c -5.63397,-4.9378 -12.68182,-12.68182 -18.31579,-19.01914 -5.63397,-7.03349 -9.86124,-9.85406 -15.49521,-9.85406 -4.93062,0 -9.1579,4.22009 -7.7512,11.97129 l 7.04067,31.69377 20.42584,14.08852 49.30621,219.76793 15.49522,13.3852 c -0.689,-2.1244 -0.689,-3.5239 -0.689,-5.6412 z m 14.08852,-319.08369 c 16.90191,-14.79905 38.03828,-31.70096 61.28469,-49.3134 -16.90192,-19.72249 -44.3756,-27.4665 -73.95933,-27.4665 -21.83254,0 -30.99043,1.40669 -40.85167,1.40669 -12.68182,0 -28.17704,-4.22727 -35.92105,-13.38516 l 6.33732,27.47368 c 2.82057,-1.4067 8.45454,-2.82057 13.38516,-2.82057 14.79187,0 30.28708,10.57177 30.28708,30.29425 0,5.63397 -1.4067,12.67464 -1.4067,16.19857 0,3.52392 0.70335,6.34449 2.11005,8.45454 3.52393,4.93062 11.26794,11.26794 17.61244,13.37799 7.03349,2.11723 13.37081,2.11723 21.12201,-4.22009 z m 101.43301,264.84687 c 3.52392,-0.71053 5.63397,-3.52392 5.63397,-7.04785 -0.70335,-40.14832 -9.15789,-92.26793 -9.15789,-131.72008 0,-29.58373 7.75119,-51.42345 41.56219,-62.69139 30.99043,-10.56459 69.73206,-15.48804 90.15789,-15.48804 4.23445,0 9.1579,0 19.01914,1.39953 -30.29426,-11.9713 -54.94019,-18.30862 -79.5933,-23.94259 -17.61243,6.33732 -39.44497,18.30861 -60.57416,30.28708 1.4067,-3.52392 2.11005,-6.34449 2.11005,-9.86124 0,-6.33732 -4.22727,-12.68182 -13.38516,-12.68182 -8.45455,0 -16.90192,3.52393 -23.94976,7.04067 -11.97129,6.33732 -26.05981,15.49522 -35.92105,24.66029 -13.38517,11.97129 -23.24641,24.65311 -28.88039,31.69378 -8.45454,10.57177 -19.72248,16.90191 -31.70095,16.90191 -6.33732,0 -11.97129,-1.4067 -16.90191,-4.9378 3.52392,-3.51675 7.04067,-7.74402 7.04067,-14.79187 0,-5.63397 -2.82058,-11.26794 -7.04067,-14.79186 -4.22728,-3.52392 -9.1579,-5.63397 -12.68182,-8.45455 l 42.9689,191.5909 c 2.82057,-2.11722 6.33732,-3.52392 11.26794,-4.9378 1.4067,-14.79186 14.08851,-26.0598 29.58373,-26.0598 18.31579,0 30.28708,11.97129 36.63158,30.28708 1.40669,4.22727 2.82057,5.63397 7.04067,5.63397 7.75119,0.73205 20.42583,-0.68182 26.77033,-2.08852 z m -90.86842,73.25602 c 0,-11.268 10.5646,-19.7225 23.94976,-19.7225 17.61244,0 27.47368,11.2679 42.26555,11.2679 17.61244,0 22.54306,-10.5717 47.19617,-10.5717 18.31579,0 31.70095,11.2679 32.4043,23.9497 14.08134,-5.634 26.05981,-23.2464 26.05981,-45.07894 0,-28.88038 -1.4067,-68.33253 -1.4067,-104.24641 4.9378,1.4067 9.86125,2.82058 18.31579,2.82058 13.37799,0 21.12919,-8.45455 21.12919,-18.31579 0,-2.82058 0,-4.9378 -0.70335,-7.04067 -4.9378,2.11005 -9.86842,2.82057 -14.08852,2.82057 -13.38517,0 -25.35646,-10.56459 -26.06698,-29.58373 0,-3.51674 0,-6.33732 0.71052,-9.15072 36.63158,2.82058 76.77273,4.93063 113.4043,2.82058 -10.57177,-4.23445 -14.79186,-13.38517 -14.79186,-21.13636 0,-5.63398 3.51674,-10.5646 8.45454,-12.67464 -9.15789,-21.13637 -26.06698,-37.33493 -40.85885,-47.19617 -26.76315,-1.4067 -70.4354,4.93779 -102.8397,14.79186 -29.58373,9.15789 -35.21771,30.99043 -35.21771,54.24402 0,32.4043 6.33733,82.41387 6.33733,132.42343 0,7.04067 -2.82058,11.26795 -8.45455,13.37799 -7.7512,3.52393 -23.24641,5.63398 -33.811,4.23445 -6.33732,-0.71052 -9.86125,-2.82057 -12.68182,-10.57177 -5.63397,-16.20574 -16.19856,-26.0598 -28.88038,-26.0598 -13.38517,0 -20.42584,9.85406 -22.54306,16.90191 21.83253,0 35.92105,11.26794 43.67224,26.05981 -12.68181,-11.26794 -25.35645,-18.31579 -40.85167,-18.31579 -14.08851,0 -22.54306,9.15789 -22.54306,19.01196 0,4.9378 0.70335,11.26794 4.22727,14.79904 4.93062,-7.04067 16.90192,-11.26794 26.05981,-11.26794 14.79187,0 23.94976,7.74402 27.47368,14.79904 -7.75119,-5.63397 -15.49521,-7.75119 -24.65311,-7.75119 -14.08851,0 -26.76315,10.57178 -26.76315,24.66028 0,14.0885 7.04067,25.3565 19.01914,31.6938 -2.11723,-3.5383 -3.52393,-7.7727 -3.52393,-11.9928 z M 582.75852,464.34481 c -20.43301,4.22727 -30.28708,5.63397 -36.63158,5.63397 -24.65311,0 -39.44497,-11.26794 -40.85167,-26.06699 -2.82057,17.61244 9.86124,33.10766 32.4043,33.10766 14.08852,0.007 27.46651,-4.2201 45.07895,-12.67464 z m -47.18899,183.8397 c 0,-39.44497 27.47368,-65.50478 67.622,-80.29665 19.72249,-7.04067 45.07895,-13.37799 76.07655,-28.17703 30.99043,-14.79186 47.189,-40.14832 47.189,-76.07655 0,-28.17703 -9.86125,-50.71292 -30.28708,-58.46411 12.67464,8.45454 14.79186,16.90191 14.79186,25.35646 0,9.86124 -7.75119,16.90191 -15.49521,16.90191 -7.04067,0 -10.5646,-4.9378 -13.37799,-11.26794 3.51674,3.51674 6.33732,4.93062 10.56459,4.93062 7.04067,0 10.56459,-4.93062 10.56459,-11.26794 0,-19.01196 -16.19856,-26.76316 -38.73444,-26.76316 -11.88517,0 -28.38517,1.02632 -45.6244,2.61244 1.56459,1.30622 3.16507,2.38995 4.77272,3.02153 4.22728,2.11723 9.15072,2.82058 16.19857,3.52393 9.86124,1.40669 19.01913,2.11004 26.76315,4.93062 -8.45454,0 -16.19856,1.4067 -23.23923,3.52392 -2.11722,7.04067 -4.9378,10.56459 -9.86124,10.56459 -4.9378,0 -8.45455,-2.82057 -11.26795,-7.74402 -2.28229,-4.57177 -4.57894,-10.99521 -6.6244,-17.51196 -10.32775,0.99043 -20.83492,2.16029 -30.71052,3.43063 l 2.82057,32.4043 c 2.11723,-2.82057 9.15072,-6.33732 16.90192,-6.33732 17.60526,0 30.99042,13.38517 30.99042,29.58373 0,17.61244 -11.26794,25.35646 -25.35645,25.35646 -8.45455,0 -16.20574,-3.52393 -20.42584,-6.33732 l 1.39952,26.0598 c 20.43302,-3.52392 38.74163,-6.33732 61.98804,-9.15789 28.17703,-4.22727 54.24401,-10.56459 54.94736,-54.23684 1.39952,2.82058 3.51675,9.1579 3.51675,14.79187 0,28.88038 -17.60526,48.60286 -45.7823,57.76076 -30.99042,9.86124 -69.03588,19.01914 -95.09568,28.17703 -36.63158,12.68182 -64.80144,40.85167 -64.80144,78.88995 0,38.74162 16.90192,71.13875 59.16746,87.34449 -22.55023,-20.44737 -29.5909,-40.86602 -29.5909,-65.52631 z m 41.55502,21.83971 c 0,-32.4043 22.54306,-54.94019 54.94019,-69.0287 26.0598,-11.26795 43.67224,-19.72249 65.50478,-30.99043 34.52153,-18.31579 49.31339,-53.53349 49.31339,-88.75119 0,-34.52153 -12.68899,-61.98804 -32.41148,-71.14593 11.26794,9.86124 19.72249,28.88038 19.72249,53.53349 0,38.03827 -16.90191,68.33253 -51.41627,84.52392 -23.94976,11.26794 -45.78229,17.61244 -73.95932,27.47368 -38.04546,12.68182 -63.39474,38.03827 -63.39474,73.25598 0,28.17703 15.49522,60.57416 40.85885,69.0287 l 12.67464,4.22727 c -15.48803,-14.79904 -21.83253,-32.4043 -21.83253,-52.12679 z m 37.33493,24.65311 c 0,-28.17703 19.01196,-47.18899 42.96172,-59.87081 21.12918,-11.26794 37.32774,-19.01914 54.23683,-30.29426 42.26555,-27.4665 57.05742,-60.57416 57.05742,-102.8397 0,-30.28708 -10.5646,-64.09809 -35.92105,-83.11722 12.67464,14.79904 21.83253,34.52152 21.83253,63.39473 0,38.03827 -12.68182,72.55263 -51.42344,94.38516 -20.42584,11.97847 -42.96172,22.54306 -67.62201,33.10765 -23.94258,9.86125 -48.59569,30.28708 -48.59569,61.98804 0,26.76316 14.79187,47.18899 34.51435,57.05024 l 11.26795,5.63397 c -9.85407,-9.15072 -18.30861,-21.82536 -18.30861,-39.4378 z m 111.9976,-326.13156 -17.61244,0 c -1.39952,7.04067 -9.15072,12.68182 -16.19857,12.68182 -8.45454,0 -14.79904,-4.9378 -16.19856,-12.68182 l -19.01914,0 c -1.4067,7.04067 -8.45454,12.68182 -16.20574,12.68182 -8.45454,0 -14.08851,-4.9378 -15.48804,-12.68182 l -17.61244,0 11.97847,28.8732 c 13.37799,-0.70335 30.28708,-1.4067 42.26555,-1.4067 23.23923,0 35.92105,2.82058 48.59569,5.63398 l 15.49522,-33.10048 z m -74.66268,346.5574 c 0,-14.79905 4.22727,-23.94976 11.97129,-32.40431 20.43302,-23.94976 50.71292,-30.99043 76.7799,-52.12679 33.81101,-28.17703 50.71292,-66.21531 50.71292,-109.88755 0,-36.63158 -16.19857,-66.91866 -35.92105,-86.64115 11.97129,16.20574 21.12201,40.85168 21.12201,67.62201 0,45.78947 -12.67464,78.88995 -58.46412,109.88755 -14.79904,9.86125 -38.03827,21.12919 -56.35406,30.99043 -19.01196,10.57177 -37.33493,28.17703 -37.33493,52.12679 0,25.35646 16.20575,42.26555 40.85885,52.83014 -9.15071,-8.44736 -13.37081,-20.42583 -13.37081,-32.39712 z m 60.56698,116.92822 c -6.33732,-36.63158 -20.42583,-61.98804 -49.29904,-78.88995 -5.63397,-3.51674 -10.57177,0.70335 -6.34449,4.22727 9.15789,8.45455 28.17703,26.76316 34.52153,47.189 -6.3445,0 -9.1579,4.23445 -9.1579,9.15789 0,11.97847 12.68182,19.72249 21.12919,19.72249 3.51674,0.007 6.33014,-0.70335 9.15071,-1.4067 z m 35.22488,202.15551 c 0,-11.268 10.57177,-19.7225 23.94976,-19.7225 17.61244,0 27.46651,11.2679 42.26555,11.2679 17.61244,0 22.54306,-10.5645 47.18899,-10.5645 18.32297,0 31.70096,11.2679 32.41148,23.9497 14.08852,-5.634 23.94259,-22.543 23.94259,-57.76076 0,-45.07894 -6.33732,-100.72966 -13.37799,-142.99521 21.83253,-1.4067 30.28708,-9.86124 30.28708,-22.54306 0,-4.93062 -1.39953,-9.15072 -2.82058,-11.97129 -20.42583,9.86124 -42.26555,15.49521 -67.622,15.49521 -17.60527,0 -40.8445,-2.11722 -52.11962,-6.34449 -5.63397,-28.17703 -21.13636,-52.12679 -33.10765,-64.80143 12.68182,5.63397 35.2177,11.26794 54.94019,11.26794 83.82057,0 146.51195,-58.46411 146.51195,-121.1555 0,-38.03827 -23.94976,-65.50478 -62.69138,-93.68181 l -14.08852,9.86124 c 42.26555,28.87321 56.35406,55.64354 56.35406,81 0,34.52153 -28.8732,61.98803 -65.50478,61.98803 -36.63157,0 -65.50478,-27.4665 -65.50478,-61.98803 0,-33.10048 21.83254,-55.64354 60.56698,-81.71052 9.1579,-5.63397 19.72249,-13.37799 29.59091,-20.42584 15.48804,-11.97847 34.51435,-33.10765 30.99043,-53.53349 11.26794,-2.82057 19.01196,-9.15789 19.01196,-24.66029 0,-16.90191 -14.08851,-28.8732 -29.58373,-28.8732 -11.26794,0 -18.31579,2.82057 -23.23923,4.93062 12.67464,11.26794 19.01196,26.06699 19.01196,38.74163 0,20.42583 -8.45455,34.51435 -29.58373,49.30621 -14.79187,10.5646 -31.69378,21.12919 -47.89952,33.10048 -32.40431,23.94976 -50.01674,48.60287 -50.01674,82.41387 0,49.30622 40.1555,77.48325 78.19377,77.48325 21.83971,0 40.85167,-4.22727 58.46411,-16.90191 -20.43301,23.23923 -61.98803,45.07894 -106.36363,45.07894 -55.65071,0 -94.38516,-38.03827 -94.38516,-83.11722 0,-9.86124 1.4067,-16.90191 2.82057,-20.43301 -27.4665,24.66029 -54.24401,28.88038 -73.25597,50.01674 -8.45455,9.15072 -11.26795,18.31579 -11.26795,28.87321 0,13.38516 6.3445,25.35646 15.49522,33.811 9.86124,8.45455 20.42584,19.01914 26.05981,28.17703 9.15789,14.08852 14.08851,30.99043 18.32296,47.89952 9.85407,39.44497 38.73445,55.65072 75.36603,55.65072 11.97846,0 34.52153,-2.11723 45.78947,-5.63398 -1.41388,4.93063 -1.41388,9.15072 0,14.79187 4.93062,21.12919 8.45454,42.9689 9.15071,64.10526 0,7.04067 -2.82057,10.56459 -9.15071,13.37799 -7.7512,3.52392 -22.54306,5.63397 -33.10766,4.22727 -6.33732,-0.70335 -9.86124,-2.82057 -12.68181,-10.56459 -5.63397,-16.20574 -16.19857,-26.06699 -28.88038,-26.06699 -13.37799,0 -20.42584,9.86125 -22.54307,16.90192 21.83972,0 35.92823,11.26794 43.67943,26.06698 -12.689,-11.26794 -25.35646,-18.31579 -40.85885,-18.31579 -14.08852,0 -22.54306,9.15072 -22.54306,19.01196 0,4.9378 0.71052,11.26795 4.23445,14.79905 4.93062,-7.04067 16.90191,-11.26795 26.0598,-11.26795 14.79187,0 23.94976,7.74402 27.47369,14.79187 -7.7512,-5.63397 -15.50239,-7.74402 -24.66029,-7.74402 -14.08852,0 -26.76316,10.56457 -26.76316,24.65307 0,14.0886 7.04067,25.3565 19.01197,31.701 -2.11005,-3.5096 -3.52393,-7.7368 -3.52393,-11.9641 z M 888.46424,521.39504 c -23.23923,-16.90191 -31.69377,-30.99043 -31.69377,-51.41626 0,-12.68182 6.33732,-27.47369 19.01196,-38.74163 -4.93062,-2.11004 -11.97847,-4.93062 -23.24641,-4.93062 -15.48804,0 -29.57656,11.97129 -29.57656,28.87321 0,15.49521 7.74402,21.83971 19.01196,24.66028 -3.52392,19.72249 14.08852,39.44497 31.70096,52.82296 l 14.79186,-11.26794 z m 61.28469,114.11483 c 0,-29.58373 -16.90191,-50.71292 -54.24402,-76.07655 -38.03827,25.35646 -57.05741,45.07894 -57.05741,76.07655 0,29.58373 24.66029,53.53349 55.65072,53.53349 30.99042,0 55.65071,-23.94976 55.65071,-53.53349 z" stroke="none" stroke-opacity="1" stroke-width="1"/>
	<rect fill="#0065bd" fill-opacity="1" height="85.12" id="3" rx="0" ry="0" stroke="#ffffff" stroke-opacity="1" stroke-width="1" width="85.12" x="26.55" y="26.55"/>
	<path d="m 40.556775,64.005057 c 0.648038,0.35375 1.413792,0.58978 2.297261,0.76635 l 0.766355,3.53508 -3.535081,15.20097 -1.590365,1.1195 -4.419151,18.970883 -3.593338,2.76873 10.074319,-42.361513 z m 2.9459,0.0595 c -3.299649,-0.0595 -5.950659,-2.65161 -5.950659,-5.8918 0,-3.47562 2.709868,-5.95066 6.127833,-5.95066 1.590366,0 3.004158,0.7069 3.947087,1.88526 -1.354934,-0.17658 -2.651611,0.76635 -3.063617,1.82699 -0.353147,-0.11771 -0.648038,-0.11771 -0.88347,-0.11771 -1.355534,0 -2.415578,1.06064 -2.415578,2.35672 0,1.29608 1.060644,2.41558 2.415578,2.41558 1.354934,0 2.179546,-1.06125 2.179546,-2.41558 0,-0.0589 0,-0.17597 0,-0.23543 0.05886,-0.0595 0.177175,-0.0595 0.353749,-0.0595 0.235431,0 0.471464,0.11831 0.471464,0.53032 0,0.47146 -0.176574,1.35493 -0.176574,2.239 0,0.82522 0.176574,1.4138 0.412606,2.00298 l 2.002972,8.36623 c -0.29429,0.23604 -0.58918,0.52972 -0.824612,0.88407 -1.119502,0.23604 -2.06183,0.94233 -2.474436,1.94412 l -2.121889,-9.78063 z m 12.313924,5.53805 c -1.708082,0 -2.769327,0.11772 -3.947687,0.11772 -1.825798,0 -3.181332,-0.76636 -3.593938,-2.23901 0.706896,0 1.237218,-0.58918 1.237218,-1.29607 0,-1.41379 -2.179546,-2.82759 -2.179546,-5.53806 0,-0.88407 0.118316,-1.70808 0.118316,-2.35672 0,-0.70689 -0.58978,-1.17836 -1.237818,-1.17836 -0.530323,0 -1.001787,0.23604 -1.237819,0.47147 -0.117115,-1.64983 1.237819,-2.88644 2.946501,-2.76933 0.235432,-0.52972 1.118901,-1.17836 2.121288,-1.17836 0.706896,0 1.060044,0.17658 1.413792,0.41261 0.29429,-0.11772 0.647438,-0.17718 1.118902,-0.17718 1.354934,0 2.827584,1.11951 2.827584,2.82819 0,1.59096 -0.942328,2.35672 -1.885256,3.00476 -0.471464,0.35314 -0.58858,0.70689 -0.529722,1.23721 0.05886,0.64864 0.412606,1.76815 0.589781,2.35672 0.175973,0.53033 0.588579,0.76636 1.237218,0.7069 3.240791,-0.23603 7.894172,-0.58858 10.722357,-0.7069 2.652211,-0.11711 4.538068,-0.17657 6.717613,-0.29429 -4.124861,1.00119 -6.481581,3.77052 -7.129018,7.7182 l -1.885257,1.00119 c -0.413206,-1.59037 -2.534495,-2.12069 -7.424509,-2.12069 z m -2.65101,15.96672 c 0.706896,-0.17717 1.060043,-0.70689 1.060043,-1.17836 0,-0.70689 -0.412005,-1.17836 -0.942928,-1.53271 -0.882869,-0.52972 -1.825798,-1.00118 -2.65101,-1.70808 -0.884071,-0.76575 -1.413792,-1.41379 -1.944114,-2.12129 -0.413207,-0.47086 -0.765754,-0.64804 -1.296076,-0.64804 -0.648038,0 -1.119502,0.47147 -1.119502,1.00179 0,0.29489 0.05886,0.53092 0.176573,0.7075 -0.883469,-0.29489 -1.413792,-1.23782 -1.413792,-2.23961 0,-0.94233 0.589181,-1.64922 1.178361,-2.00297 -0.05946,-0.17657 -0.117716,-0.41261 -0.117716,-0.7069 0,-1.23781 1.001185,-2.41557 2.592152,-2.53329 0.29429,-0.82581 1.17836,-1.47325 2.35672,-1.47325 1.413792,0 2.886442,1.06064 2.886442,2.9453 0,0.94293 -0.235432,1.17836 -0.235432,1.88586 0,0.4132 0.118317,0.76515 0.706896,1.35553 0.706896,0.7069 1.061245,1.1189 1.47265,1.1189 0.412606,0 0.648639,-0.17657 1.119502,-0.53092 2.65101,-2.2384 4.948873,-4.59452 8.131406,-6.30381 0.05886,2.76873 1.118902,5.00833 3.416764,6.71702 l -2.002372,1.5321 c -0.354348,-0.35374 -0.707496,-0.47146 -1.17836,-0.47146 -0.766955,0 -1.532709,0.29489 -2.711069,1.06064 -1.354934,0.88468 -3.593338,3.18194 -5.184304,4.71345 -0.88407,0.88467 -1.826999,1.35553 -2.709868,1.35553 -0.706896,-6e-4 -1.296677,-0.29489 -1.590966,-0.94293 z m -5.008331,-10.84067 c -0.765754,0 -1.296677,0.4126 -1.413792,0.88347 0.235432,-0.0595 0.529721,-0.11772 0.88347,-0.11772 0.883469,0 1.649824,0.41321 2.003572,1.1195 0.177175,-1.1201 -0.471464,-1.88525 -1.47325,-1.88525 z m 5.538052,28.868623 -4.41855,-18.970883 -1.590366,-1.1195 -0.765754,-3.6528 c -0.117716,-0.47146 0.117716,-0.70749 0.471464,-0.70749 0.235432,0 0.412006,0.11771 0.648038,0.35375 0.766355,0.88407 1.237218,1.41379 2.062431,2.12068 0.471464,0.41321 1.060044,0.76576 1.649824,1.06065 l 3.652196,15.8496 c -0.588579,0.52972 -1.001186,1.35494 -1.001186,2.238413 0,0.64804 0.176574,1.23782 0.471464,1.76754 -0.117115,0.29429 -0.177174,0.58858 -0.177174,0.94293 0,0.35314 0.06006,0.70689 0.236032,1.06004 L 53.69531,103.59724 Z M 50.808868,56.463467 c 0,-1.00118 -0.825212,-1.64982 -1.590966,-1.64982 -0.353148,0 -0.58858,0.11832 -0.765754,0.17657 1.001186,0.41321 1.708682,1.29608 1.649824,2.9459 0.529722,-0.35254 0.706896,-0.94172 0.706896,-1.47265 z m 0.942929,17.38112 c 0,-0.76576 -0.648639,-1.47265 -1.47265,-1.47265 -0.471464,0 -0.766955,0.17657 -0.942929,0.29429 1.118902,0.23543 2.002372,1.17836 2.06123,2.35672 0.177174,-0.29429 0.354349,-0.58918 0.354349,-1.17836 z m 1.885256,-17.73366 c 0,-0.88407 -0.765754,-1.53271 -1.649825,-1.53271 0.353148,0.29489 0.706896,1.00178 0.706896,1.76814 0,0.35315 -0.05886,0.82461 -0.294289,1.35493 0.706896,-0.23603 1.237218,-0.76635 1.237218,-1.59036 z m 1.885256,47.369243 c 0,-0.41321 0.05886,-0.64864 0.235432,-1.06125 -0.29429,-0.35315 -0.529722,-0.94293 -0.529722,-1.64982 0,-0.7069 0.353148,-1.472653 1.118301,-1.943523 -0.235432,-1.76754 1.17836,-2.9459 2.769327,-2.9459 1.768141,0 2.65101,1.23782 2.946501,2.47444 0.236032,0.88407 0.588579,1.17836 1.001185,1.23722 0.765154,0.11831 2.002372,0 2.473836,-0.11712 0.531523,-0.11832 0.766955,-0.41321 0.766955,-1.29668 0.05886,-6.18609 -0.707496,-10.13377 -0.707496,-12.37218 0,-2.41558 1.354333,-3.47622 2.768725,-3.94768 1.885857,-0.64804 5.596911,-1.17836 7.42391,-1.11951 0.824011,0 1.237218,0.53093 1.590966,1.06125 0.646837,1.00118 1.17836,2.06243 1.825197,3.41616 -0.470864,0.23603 -0.706896,0.64864 -0.706896,1.23782 0,0.82521 0.471464,1.53211 1.119502,1.88586 l -6.893587,0.17657 c -0.05886,0.41261 -0.05886,0.82521 -0.05886,1.17836 0,0.76576 0.530322,1.29668 1.237218,1.29668 0.530322,0 1.001787,-0.17718 1.413792,-0.53092 0.236033,2.41557 -1.237218,3.18193 -2.768726,3.24079 0.05886,2.18014 0.176574,3.77051 0.176574,7.718203 0,2.82818 -1.413792,4.53686 -3.417364,4.53686 0.118316,-0.11711 0.176573,-0.29429 0.176573,-0.47146 0,-1.1189 -1.237218,-1.64922 -2.120687,-1.64922 -1.767541,0 -2.709868,1.41379 -4.655184,1.41379 -1.708081,0 -2.414977,-1.41379 -3.711053,-1.41379 -0.825813,0 -1.413792,0.53032 -1.413792,1.23781 0,0.35315 0.117115,0.64744 0.353147,0.94233 -1.118301,-0.002 -2.413776,-1.06244 -2.413776,-2.53509 z m 2.297862,-3.18254 c -1.119502,0 -1.709283,0.88467 -1.590966,1.59097 0.236032,-0.29429 0.706896,-0.7069 1.649824,-0.7069 0.765754,0 1.355535,0.35315 1.708082,0.76516 0,-0.82341 -0.58858,-1.64923 -1.76694,-1.64923 z m 0.529722,-2.709873 c -0.942328,0 -1.413792,0.53033 -1.47265,1.00179 0.236032,-0.11772 0.588579,-0.23603 1.118902,-0.23603 0.942327,0 1.709282,0.53032 1.944714,1.06064 0.117716,-0.94233 -0.470863,-1.8264 -1.590966,-1.8264 z m 7.659341,-25.92332 c 0,-3.88883 2.946501,-7.36445 7.482767,-8.42509 1.708682,-0.41261 3.181933,-0.64864 5.184905,-1.17836 3.770512,-1.00119 4.948872,-2.65101 4.948872,-4.83116 0,-0.58918 -0.117115,-1.06065 -0.413207,-1.53211 0.06006,0.35375 0.06006,0.64864 0.06006,1.00119 0,2.35672 -2.180747,4.47801 -5.362079,4.77229 -1.708082,0.11772 -3.53508,0.35315 -5.302621,0.53033 -0.412005,0.0589 -0.588579,-0.11832 -0.588579,-0.47147 l -0.05886,-2.82818 c 0,-0.11832 0.05886,-0.23543 0.236032,-0.23543 0.117116,0 0.175974,0.0589 0.236033,0.17657 0.352547,0.53032 1.060043,1.06064 2.061229,1.06064 0.825213,0 1.296677,-0.47146 1.296677,-1.00118 0,-0.58918 -0.530322,-1.1195 -1.590967,-1.1195 -2.297862,0 -3.476222,1.59096 -6.008916,1.59096 -2.769326,0 -3.712254,-1.35553 -3.712254,-2.65161 0,-1.06064 0.588579,-1.70868 1.355534,-2.06183 -0.236032,0.29429 -0.295491,0.52972 -0.295491,0.94293 0,0.88347 1.061245,1.59037 2.946501,1.59037 1.76694,0 2.887043,-0.41201 4.241376,-0.41201 1.76694,0 2.828184,0.58858 3.299649,1.23722 -0.05886,-1.35554 -1.061245,-2.5339 -2.356721,-2.5339 -0.884671,0 -1.237218,0.53033 -1.355534,0.76636 -0.05886,0.17657 -0.177175,0.23543 -0.29429,0.23543 -0.118316,0 -0.236032,-0.0589 -0.236032,-0.17597 l -0.29429,-2.9465 c -0.05946,-0.35255 0.117115,-0.52973 0.588579,-0.58858 l 3.005359,-0.23543 c 0.529722,1.47265 0.884071,2.29726 1.649224,2.29726 0.413207,0 0.588579,-0.47147 0.588579,-0.88347 0.648039,-0.17658 1.296677,-0.17658 1.944715,-0.11832 -0.766354,-0.53032 -3.299048,-0.23603 -4.066003,-1.29547 1.237819,-0.0595 2.180747,-0.11832 3.181933,-0.11832 1.001185,0 1.885256,0 2.709868,0.11832 0.942328,0.11711 1.885256,0.64803 1.885256,1.64982 0,0.64804 -0.353148,1.1189 -1.001186,1.1189 -0.236032,0 -0.413207,-0.0595 -0.648038,-0.23543 0.05946,0.47146 0.530923,0.76575 1.002387,0.76575 0.765153,0 1.295475,-0.47146 1.295475,-1.47325 0,-0.53032 -0.117115,-1.1195 -0.530322,-1.59036 1.237218,1.00118 2.002972,2.76872 2.002972,4.83055 0,3.59394 -1.295475,5.4798 -5.30202,6.89359 -2.063031,0.7069 -3.712255,1.17836 -5.774685,1.94411 -3.357906,1.23722 -5.360278,3.53508 -5.360278,6.77527 0,2.23901 1.118902,4.7723 3.475622,5.95066 -3.593338,-0.47086 -6.127232,-3.71165 -6.127232,-7.30559 z m 3.53508,1.53151 c 0,-3.18073 1.768141,-5.06659 5.184905,-6.36267 1.885256,-0.70689 3.712255,-1.23721 5.420337,-1.76694 4.183118,-1.47325 5.655768,-3.65339 5.655768,-7.54162 0,-1.64982 -0.471464,-3.24079 -1.237218,-4.18312 1.296676,1.1195 2.35672,2.82819 2.35672,5.77409 0,3.06361 -0.88407,6.18669 -5.126047,7.77705 -2.002371,0.76636 -3.121873,1.17836 -5.243162,2.06183 -3.299048,1.41379 -4.359092,3.29965 -4.359092,5.83295 0,2.41497 1.295476,3.77051 2.296662,4.59512 -2.415579,-0.41261 -4.948873,-2.88704 -4.948873,-6.18669 z m 3.53448,1.64982 c 0,-2.35672 1.119502,-3.94708 4.006545,-5.30202 1.826998,-0.82521 3.181932,-1.1195 5.303221,-2.00357 4.183118,-1.64982 5.243162,-4.7717 5.243162,-8.36564 0,-1.23781 -0.177174,-2.71107 -0.824612,-3.94768 0.88347,1.06064 1.944114,2.71047 1.944114,5.95066 0,3.3585 -1.119502,6.48158 -4.831757,8.30737 -1.766939,0.82462 -2.9453,1.29608 -4.948872,2.23901 -2.297262,1.17836 -3.593939,2.82818 -3.593939,4.7723 0,1.53211 0.707497,2.71047 1.355535,3.3585 -2.239004,-0.64863 -3.653397,-2.76932 -3.653397,-5.00893 z m 5.362079,-23.27171 c -1.17836,0 -2.35672,0.0595 -3.593338,0.17657 l -1.590966,-3.12247 2.711069,0 c 0,0.7069 0.529722,1.23722 1.17836,1.23722 0.646837,0 1.178361,-0.52972 1.178361,-1.23722 l 2.414977,0 c 0,0.76575 0.471464,1.23722 1.17836,1.23722 0.648038,0 1.178361,-0.64804 1.178361,-1.23722 l 2.709868,0 -1.825798,3.24079 c -1.473851,-0.17717 -3.359708,-0.29489 -5.539254,-0.29489 z m -2.179546,24.9804 c 0,-1.64923 1.119503,-3.00416 3.121874,-4.06541 1.413792,-0.70749 2.592152,-1.17836 4.948872,-2.35672 3.712255,-1.8264 5.126047,-4.83055 5.126047,-8.89656 0,-1.06064 -0.177174,-1.94411 -0.354349,-3.00415 0.648639,1.29547 1.178361,2.82818 1.178361,4.77229 0,3.88823 -1.354334,7.65874 -5.242562,9.66232 -1.649824,0.82461 -2.592152,1.35493 -3.82937,1.94351 -1.885857,0.82521 -2.769327,2.12069 -2.769327,3.6534 0,1.17836 0.29429,1.8264 0.58918,2.35672 -1.708682,-0.47147 -2.768726,-2.00297 -2.768726,-4.0654 z m 3.004759,10.01606 c 0,-0.58858 0.175973,-0.94233 0.88347,-1.06065 -0.824612,-1.8258 -1.47265,-3.00416 -1.944115,-3.77051 -0.177174,-0.29429 0,-0.47086 0.236033,-0.47086 0.354349,0 0.648038,0.11771 0.88407,0.47086 0.413207,0.53092 0.942328,1.35493 1.355535,2.12129 0.765153,1.35433 1.237218,2.65101 1.295475,4.53687 l -0.588579,0 c -1.238419,0 -2.121889,-0.88408 -2.121889,-1.827 z m 4.182518,16.909653 c 0,-0.41321 0.06006,-0.64864 0.236032,-1.06125 -0.29429,-0.35315 -0.530322,-0.94293 -0.530322,-1.64982 0,-0.7069 0.354349,-1.472653 1.119502,-1.943523 -0.236032,-1.76754 1.17836,-2.9459 2.769327,-2.9459 1.766939,0 2.65101,1.23782 2.945299,2.47444 0.235432,0.88407 0.58918,1.17836 1.001186,1.23722 0.766355,0.11831 2.003573,0 2.475037,-0.11712 0.529721,-0.11832 0.765153,-0.41321 0.765153,-1.29668 0,-1.47265 -0.412606,-3.41616 -0.765153,-5.06658 -0.884071,0.11711 -3.064217,0.23603 -4.713441,0.23603 -3.653397,0 -5.715227,-1.64983 -6.068975,-5.24376 -0.117115,-1.47326 -0.412606,-2.88765 -1.295475,-4.47741 -0.648038,-1.23782 -2.120688,-2.88765 -2.120688,-5.00833 0,-1.59037 0.588579,-2.5333 2.414977,-3.41677 1.295476,-0.58918 2.828185,-1.29607 4.12366,-2.06243 -0.05886,2.06243 1.17836,4.83116 2.769327,6.00952 1.76754,1.29607 3.417364,1.64982 5.832943,1.64982 2.769326,0 5.420336,-0.82461 6.834727,-2.47443 -0.82581,0.53032 -1.944112,0.82461 -3.358505,0.82461 -4.360293,0 -7.129619,-3.35851 -7.129619,-6.95185 0,-2.59215 1.413792,-4.89061 3.770512,-6.83412 1.944715,-1.59097 3.712255,-2.59216 5.067789,-3.94769 0.884073,-0.88347 1.649823,-1.94412 1.649823,-3.18073 0,-1.47325 -1.00178,-2.88705 -2.063029,-3.29965 0.58978,-0.7069 1.768139,-1.35494 2.828189,-1.35494 1.76754,0 3.41736,1.29608 3.41736,3.00476 0,1.29548 -0.76635,2.29726 -1.76754,2.76873 0.0589,1.00179 -0.58858,2.29786 -1.35554,3.12307 -1.47265,1.59037 -4.182513,3.29965 -5.950053,4.71344 -1.76694,1.4138 -2.709868,2.88705 -2.709868,4.89002 0,2.65161 2.120688,4.59512 4.830556,4.59512 2.533895,0 4.713445,-1.94351 4.713445,-4.65458 0,-2.47384 -1.76694,-4.30083 -4.477413,-5.53745 l 2.239603,-1.59097 c 2.41498,1.41379 5.06659,3.35791 5.06659,7.54163 0,5.77348 -4.65458,10.84067 -12.196207,10.84067 -2.357321,0 -3.004158,-0.29429 -4.478009,-0.88407 0.942328,0.88407 1.944714,2.18015 2.003572,3.77051 1.178961,0.35375 2.002972,0.53032 4.536867,0.53032 1.119502,0 2.65101,-0.17657 3.889429,-0.53032 0.882868,-0.23603 1.413788,-0.58858 1.708078,-1.00178 0.29429,0.47146 0.47147,1.00178 0.47147,1.47265 0,1.35553 -1.00119,2.41557 -2.062432,2.65161 0.412602,4.18311 0.765152,8.36623 0.765152,12.136753 0,2.82818 -1.413791,4.53686 -3.416162,4.53686 0.117115,-0.11711 0.177174,-0.29429 0.177174,-0.47146 0,-1.1189 -1.238419,-1.64922 -2.121288,-1.64922 -1.767541,0 -2.710469,1.41379 -4.654583,1.41379 -1.708682,0 -2.414978,-1.41379 -3.712255,-1.41379 -0.824011,0 -1.413792,0.53032 -1.413792,1.23781 0,0.35315 0.118317,0.64744 0.354349,0.94233 -1.120103,-0.002 -2.416779,-1.06244 -2.416779,-2.53509 z m 2.297862,-3.18254 c -1.119502,0 -1.708682,0.88467 -1.590966,1.59097 0.236032,-0.29429 0.707496,-0.7069 1.649824,-0.7069 0.766354,0 1.355535,0.35315 1.709883,0.76516 -6e-4,-0.82341 -0.590381,-1.64923 -1.768741,-1.64923 z m 0.530322,-2.709873 c -0.942928,0 -1.413792,0.53033 -1.47265,1.00179 0.236033,-0.11772 0.58918,-0.23603 1.119502,-0.23603 0.942328,0 1.708683,0.53032 1.943514,1.06064 0.118917,-0.94233 -0.470864,-1.8264 -1.590366,-1.8264 z m 7.365652,-38.35436 c -0.884671,-0.47146 -1.649824,-1.47265 -1.649824,-2.65101 0,-1.70868 1.472649,-3.00476 3.239589,-3.00476 1.355535,0 2.298463,0.64864 2.888244,1.35494 -1.119502,0.58858 -2.003573,2.00237 -2.003573,3.29965 0,1.70868 0.884071,2.76872 1.708082,3.65219 l -2.179546,1.59097 c -1.237819,-1.1201 -2.002972,-2.59275 -2.002972,-4.24198 z" fill="#ffffff" fill-opacity="1" id="4" path="m 40.556775,64.005057 c 0.648038,0.35375 1.413792,0.58978 2.297261,0.76635 l 0.766355,3.53508 -3.535081,15.20097 -1.590365,1.1195 -4.419151,18.970883 -3.593338,2.76873 10.074319,-42.361513 z m 2.9459,0.0595 c -3.299649,-0.0595 -5.950659,-2.65161 -5.950659,-5.8918 0,-3.47562 2.709868,-5.95066 6.127833,-5.95066 1.590366,0 3.004158,0.7069 3.947087,1.88526 -1.354934,-0.17658 -2.651611,0.76635 -3.063617,1.82699 -0.353147,-0.11771 -0.648038,-0.11771 -0.88347,-0.11771 -1.355534,0 -2.415578,1.06064 -2.415578,2.35672 0,1.29608 1.060644,2.41558 2.415578,2.41558 1.354934,0 2.179546,-1.06125 2.179546,-2.41558 0,-0.0589 0,-0.17597 0,-0.23543 0.05886,-0.0595 0.177175,-0.0595 0.353749,-0.0595 0.235431,0 0.471464,0.11831 0.471464,0.53032 0,0.47146 -0.176574,1.35493 -0.176574,2.239 0,0.82522 0.176574,1.4138 0.412606,2.00298 l 2.002972,8.36623 c -0.29429,0.23604 -0.58918,0.52972 -0.824612,0.88407 -1.119502,0.23604 -2.06183,0.94233 -2.474436,1.94412 l -2.121889,-9.78063 z m 12.313924,5.53805 c -1.708082,0 -2.769327,0.11772 -3.947687,0.11772 -1.825798,0 -3.181332,-0.76636 -3.593938,-2.23901 0.706896,0 1.237218,-0.58918 1.237218,-1.29607 0,-1.41379 -2.179546,-2.82759 -2.179546,-5.53806 0,-0.88407 0.118316,-1.70808 0.118316,-2.35672 0,-0.70689 -0.58978,-1.17836 -1.237818,-1.17836 -0.530323,0 -1.001787,0.23604 -1.237819,0.47147 -0.117115,-1.64983 1.237819,-2.88644 2.946501,-2.76933 0.235432,-0.52972 1.118901,-1.17836 2.121288,-1.17836 0.706896,0 1.060044,0.17658 1.413792,0.41261 0.29429,-0.11772 0.647438,-0.17718 1.118902,-0.17718 1.354934,0 2.827584,1.11951 2.827584,2.82819 0,1.59096 -0.942328,2.35672 -1.885256,3.00476 -0.471464,0.35314 -0.58858,0.70689 -0.529722,1.23721 0.05886,0.64864 0.412606,1.76815 0.589781,2.35672 0.175973,0.53033 0.588579,0.76636 1.237218,0.7069 3.240791,-0.23603 7.894172,-0.58858 10.722357,-0.7069 2.652211,-0.11711 4.538068,-0.17657 6.717613,-0.29429 -4.124861,1.00119 -6.481581,3.77052 -7.129018,7.7182 l -1.885257,1.00119 c -0.413206,-1.59037 -2.534495,-2.12069 -7.424509,-2.12069 z m -2.65101,15.96672 c 0.706896,-0.17717 1.060043,-0.70689 1.060043,-1.17836 0,-0.70689 -0.412005,-1.17836 -0.942928,-1.53271 -0.882869,-0.52972 -1.825798,-1.00118 -2.65101,-1.70808 -0.884071,-0.76575 -1.413792,-1.41379 -1.944114,-2.12129 -0.413207,-0.47086 -0.765754,-0.64804 -1.296076,-0.64804 -0.648038,0 -1.119502,0.47147 -1.119502,1.00179 0,0.29489 0.05886,0.53092 0.176573,0.7075 -0.883469,-0.29489 -1.413792,-1.23782 -1.413792,-2.23961 0,-0.94233 0.589181,-1.64922 1.178361,-2.00297 -0.05946,-0.17657 -0.117716,-0.41261 -0.117716,-0.7069 0,-1.23781 1.001185,-2.41557 2.592152,-2.53329 0.29429,-0.82581 1.17836,-1.47325 2.35672,-1.47325 1.413792,0 2.886442,1.06064 2.886442,2.9453 0,0.94293 -0.235432,1.17836 -0.235432,1.88586 0,0.4132 0.118317,0.76515 0.706896,1.35553 0.706896,0.7069 1.061245,1.1189 1.47265,1.1189 0.412606,0 0.648639,-0.17657 1.119502,-0.53092 2.65101,-2.2384 4.948873,-4.59452 8.131406,-6.30381 0.05886,2.76873 1.118902,5.00833 3.416764,6.71702 l -2.002372,1.5321 c -0.354348,-0.35374 -0.707496,-0.47146 -1.17836,-0.47146 -0.766955,0 -1.532709,0.29489 -2.711069,1.06064 -1.354934,0.88468 -3.593338,3.18194 -5.184304,4.71345 -0.88407,0.88467 -1.826999,1.35553 -2.709868,1.35553 -0.706896,-6e-4 -1.296677,-0.29489 -1.590966,-0.94293 z m -5.008331,-10.84067 c -0.765754,0 -1.296677,0.4126 -1.413792,0.88347 0.235432,-0.0595 0.529721,-0.11772 0.88347,-0.11772 0.883469,0 1.649824,0.41321 2.003572,1.1195 0.177175,-1.1201 -0.471464,-1.88525 -1.47325,-1.88525 z m 5.538052,28.868623 -4.41855,-18.970883 -1.590366,-1.1195 -0.765754,-3.6528 c -0.117716,-0.47146 0.117716,-0.70749 0.471464,-0.70749 0.235432,0 0.412006,0.11771 0.648038,0.35375 0.766355,0.88407 1.237218,1.41379 2.062431,2.12068 0.471464,0.41321 1.060044,0.76576 1.649824,1.06065 l 3.652196,15.8496 c -0.588579,0.52972 -1.001186,1.35494 -1.001186,2.238413 0,0.64804 0.176574,1.23782 0.471464,1.76754 -0.117115,0.29429 -0.177174,0.58858 -0.177174,0.94293 0,0.35314 0.06006,0.70689 0.236032,1.06004 L 53.69531,103.59724 Z M 50.808868,56.463467 c 0,-1.00118 -0.825212,-1.64982 -1.590966,-1.64982 -0.353148,0 -0.58858,0.11832 -0.765754,0.17657 1.001186,0.41321 1.708682,1.29608 1.649824,2.9459 0.529722,-0.35254 0.706896,-0.94172 0.706896,-1.47265 z m 0.942929,17.38112 c 0,-0.76576 -0.648639,-1.47265 -1.47265,-1.47265 -0.471464,0 -0.766955,0.17657 -0.942929,0.29429 1.118902,0.23543 2.002372,1.17836 2.06123,2.35672 0.177174,-0.29429 0.354349,-0.58918 0.354349,-1.17836 z m 1.885256,-17.73366 c 0,-0.88407 -0.765754,-1.53271 -1.649825,-1.53271 0.353148,0.29489 0.706896,1.00178 0.706896,1.76814 0,0.35315 -0.05886,0.82461 -0.294289,1.35493 0.706896,-0.23603 1.237218,-0.76635 1.237218,-1.59036 z m 1.885256,47.369243 c 0,-0.41321 0.05886,-0.64864 0.235432,-1.06125 -0.29429,-0.35315 -0.529722,-0.94293 -0.529722,-1.64982 0,-0.7069 0.353148,-1.472653 1.118301,-1.943523 -0.235432,-1.76754 1.17836,-2.9459 2.769327,-2.9459 1.768141,0 2.65101,1.23782 2.946501,2.47444 0.236032,0.88407 0.588579,1.17836 1.001185,1.23722 0.765154,0.11831 2.002372,0 2.473836,-0.11712 0.531523,-0.11832 0.766955,-0.41321 0.766955,-1.29668 0.05886,-6.18609 -0.707496,-10.13377 -0.707496,-12.37218 0,-2.41558 1.354333,-3.47622 2.768725,-3.94768 1.885857,-0.64804 5.596911,-1.17836 7.42391,-1.11951 0.824011,0 1.237218,0.53093 1.590966,1.06125 0.646837,1.00118 1.17836,2.06243 1.825197,3.41616 -0.470864,0.23603 -0.706896,0.64864 -0.706896,1.23782 0,0.82521 0.471464,1.53211 1.119502,1.88586 l -6.893587,0.17657 c -0.05886,0.41261 -0.05886,0.82521 -0.05886,1.17836 0,0.76576 0.530322,1.29668 1.237218,1.29668 0.530322,0 1.001787,-0.17718 1.413792,-0.53092 0.236033,2.41557 -1.237218,3.18193 -2.768726,3.24079 0.05886,2.18014 0.176574,3.77051 0.176574,7.718203 0,2.82818 -1.413792,4.53686 -3.417364,4.53686 0.118316,-0.11711 0.176573,-0.29429 0.176573,-0.47146 0,-1.1189 -1.237218,-1.64922 -2.120687,-1.64922 -1.767541,0 -2.709868,1.41379 -4.655184,1.41379 -1.708081,0 -2.414977,-1.41379 -3.711053,-1.41379 -0.825813,0 -1.413792,0.53032 -1.413792,1.23781 0,0.35315 0.117115,0.64744 0.353147,0.94233 -1.118301,-0.002 -2.413776,-1.06244 -2.413776,-2.53509 z m 2.297862,-3.18254 c -1.119502,0 -1.709283,0.88467 -1.590966,1.59097 0.236032,-0.29429 0.706896,-0.7069 1.649824,-0.7069 0.765754,0 1.355535,0.35315 1.708082,0.76516 0,-0.82341 -0.58858,-1.64923 -1.76694,-1.64923 z m 0.529722,-2.709873 c -0.942328,0 -1.413792,0.53033 -1.47265,1.00179 0.236032,-0.11772 0.588579,-0.23603 1.118902,-0.23603 0.942327,0 1.709282,0.53032 1.944714,1.06064 0.117716,-0.94233 -0.470863,-1.8264 -1.590966,-1.8264 z m 7.659341,-25.92332 c 0,-3.88883 2.946501,-7.36445 7.482767,-8.42509 1.708682,-0.41261 3.181933,-0.64864 5.184905,-1.17836 3.770512,-1.00119 4.948872,-2.65101 4.948872,-4.83116 0,-0.58918 -0.117115,-1.06065 -0.413207,-1.53211 0.06006,0.35375 0.06006,0.64864 0.06006,1.00119 0,2.35672 -2.180747,4.47801 -5.362079,4.77229 -1.708082,0.11772 -3.53508,0.35315 -5.302621,0.53033 -0.412005,0.0589 -0.588579,-0.11832 -0.588579,-0.47147 l -0.05886,-2.82818 c 0,-0.11832 0.05886,-0.23543 0.236032,-0.23543 0.117116,0 0.175974,0.0589 0.236033,0.17657 0.352547,0.53032 1.060043,1.06064 2.061229,1.06064 0.825213,0 1.296677,-0.47146 1.296677,-1.00118 0,-0.58918 -0.530322,-1.1195 -1.590967,-1.1195 -2.297862,0 -3.476222,1.59096 -6.008916,1.59096 -2.769326,0 -3.712254,-1.35553 -3.712254,-2.65161 0,-1.06064 0.588579,-1.70868 1.355534,-2.06183 -0.236032,0.29429 -0.295491,0.52972 -0.295491,0.94293 0,0.88347 1.061245,1.59037 2.946501,1.59037 1.76694,0 2.887043,-0.41201 4.241376,-0.41201 1.76694,0 2.828184,0.58858 3.299649,1.23722 -0.05886,-1.35554 -1.061245,-2.5339 -2.356721,-2.5339 -0.884671,0 -1.237218,0.53033 -1.355534,0.76636 -0.05886,0.17657 -0.177175,0.23543 -0.29429,0.23543 -0.118316,0 -0.236032,-0.0589 -0.236032,-0.17597 l -0.29429,-2.9465 c -0.05946,-0.35255 0.117115,-0.52973 0.588579,-0.58858 l 3.005359,-0.23543 c 0.529722,1.47265 0.884071,2.29726 1.649224,2.29726 0.413207,0 0.588579,-0.47147 0.588579,-0.88347 0.648039,-0.17658 1.296677,-0.17658 1.944715,-0.11832 -0.766354,-0.53032 -3.299048,-0.23603 -4.066003,-1.29547 1.237819,-0.0595 2.180747,-0.11832 3.181933,-0.11832 1.001185,0 1.885256,0 2.709868,0.11832 0.942328,0.11711 1.885256,0.64803 1.885256,1.64982 0,0.64804 -0.353148,1.1189 -1.001186,1.1189 -0.236032,0 -0.413207,-0.0595 -0.648038,-0.23543 0.05946,0.47146 0.530923,0.76575 1.002387,0.76575 0.765153,0 1.295475,-0.47146 1.295475,-1.47325 0,-0.53032 -0.117115,-1.1195 -0.530322,-1.59036 1.237218,1.00118 2.002972,2.76872 2.002972,4.83055 0,3.59394 -1.295475,5.4798 -5.30202,6.89359 -2.063031,0.7069 -3.712255,1.17836 -5.774685,1.94411 -3.357906,1.23722 -5.360278,3.53508 -5.360278,6.77527 0,2.23901 1.118902,4.7723 3.475622,5.95066 -3.593338,-0.47086 -6.127232,-3.71165 -6.127232,-7.30559 z m 3.53508,1.53151 c 0,-3.18073 1.768141,-5.06659 5.184905,-6.36267 1.885256,-0.70689 3.712255,-1.23721 5.420337,-1.76694 4.183118,-1.47325 5.655768,-3.65339 5.655768,-7.54162 0,-1.64982 -0.471464,-3.24079 -1.237218,-4.18312 1.296676,1.1195 2.35672,2.82819 2.35672,5.77409 0,3.06361 -0.88407,6.18669 -5.126047,7.77705 -2.002371,0.76636 -3.121873,1.17836 -5.243162,2.06183 -3.299048,1.41379 -4.359092,3.29965 -4.359092,5.83295 0,2.41497 1.295476,3.77051 2.296662,4.59512 -2.415579,-0.41261 -4.948873,-2.88704 -4.948873,-6.18669 z m 3.53448,1.64982 c 0,-2.35672 1.119502,-3.94708 4.006545,-5.30202 1.826998,-0.82521 3.181932,-1.1195 5.303221,-2.00357 4.183118,-1.64982 5.243162,-4.7717 5.243162,-8.36564 0,-1.23781 -0.177174,-2.71107 -0.824612,-3.94768 0.88347,1.06064 1.944114,2.71047 1.944114,5.95066 0,3.3585 -1.119502,6.48158 -4.831757,8.30737 -1.766939,0.82462 -2.9453,1.29608 -4.948872,2.23901 -2.297262,1.17836 -3.593939,2.82818 -3.593939,4.7723 0,1.53211 0.707497,2.71047 1.355535,3.3585 -2.239004,-0.64863 -3.653397,-2.76932 -3.653397,-5.00893 z m 5.362079,-23.27171 c -1.17836,0 -2.35672,0.0595 -3.593338,0.17657 l -1.590966,-3.12247 2.711069,0 c 0,0.7069 0.529722,1.23722 1.17836,1.23722 0.646837,0 1.178361,-0.52972 1.178361,-1.23722 l 2.414977,0 c 0,0.76575 0.471464,1.23722 1.17836,1.23722 0.648038,0 1.178361,-0.64804 1.178361,-1.23722 l 2.709868,0 -1.825798,3.24079 c -1.473851,-0.17717 -3.359708,-0.29489 -5.539254,-0.29489 z m -2.179546,24.9804 c 0,-1.64923 1.119503,-3.00416 3.121874,-4.06541 1.413792,-0.70749 2.592152,-1.17836 4.948872,-2.35672 3.712255,-1.8264 5.126047,-4.83055 5.126047,-8.89656 0,-1.06064 -0.177174,-1.94411 -0.354349,-3.00415 0.648639,1.29547 1.178361,2.82818 1.178361,4.77229 0,3.88823 -1.354334,7.65874 -5.242562,9.66232 -1.649824,0.82461 -2.592152,1.35493 -3.82937,1.94351 -1.885857,0.82521 -2.769327,2.12069 -2.769327,3.6534 0,1.17836 0.29429,1.8264 0.58918,2.35672 -1.708682,-0.47147 -2.768726,-2.00297 -2.768726,-4.0654 z m 3.004759,10.01606 c 0,-0.58858 0.175973,-0.94233 0.88347,-1.06065 -0.824612,-1.8258 -1.47265,-3.00416 -1.944115,-3.77051 -0.177174,-0.29429 0,-0.47086 0.236033,-0.47086 0.354349,0 0.648038,0.11771 0.88407,0.47086 0.413207,0.53092 0.942328,1.35493 1.355535,2.12129 0.765153,1.35433 1.237218,2.65101 1.295475,4.53687 l -0.588579,0 c -1.238419,0 -2.121889,-0.88408 -2.121889,-1.827 z m 4.182518,16.909653 c 0,-0.41321 0.06006,-0.64864 0.236032,-1.06125 -0.29429,-0.35315 -0.530322,-0.94293 -0.530322,-1.64982 0,-0.7069 0.354349,-1.472653 1.119502,-1.943523 -0.236032,-1.76754 1.17836,-2.9459 2.769327,-2.9459 1.766939,0 2.65101,1.23782 2.945299,2.47444 0.235432,0.88407 0.58918,1.17836 1.001186,1.23722 0.766355,0.11831 2.003573,0 2.475037,-0.11712 0.529721,-0.11832 0.765153,-0.41321 0.765153,-1.29668 0,-1.47265 -0.412606,-3.41616 -0.765153,-5.06658 -0.884071,0.11711 -3.064217,0.23603 -4.713441,0.23603 -3.653397,0 -5.715227,-1.64983 -6.068975,-5.24376 -0.117115,-1.47326 -0.412606,-2.88765 -1.295475,-4.47741 -0.648038,-1.23782 -2.120688,-2.88765 -2.120688,-5.00833 0,-1.59037 0.588579,-2.5333 2.414977,-3.41677 1.295476,-0.58918 2.828185,-1.29607 4.12366,-2.06243 -0.05886,2.06243 1.17836,4.83116 2.769327,6.00952 1.76754,1.29607 3.417364,1.64982 5.832943,1.64982 2.769326,0 5.420336,-0.82461 6.834727,-2.47443 -0.82581,0.53032 -1.944112,0.82461 -3.358505,0.82461 -4.360293,0 -7.129619,-3.35851 -7.129619,-6.95185 0,-2.59215 1.413792,-4.89061 3.770512,-6.83412 1.944715,-1.59097 3.712255,-2.59216 5.067789,-3.94769 0.884073,-0.88347 1.649823,-1.94412 1.649823,-3.18073 0,-1.47325 -1.00178,-2.88705 -2.063029,-3.29965 0.58978,-0.7069 1.768139,-1.35494 2.828189,-1.35494 1.76754,0 3.41736,1.29608 3.41736,3.00476 0,1.29548 -0.76635,2.29726 -1.76754,2.76873 0.0589,1.00179 -0.58858,2.29786 -1.35554,3.12307 -1.47265,1.59037 -4.182513,3.29965 -5.950053,4.71344 -1.76694,1.4138 -2.709868,2.88705 -2.709868,4.89002 0,2.65161 2.120688,4.59512 4.830556,4.59512 2.533895,0 4.713445,-1.94351 4.713445,-4.65458 0,-2.47384 -1.76694,-4.30083 -4.477413,-5.53745 l 2.239603,-1.59097 c 2.41498,1.41379 5.06659,3.35791 5.06659,7.54163 0,5.77348 -4.65458,10.84067 -12.196207,10.84067 -2.357321,0 -3.004158,-0.29429 -4.478009,-0.88407 0.942328,0.88407 1.944714,2.18015 2.003572,3.77051 1.178961,0.35375 2.002972,0.53032 4.536867,0.53032 1.119502,0 2.65101,-0.17657 3.889429,-0.53032 0.882868,-0.23603 1.413788,-0.58858 1.708078,-1.00178 0.29429,0.47146 0.47147,1.00178 0.47147,1.47265 0,1.35553 -1.00119,2.41557 -2.062432,2.65161 0.412602,4.18311 0.765152,8.36623 0.765152,12.136753 0,2.82818 -1.413791,4.53686 -3.416162,4.53686 0.117115,-0.11711 0.177174,-0.29429 0.177174,-0.47146 0,-1.1189 -1.238419,-1.64922 -2.121288,-1.64922 -1.767541,0 -2.710469,1.41379 -4.654583,1.41379 -1.708682,0 -2.414978,-1.41379 -3.712255,-1.41379 -0.824011,0 -1.413792,0.53032 -1.413792,1.23781 0,0.35315 0.118317,0.64744 0.354349,0.94233 -1.120103,-0.002 -2.416779,-1.06244 -2.416779,-2.53509 z m 2.297862,-3.18254 c -1.119502,0 -1.708682,0.88467 -1.590966,1.59097 0.236032,-0.29429 0.707496,-0.7069 1.649824,-0.7069 0.766354,0 1.355535,0.35315 1.709883,0.76516 -6e-4,-0.82341 -0.590381,-1.64923 -1.768741,-1.64923 z m 0.530322,-2.709873 c -0.942928,0 -1.413792,0.53033 -1.47265,1.00179 0.236033,-0.11772 0.58918,-0.23603 1.119502,-0.23603 0.942328,0 1.708683,0.53032 1.943514,1.06064 0.118917,-0.94233 -0.470864,-1.8264 -1.590366,-1.8264 z m 7.365652,-38.35436 c -0.884671,-0.47146 -1.649824,-1.47265 -1.649824,-2.65101 0,-1.70868 1.472649,-3.00476 3.239589,-3.00476 1.355535,0 2.298463,0.64864 2.888244,1.35494 -1.119502,0.58858 -2.003573,2.00237 -2.003573,3.29965 0,1.70868 0.884071,2.76872 1.708082,3.65219 l -2.179546,1.59097 c -1.237819,-1.1201 -2.002972,-2.59275 -2.002972,-4.24198 z" stroke="none" stroke-opacity="1" stroke-width="1"/>
	<rect fill="#0065bd" fill-opacity="1" height="85.12" id="5" rx="0" ry="0" stroke="#ffffff" stroke-opacity="1" stroke-width="1" width="85.12" x="116.04" y="26.55"/>
	<path d="m 143.79362,38.853497 0,13.42922 5.55787,0 0,-13.42922 4.79152,0 0,-4.09904 -15.16914,0 0,4.09904 4.81975,0 z m 17.72285,-4.09904 -5.55728,0 0,11.05869 c 0,4.89722 3.77052,6.88157 8.30858,6.88157 4.53627,0 8.30678,-1.98435 8.30678,-6.88157 l 0,-11.05869 -5.55667,0 0,10.59383 c 0,1.98496 -1.19097,2.86182 -2.75011,2.86182 -1.56033,0 -2.7513,-0.87626 -2.7513,-2.86182 l 0,-10.59383 z m -39.69248,8.76383 c 0,5.59391 4.33807,9.04791 10.00885,9.04791 2.29666,0 4.22456,-0.54114 5.3873,-1.08227 l 0,-4.40834 c -1.10568,0.54174 -2.38254,1.00599 -4.39452,1.00599 -2.01318,0 -4.93386,-1.39277 -4.93386,-4.56329 0,-3.16992 2.66482,-4.66539 5.24496,-4.66539 1.75854,0 2.97774,0.36095 4.0558,0.85043 l 0,-4.35609 c -1.13512,-0.46425 -2.55192,-0.82461 -4.82095,-0.82461 -5.69841,0 -10.54758,3.40235 -10.54758,8.99566 m 40.30568,56.763093 3.58673,0 0,1.18616 -2.08826,0 0,0.83363 2.01919,0 0,1.15493 -2.01919,0 0,0.84083 2.08826,0 0,1.18557 -3.58673,0 0,-5.20112 z m -5.97108,3.28163 0,-3.28163 1.49968,0 0,3.14349 c 0,0.58858 0.32071,0.84864 0.74173,0.84864 0.41981,0 0.74113,-0.26006 0.74113,-0.84864 l 0,-3.14349 1.49907,0 0,3.28163 c 0,1.45283 -1.0174,2.04081 -2.2402,2.04081 -1.22341,0 -2.24141,-0.58798 -2.24141,-2.04081 z m -5.93084,-0.68107 c 0,-1.69787 1.18617,-2.79095 2.95131,-2.79095 0.68887,0 1.19337,0.19039 1.49967,0.32852 l 0,1.22341 c -0.28288,-0.15255 -0.74233,-0.33693 -1.27745,-0.33693 -0.97176,0 -1.53692,0.52071 -1.53692,1.57595 0,0.97896 0.64143,1.4222 1.22281,1.4222 0.11471,0 0.22942,-0.015 0.33753,-0.0378 l 0,-1.40719 1.46064,0 0,2.30207 c -0.31291,0.16096 -0.95614,0.44264 -1.88226,0.44264 -1.45163,0 -2.77533,-1.02461 -2.77533,-2.72188 z m -2.39035,1.5219 -1.66004,0 -0.28348,1.07806 -1.53691,0 1.55253,-5.20052 2.19456,0 1.56034,5.20052 -1.53812,0 -0.28888,-1.07806 z m -0.28288,-1.06305 -0.51291,-1.91949 -0.0679,0 -0.51291,1.91949 1.09368,0 z m -7.97405,-3.05941 2.38675,0 c 1.21499,0 1.95793,0.78016 1.95793,1.71348 0,0.88768 -0.65044,1.27746 -1.1093,1.48406 l -0.008,0.0306 c 0.0679,0.0456 0.19098,0.19879 0.29008,0.36696 l 0.95674,1.60598 -1.69006,0 -0.90329,-1.8276 -0.38198,0 0,1.8276 -1.49907,0 0,-5.20112 z m 2.10267,2.40176 c 0.4054,0 0.64263,-0.32131 0.64263,-0.64984 0,-0.32912 -0.23783,-0.64263 -0.64263,-0.64263 l -0.6036,0 0,1.29247 0.6036,0 z m -7.43833,-2.40176 2.26423,0 c 1.2156,0 1.97295,0.83422 1.97295,1.78976 0,0.95554 -0.75735,1.7279 -1.97295,1.7279 l -0.76395,0 0,1.68286 -1.49967,0 0,-5.20052 z m 2.08826,2.40176 c 0.32852,0 0.62702,-0.26786 0.62702,-0.64263 0,-0.36636 -0.2985,-0.64203 -0.62702,-0.64203 l -0.58798,0 0,1.28526 0.58798,0 z m -10.4575,-2.40176 1.84262,0 1.55973,3.10565 0.0234,0 0,-3.10565 1.49967,0 0,5.20052 -1.8288,0 -1.57535,-3.12007 -0.0222,0 0,3.12007 -1.49908,0 0,-5.20052 z m -3.02758,0 1.49908,0 0,5.20052 -1.49908,0 0,-5.20052 z m 44.92243,-5.983103 -1.75853,-3.29604 1.69787,0 0.81741,1.85883 0.0312,0 0.84863,-1.85883 1.65944,0 -1.79697,3.29604 0,1.90448 -1.49908,0 0,-1.90448 z m -4.80052,-2.08044 -1.29968,0 0,-1.2156 4.09122,0 0,1.2156 -1.29247,0 0,3.98492 -1.49907,0 0,-3.98492 z m -3.79934,-1.2156 1.49907,0 0,5.20052 -1.49907,0 0,-5.20052 z m -5.20533,4.92545 0,-1.36214 c 0.33633,0.23723 1.03242,0.53633 1.72009,0.53633 0.5057,0 0.78077,-0.14595 0.78077,-0.406 0,-0.20661 -0.19038,-0.2979 -0.47446,-0.36697 -0.33634,-0.0841 -0.54294,-0.13032 -0.93332,-0.23002 -0.7027,-0.17537 -1.15494,-0.67987 -1.15494,-1.48346 0,-1.05584 0.95674,-1.73631 2.24861,-1.73631 0.61261,0 1.16275,0.12252 1.49968,0.26786 l 0,1.29187 c -0.26066,-0.14534 -0.78798,-0.34413 -1.4228,-0.34413 -0.58137,0 -0.84083,0.14534 -0.84083,0.37476 0,0.1988 0.15255,0.2985 0.5045,0.37477 0.26005,0.0534 0.45104,0.0847 0.79518,0.16877 0.84864,0.206 1.28527,0.70329 1.28527,1.55193 0,0.86425 -0.78798,1.75913 -2.21078,1.75913 -0.77957,6e-4 -1.37656,-0.16036 -1.79697,-0.39639 z m -5.36568,-4.92545 2.38615,0 c 1.21619,0 1.95792,0.78017 1.95792,1.71349 0,0.88707 -0.64923,1.27745 -1.10809,1.48346 l -0.009,0.0306 c 0.0691,0.0457 0.19159,0.19879 0.29129,0.36756 l 0.95554,1.60598 -1.69006,0 -0.90209,-1.8282 -0.38198,0 0,1.8282 -1.49967,0 0,-5.20112 z m 2.10267,2.40116 c 0.4054,0 0.64263,-0.32071 0.64263,-0.64984 0,-0.32912 -0.23783,-0.64203 -0.64263,-0.64203 l -0.6036,0 0,1.29187 0.6036,0 z m -7.05635,-2.40116 3.58733,0 0,1.18557 -2.08765,0 0,0.83362 2.01798,0 0,1.15493 -2.01798,0 0,0.84143 2.08765,0 0,1.18557 -3.58733,0 0,-5.20112 z m -6.12303,0 1.68286,0 0.88767,3.89243 0.0312,0 0.88768,-3.89243 1.68285,0 -1.56033,5.20052 -2.04982,0 -1.56214,-5.20052 z m -2.29966,0 1.49907,0 0,5.20052 -1.49907,0 0,-5.20052 z m -6.45035,0 1.84201,0 1.56034,3.10506 0.0234,0 0,-3.10506 1.49848,0 0,5.20052 -1.8276,0 -1.57535,-3.12007 -0.0234,0 0,3.12007 -1.49787,0 0,-5.20052 z m -5.96267,3.28103 0,-3.28103 1.49847,0 0,3.14349 c 0,0.58798 0.32072,0.84864 0.74173,0.84864 0.42042,0 0.74233,-0.26066 0.74233,-0.84864 l 0,-3.14349 1.49788,0 0,3.28103 c 0,1.45283 -1.0168,2.04141 -2.24021,2.04141 -1.224,0 -2.2402,-0.58858 -2.2402,-2.04141 z m 68.13588,-12.56137 1.49908,0 0,3.96931 1.85762,0 0,1.23121 -3.3567,0 0,-5.20052 z m -2.61978,4.12306 -1.65943,0 -0.28408,1.07806 -1.53692,0 1.55253,-5.20052 2.19456,0 1.56034,5.20052 -1.53812,0 -0.28888,-1.07806 z m -0.28288,-1.06365 -0.5129,-1.91949 -0.0679,0 -0.5129,1.91949 1.09367,0 z m -7.99747,-0.45825 c 0,-1.65943 1.30869,-2.66902 2.845,-2.66902 0.612,0 0.99458,0.1075 1.29968,0.24444 l 0,1.29247 c -0.29009,-0.14534 -0.61921,-0.25225 -1.09308,-0.25225 -0.69608,0 -1.41439,0.44324 -1.41439,1.38436 0,0.93993 0.78798,1.35374 1.33091,1.35374 0.54233,0 0.88707,-0.13754 1.18617,-0.2979 l 0,1.30749 c -0.31351,0.16096 -0.83422,0.32132 -1.45403,0.32132 -1.52971,-6e-4 -2.70026,-1.02521 -2.70026,-2.68465 z m -2.72128,-2.60116 1.49907,0 0,5.20052 -1.49907,0 0,-5.20052 z m -6.45095,0 1.84261,0 1.56034,3.10566 0.0234,0 0,-3.10566 1.49788,0 0,5.20052 -1.8276,0 -1.57535,-3.12007 -0.0234,0 0,3.12007 -1.49787,0 0,-5.20052 z m -4.56269,0 0,1.98916 1.53811,0 0,-1.98916 1.49787,0 0,5.20052 -1.49787,0 0,-2.0342 -1.53811,0 0,2.0342 -1.49908,0 0,-5.20052 1.49908,0 z m -6.78128,2.60116 c 0,-1.65943 1.30869,-2.66902 2.845,-2.66902 0.6126,0 0.99518,0.1075 1.30028,0.24444 l 0,1.29247 c -0.29009,-0.14534 -0.61981,-0.25225 -1.09308,-0.25225 -0.69608,0 -1.41499,0.44324 -1.41499,1.38436 0,0.93993 0.78798,1.35374 1.33091,1.35374 0.54294,0 0.88768,-0.13754 1.18617,-0.2979 l 0,1.30749 c -0.31291,0.16096 -0.83422,0.32132 -1.45343,0.32132 -1.52971,-6e-4 -2.70086,-1.02521 -2.70086,-2.68465 z m -4.66179,-2.60116 3.58613,0 0,1.18617 -2.08705,0 0,0.83362 2.01858,0 0,1.15494 -2.01858,0 0,0.84083 2.08705,0 0,1.18556 -3.58613,0 0,-5.20112 z m -3.7603,1.2168 -1.30088,0 0,-1.2162 4.09122,0 0,1.2162 -1.29247,0 0,3.98432 -1.49787,0 0,-3.98432 z m -7.0095,-1.2168 0,1.98916 1.53811,0 0,-1.98916 1.49787,0 0,5.20052 -1.49787,0 0,-2.0342 -1.53811,0 0,2.0342 -1.49908,0 0,-5.20052 1.49908,0 z m -6.78128,2.60116 c 0,-1.65943 1.30809,-2.66902 2.845,-2.66902 0.6126,0 0.99398,0.1075 1.30028,0.24444 l 0,1.29247 c -0.29008,-0.14534 -0.61981,-0.25225 -1.09308,-0.25225 -0.69608,0 -1.41499,0.44324 -1.41499,1.38436 0,0.93993 0.78738,1.35374 1.33091,1.35374 0.54294,0 0.88768,-0.13754 1.18497,-0.2979 l 0,1.30749 c -0.31291,0.16096 -0.83302,0.32132 -1.45223,0.32132 -1.53031,-6e-4 -2.70086,-1.02521 -2.70086,-2.68465 z m -4.66119,-2.60116 3.58613,0 0,1.18617 -2.08705,0 0,0.83362 2.01858,0 0,1.15494 -2.01858,0 0,0.84083 2.08705,0 0,1.18556 -3.58613,0 0,-5.20112 z m -5.22154,4.05399 2.17174,-2.83719 -2.1261,0 0,-1.2162 3.99994,0 0,1.09368 -2.21077,2.89065 2.24861,0 0,1.21559 -4.08402,0 0,-1.14653 z m -4.89242,-1.45283 c 0,-1.65943 1.30869,-2.66902 2.845,-2.66902 0.61261,0 0.99458,0.1075 1.30088,0.24444 l 0,1.29247 c -0.29068,-0.14534 -0.61921,-0.25225 -1.09367,-0.25225 -0.69609,0 -1.415,0.44324 -1.415,1.38436 0,0.93993 0.78798,1.35374 1.33091,1.35374 0.54294,0 0.88768,-0.13754 1.18617,-0.2979 l 0,1.30749 c -0.31351,0.16096 -0.83422,0.32132 -1.45343,0.32132 -1.5297,-6e-4 -2.70086,-1.02521 -2.70086,-2.68465 z" fill="#ffffff" fill-opacity="1" id="6" path="m 143.79362,38.853497 0,13.42922 5.55787,0 0,-13.42922 4.79152,0 0,-4.09904 -15.16914,0 0,4.09904 4.81975,0 z m 17.72285,-4.09904 -5.55728,0 0,11.05869 c 0,4.89722 3.77052,6.88157 8.30858,6.88157 4.53627,0 8.30678,-1.98435 8.30678,-6.88157 l 0,-11.05869 -5.55667,0 0,10.59383 c 0,1.98496 -1.19097,2.86182 -2.75011,2.86182 -1.56033,0 -2.7513,-0.87626 -2.7513,-2.86182 l 0,-10.59383 z m -39.69248,8.76383 c 0,5.59391 4.33807,9.04791 10.00885,9.04791 2.29666,0 4.22456,-0.54114 5.3873,-1.08227 l 0,-4.40834 c -1.10568,0.54174 -2.38254,1.00599 -4.39452,1.00599 -2.01318,0 -4.93386,-1.39277 -4.93386,-4.56329 0,-3.16992 2.66482,-4.66539 5.24496,-4.66539 1.75854,0 2.97774,0.36095 4.0558,0.85043 l 0,-4.35609 c -1.13512,-0.46425 -2.55192,-0.82461 -4.82095,-0.82461 -5.69841,0 -10.54758,3.40235 -10.54758,8.99566 m 40.30568,56.763093 3.58673,0 0,1.18616 -2.08826,0 0,0.83363 2.01919,0 0,1.15493 -2.01919,0 0,0.84083 2.08826,0 0,1.18557 -3.58673,0 0,-5.20112 z m -5.97108,3.28163 0,-3.28163 1.49968,0 0,3.14349 c 0,0.58858 0.32071,0.84864 0.74173,0.84864 0.41981,0 0.74113,-0.26006 0.74113,-0.84864 l 0,-3.14349 1.49907,0 0,3.28163 c 0,1.45283 -1.0174,2.04081 -2.2402,2.04081 -1.22341,0 -2.24141,-0.58798 -2.24141,-2.04081 z m -5.93084,-0.68107 c 0,-1.69787 1.18617,-2.79095 2.95131,-2.79095 0.68887,0 1.19337,0.19039 1.49967,0.32852 l 0,1.22341 c -0.28288,-0.15255 -0.74233,-0.33693 -1.27745,-0.33693 -0.97176,0 -1.53692,0.52071 -1.53692,1.57595 0,0.97896 0.64143,1.4222 1.22281,1.4222 0.11471,0 0.22942,-0.015 0.33753,-0.0378 l 0,-1.40719 1.46064,0 0,2.30207 c -0.31291,0.16096 -0.95614,0.44264 -1.88226,0.44264 -1.45163,0 -2.77533,-1.02461 -2.77533,-2.72188 z m -2.39035,1.5219 -1.66004,0 -0.28348,1.07806 -1.53691,0 1.55253,-5.20052 2.19456,0 1.56034,5.20052 -1.53812,0 -0.28888,-1.07806 z m -0.28288,-1.06305 -0.51291,-1.91949 -0.0679,0 -0.51291,1.91949 1.09368,0 z m -7.97405,-3.05941 2.38675,0 c 1.21499,0 1.95793,0.78016 1.95793,1.71348 0,0.88768 -0.65044,1.27746 -1.1093,1.48406 l -0.008,0.0306 c 0.0679,0.0456 0.19098,0.19879 0.29008,0.36696 l 0.95674,1.60598 -1.69006,0 -0.90329,-1.8276 -0.38198,0 0,1.8276 -1.49907,0 0,-5.20112 z m 2.10267,2.40176 c 0.4054,0 0.64263,-0.32131 0.64263,-0.64984 0,-0.32912 -0.23783,-0.64263 -0.64263,-0.64263 l -0.6036,0 0,1.29247 0.6036,0 z m -7.43833,-2.40176 2.26423,0 c 1.2156,0 1.97295,0.83422 1.97295,1.78976 0,0.95554 -0.75735,1.7279 -1.97295,1.7279 l -0.76395,0 0,1.68286 -1.49967,0 0,-5.20052 z m 2.08826,2.40176 c 0.32852,0 0.62702,-0.26786 0.62702,-0.64263 0,-0.36636 -0.2985,-0.64203 -0.62702,-0.64203 l -0.58798,0 0,1.28526 0.58798,0 z m -10.4575,-2.40176 1.84262,0 1.55973,3.10565 0.0234,0 0,-3.10565 1.49967,0 0,5.20052 -1.8288,0 -1.57535,-3.12007 -0.0222,0 0,3.12007 -1.49908,0 0,-5.20052 z m -3.02758,0 1.49908,0 0,5.20052 -1.49908,0 0,-5.20052 z m 44.92243,-5.983103 -1.75853,-3.29604 1.69787,0 0.81741,1.85883 0.0312,0 0.84863,-1.85883 1.65944,0 -1.79697,3.29604 0,1.90448 -1.49908,0 0,-1.90448 z m -4.80052,-2.08044 -1.29968,0 0,-1.2156 4.09122,0 0,1.2156 -1.29247,0 0,3.98492 -1.49907,0 0,-3.98492 z m -3.79934,-1.2156 1.49907,0 0,5.20052 -1.49907,0 0,-5.20052 z m -5.20533,4.92545 0,-1.36214 c 0.33633,0.23723 1.03242,0.53633 1.72009,0.53633 0.5057,0 0.78077,-0.14595 0.78077,-0.406 0,-0.20661 -0.19038,-0.2979 -0.47446,-0.36697 -0.33634,-0.0841 -0.54294,-0.13032 -0.93332,-0.23002 -0.7027,-0.17537 -1.15494,-0.67987 -1.15494,-1.48346 0,-1.05584 0.95674,-1.73631 2.24861,-1.73631 0.61261,0 1.16275,0.12252 1.49968,0.26786 l 0,1.29187 c -0.26066,-0.14534 -0.78798,-0.34413 -1.4228,-0.34413 -0.58137,0 -0.84083,0.14534 -0.84083,0.37476 0,0.1988 0.15255,0.2985 0.5045,0.37477 0.26005,0.0534 0.45104,0.0847 0.79518,0.16877 0.84864,0.206 1.28527,0.70329 1.28527,1.55193 0,0.86425 -0.78798,1.75913 -2.21078,1.75913 -0.77957,6e-4 -1.37656,-0.16036 -1.79697,-0.39639 z m -5.36568,-4.92545 2.38615,0 c 1.21619,0 1.95792,0.78017 1.95792,1.71349 0,0.88707 -0.64923,1.27745 -1.10809,1.48346 l -0.009,0.0306 c 0.0691,0.0457 0.19159,0.19879 0.29129,0.36756 l 0.95554,1.60598 -1.69006,0 -0.90209,-1.8282 -0.38198,0 0,1.8282 -1.49967,0 0,-5.20112 z m 2.10267,2.40116 c 0.4054,0 0.64263,-0.32071 0.64263,-0.64984 0,-0.32912 -0.23783,-0.64203 -0.64263,-0.64203 l -0.6036,0 0,1.29187 0.6036,0 z m -7.05635,-2.40116 3.58733,0 0,1.18557 -2.08765,0 0,0.83362 2.01798,0 0,1.15493 -2.01798,0 0,0.84143 2.08765,0 0,1.18557 -3.58733,0 0,-5.20112 z m -6.12303,0 1.68286,0 0.88767,3.89243 0.0312,0 0.88768,-3.89243 1.68285,0 -1.56033,5.20052 -2.04982,0 -1.56214,-5.20052 z m -2.29966,0 1.49907,0 0,5.20052 -1.49907,0 0,-5.20052 z m -6.45035,0 1.84201,0 1.56034,3.10506 0.0234,0 0,-3.10506 1.49848,0 0,5.20052 -1.8276,0 -1.57535,-3.12007 -0.0234,0 0,3.12007 -1.49787,0 0,-5.20052 z m -5.96267,3.28103 0,-3.28103 1.49847,0 0,3.14349 c 0,0.58798 0.32072,0.84864 0.74173,0.84864 0.42042,0 0.74233,-0.26066 0.74233,-0.84864 l 0,-3.14349 1.49788,0 0,3.28103 c 0,1.45283 -1.0168,2.04141 -2.24021,2.04141 -1.224,0 -2.2402,-0.58858 -2.2402,-2.04141 z m 68.13588,-12.56137 1.49908,0 0,3.96931 1.85762,0 0,1.23121 -3.3567,0 0,-5.20052 z m -2.61978,4.12306 -1.65943,0 -0.28408,1.07806 -1.53692,0 1.55253,-5.20052 2.19456,0 1.56034,5.20052 -1.53812,0 -0.28888,-1.07806 z m -0.28288,-1.06365 -0.5129,-1.91949 -0.0679,0 -0.5129,1.91949 1.09367,0 z m -7.99747,-0.45825 c 0,-1.65943 1.30869,-2.66902 2.845,-2.66902 0.612,0 0.99458,0.1075 1.29968,0.24444 l 0,1.29247 c -0.29009,-0.14534 -0.61921,-0.25225 -1.09308,-0.25225 -0.69608,0 -1.41439,0.44324 -1.41439,1.38436 0,0.93993 0.78798,1.35374 1.33091,1.35374 0.54233,0 0.88707,-0.13754 1.18617,-0.2979 l 0,1.30749 c -0.31351,0.16096 -0.83422,0.32132 -1.45403,0.32132 -1.52971,-6e-4 -2.70026,-1.02521 -2.70026,-2.68465 z m -2.72128,-2.60116 1.49907,0 0,5.20052 -1.49907,0 0,-5.20052 z m -6.45095,0 1.84261,0 1.56034,3.10566 0.0234,0 0,-3.10566 1.49788,0 0,5.20052 -1.8276,0 -1.57535,-3.12007 -0.0234,0 0,3.12007 -1.49787,0 0,-5.20052 z m -4.56269,0 0,1.98916 1.53811,0 0,-1.98916 1.49787,0 0,5.20052 -1.49787,0 0,-2.0342 -1.53811,0 0,2.0342 -1.49908,0 0,-5.20052 1.49908,0 z m -6.78128,2.60116 c 0,-1.65943 1.30869,-2.66902 2.845,-2.66902 0.6126,0 0.99518,0.1075 1.30028,0.24444 l 0,1.29247 c -0.29009,-0.14534 -0.61981,-0.25225 -1.09308,-0.25225 -0.69608,0 -1.41499,0.44324 -1.41499,1.38436 0,0.93993 0.78798,1.35374 1.33091,1.35374 0.54294,0 0.88768,-0.13754 1.18617,-0.2979 l 0,1.30749 c -0.31291,0.16096 -0.83422,0.32132 -1.45343,0.32132 -1.52971,-6e-4 -2.70086,-1.02521 -2.70086,-2.68465 z m -4.66179,-2.60116 3.58613,0 0,1.18617 -2.08705,0 0,0.83362 2.01858,0 0,1.15494 -2.01858,0 0,0.84083 2.08705,0 0,1.18556 -3.58613,0 0,-5.20112 z m -3.7603,1.2168 -1.30088,0 0,-1.2162 4.09122,0 0,1.2162 -1.29247,0 0,3.98432 -1.49787,0 0,-3.98432 z m -7.0095,-1.2168 0,1.98916 1.53811,0 0,-1.98916 1.49787,0 0,5.20052 -1.49787,0 0,-2.0342 -1.53811,0 0,2.0342 -1.49908,0 0,-5.20052 1.49908,0 z m -6.78128,2.60116 c 0,-1.65943 1.30809,-2.66902 2.845,-2.66902 0.6126,0 0.99398,0.1075 1.30028,0.24444 l 0,1.29247 c -0.29008,-0.14534 -0.61981,-0.25225 -1.09308,-0.25225 -0.69608,0 -1.41499,0.44324 -1.41499,1.38436 0,0.93993 0.78738,1.35374 1.33091,1.35374 0.54294,0 0.88768,-0.13754 1.18497,-0.2979 l 0,1.30749 c -0.31291,0.16096 -0.83302,0.32132 -1.45223,0.32132 -1.53031,-6e-4 -2.70086,-1.02521 -2.70086,-2.68465 z m -4.66119,-2.60116 3.58613,0 0,1.18617 -2.08705,0 0,0.83362 2.01858,0 0,1.15494 -2.01858,0 0,0.84083 2.08705,0 0,1.18556 -3.58613,0 0,-5.20112 z m -5.22154,4.05399 2.17174,-2.83719 -2.1261,0 0,-1.2162 3.99994,0 0,1.09368 -2.21077,2.89065 2.24861,0 0,1.21559 -4.08402,0 0,-1.14653 z m -4.89242,-1.45283 c 0,-1.65943 1.30869,-2.66902 2.845,-2.66902 0.61261,0 0.99458,0.1075 1.30088,0.24444 l 0,1.29247 c -0.29068,-0.14534 -0.61921,-0.25225 -1.09367,-0.25225 -0.69609,0 -1.415,0.44324 -1.415,1.38436 0,0.93993 0.78798,1.35374 1.33091,1.35374 0.54294,0 0.88768,-0.13754 1.18617,-0.2979 l 0,1.30749 c -0.31351,0.16096 -0.83422,0.32132 -1.45343,0.32132 -1.5297,-6e-4 -2.70086,-1.02521 -2.70086,-2.68465 z" stroke="none" stroke-opacity="1" stroke-width="1"/>
</svg>
