<?xml version="1.0" encoding="utf-8" ?>
<svg height="674.55005" version="1.1" width="899.54999" xmlns="http://www.w3.org/2000/svg" xmlns:ev="http://www.w3.org/2001/xml-events" xmlns:xlink="http://www.w3.org/1999/xlink">
	<defs />
	<rect fill="white" fill-opacity="1" height="674.55005" id="0" rx="0" ry="0" stroke="none" stroke-opacity="1" stroke-width="1" width="899.54999" x="0" y="0"/>
	<rect fill="#0065bd" fill-opacity="1" height="85.12" id="1" rx="0" ry="0" stroke="#ffffff" stroke-opacity="1" stroke-width="1" width="85.12" x="26.55" y="26.55"/>
	<path d="m 40.556775,64.005057 c 0.648038,0.35375 1.413792,0.58978 2.297261,0.76635 l 0.766355,3.53508 -3.535081,15.20097 -1.590365,1.1195 -4.419151,18.970883 -3.593338,2.76873 10.074319,-42.361513 z m 2.9459,0.0595 c -3.299649,-0.0595 -5.950659,-2.65161 -5.950659,-5.8918 0,-3.47562 2.709868,-5.95066 6.127833,-5.95066 1.590366,0 3.004158,0.7069 3.947087,1.88526 -1.354934,-0.17658 -2.651611,0.76635 -3.063617,1.82699 -0.353147,-0.11771 -0.648038,-0.11771 -0.88347,-0.11771 -1.355534,0 -2.415578,1.06064 -2.415578,2.35672 0,1.29608 1.060644,2.41558 2.415578,2.41558 1.354934,0 2.179546,-1.06125 2.179546,-2.41558 0,-0.0589 0,-0.17597 0,-0.23543 0.05886,-0.0595 0.177175,-0.0595 0.353749,-0.0595 0.235431,0 0.471464,0.11831 0.471464,0.53032 0,0.47146 -0.176574,1.35493 -0.176574,2.239 0,0.82522 0.176574,1.4138 0.412606,2.00298 l 2.002972,8.36623 c -0.29429,0.23604 -0.58918,0.52972 -0.824612,0.88407 -1.119502,0.23604 -2.06183,0.94233 -2.474436,1.94412 l -2.121889,-9.78063 z m 12.313924,5.53805 c -1.708082,0 -2.769327,0.11772 -3.947687,0.11772 -1.825798,0 -3.181332,-0.76636 -3.593938,-2.23901 0.706896,0 1.237218,-0.58918 1.237218,-1.29607 0,-1.41379 -2.179546,-2.82759 -2.179546,-5.53806 0,-0.88407 0.118316,-1.70808 0.118316,-2.35672 0,-0.70689 -0.58978,-1.17836 -1.237818,-1.17836 -0.530323,0 -1.001787,0.23604 -1.237819,0.47147 -0.117115,-1.64983 1.237819,-2.88644 2.946501,-2.76933 0.235432,-0.52972 1.118901,-1.17836 2.121288,-1.17836 0.706896,0 1.060044,0.17658 1.413792,0.41261 0.29429,-0.11772 0.647438,-0.17718 1.118902,-0.17718 1.354934,0 2.827584,1.11951 2.827584,2.82819 0,1.59096 -0.942328,2.35672 -1.885256,3.00476 -0.471464,0.35314 -0.58858,0.70689 -0.529722,1.23721 0.05886,0.64864 0.412606,1.76815 0.589781,2.35672 0.175973,0.53033 0.588579,0.76636 1.237218,0.7069 3.240791,-0.23603 7.894172,-0.58858 10.722357,-0.7069 2.652211,-0.11711 4.538068,-0.17657 6.717613,-0.29429 -4.124861,1.00119 -6.481581,3.77052 -7.129018,7.7182 l -1.885257,1.00119 c -0.413206,-1.59037 -2.534495,-2.12069 -7.424509,-2.12069 z m -2.65101,15.96672 c 0.706896,-0.17717 1.060043,-0.70689 1.060043,-1.17836 0,-0.70689 -0.412005,-1.17836 -0.942928,-1.53271 -0.882869,-0.52972 -1.825798,-1.00118 -2.65101,-1.70808 -0.884071,-0.76575 -1.413792,-1.41379 -1.944114,-2.12129 -0.413207,-0.47086 -0.765754,-0.64804 -1.296076,-0.64804 -0.648038,0 -1.119502,0.47147 -1.119502,1.00179 0,0.29489 0.05886,0.53092 0.176573,0.7075 -0.883469,-0.29489 -1.413792,-1.23782 -1.413792,-2.23961 0,-0.94233 0.589181,-1.64922 1.178361,-2.00297 -0.05946,-0.17657 -0.117716,-0.41261 -0.117716,-0.7069 0,-1.23781 1.001185,-2.41557 2.592152,-2.53329 0.29429,-0.82581 1.17836,-1.47325 2.35672,-1.47325 1.413792,0 2.886442,1.06064 2.886442,2.9453 0,0.94293 -0.235432,1.17836 -0.235432,1.88586 0,0.4132 0.118317,0.76515 0.706896,1.35553 0.706896,0.7069 1.061245,1.1189 1.47265,1.1189 0.412606,0 0.648639,-0.17657 1.119502,-0.53092 2.65101,-2.2384 4.948873,-4.59452 8.131406,-6.30381 0.05886,2.76873 1.118902,5.00833 3.416764,6.71702 l -2.002372,1.5321 c -0.354348,-0.35374 -0.707496,-0.47146 -1.17836,-0.47146 -0.766955,0 -1.532709,0.29489 -2.711069,1.06064 -1.354934,0.88468 -3.593338,3.18194 -5.184304,4.71345 -0.88407,0.88467 -1.826999,1.35553 -2.709868,1.35553 -0.706896,-6e-4 -1.296677,-0.29489 -1.590966,-0.94293 z m -5.008331,-10.84067 c -0.765754,0 -1.296677,0.4126 -1.413792,0.88347 0.235432,-0.0595 0.529721,-0.11772 0.88347,-0.11772 0.883469,0 1.649824,0.41321 2.003572,1.1195 0.177175,-1.1201 -0.471464,-1.88525 -1.47325,-1.88525 z m 5.538052,28.868623 -4.41855,-18.970883 -1.590366,-1.1195 -0.765754,-3.6528 c -0.117716,-0.47146 0.117716,-0.70749 0.471464,-0.70749 0.235432,0 0.412006,0.11771 0.648038,0.35375 0.766355,0.88407 1.237218,1.41379 2.062431,2.12068 0.471464,0.41321 1.060044,0.76576 1.649824,1.06065 l 3.652196,15.8496 c -0.588579,0.52972 -1.001186,1.35494 -1.001186,2.238413 0,0.64804 0.176574,1.23782 0.471464,1.76754 -0.117115,0.29429 -0.177174,0.58858 -0.177174,0.94293 0,0.35314 0.06006,0.70689 0.236032,1.06004 L 53.69531,103.59724 Z M 50.808868,56.463467 c 0,-1.00118 -0.825212,-1.64982 -1.590966,-1.64982 -0.353148,0 -0.58858,0.11832 -0.765754,0.17657 1.001186,0.41321 1.708682,1.29608 1.649824,2.9459 0.529722,-0.35254 0.706896,-0.94172 0.706896,-1.47265 z m 0.942929,17.38112 c 0,-0.76576 -0.648639,-1.47265 -1.47265,-1.47265 -0.471464,0 -0.766955,0.17657 -0.942929,0.29429 1.118902,0.23543 2.002372,1.17836 2.06123,2.35672 0.177174,-0.29429 0.354349,-0.58918 0.354349,-1.17836 z m 1.885256,-17.73366 c 0,-0.88407 -0.765754,-1.53271 -1.649825,-1.53271 0.353148,0.29489 0.706896,1.00178 0.706896,1.76814 0,0.35315 -0.05886,0.82461 -0.294289,1.35493 0.706896,-0.23603 1.237218,-0.76635 1.237218,-1.59036 z m 1.885256,47.369243 c 0,-0.41321 0.05886,-0.64864 0.235432,-1.06125 -0.29429,-0.35315 -0.529722,-0.94293 -0.529722,-1.64982 0,-0.7069 0.353148,-1.472653 1.118301,-1.943523 -0.235432,-1.76754 1.17836,-2.9459 2.769327,-2.9459 1.768141,0 2.65101,1.23782 2.946501,2.47444 0.236032,0.88407 0.588579,1.17836 1.001185,1.23722 0.765154,0.11831 2.002372,0 2.473836,-0.11712 0.531523,-0.11832 0.766955,-0.41321 0.766955,-1.29668 0.05886,-6.18609 -0.707496,-10.13377 -0.707496,-12.37218 0,-2.41558 1.354333,-3.47622 2.768725,-3.94768 1.885857,-0.64804 5.596911,-1.17836 7.42391,-1.11951 0.824011,0 1.237218,0.53093 1.590966,1.06125 0.646837,1.00118 1.17836,2.06243 1.825197,3.41616 -0.470864,0.23603 -0.706896,0.64864 -0.706896,1.23782 0,0.82521 0.471464,1.53211 1.119502,1.88586 l -6.893587,0.17657 c -0.05886,0.41261 -0.05886,0.82521 -0.05886,1.17836 0,0.76576 0.530322,1.29668 1.237218,1.29668 0.530322,0 1.001787,-0.17718 1.413792,-0.53092 0.236033,2.41557 -1.237218,3.18193 -2.768726,3.24079 0.05886,2.18014 0.176574,3.77051 0.176574,7.718203 0,2.82818 -1.413792,4.53686 -3.417364,4.53686 0.118316,-0.11711 0.176573,-0.29429 0.176573,-0.47146 0,-1.1189 -1.237218,-1.64922 -2.120687,-1.64922 -1.767541,0 -2.709868,1.41379 -4.655184,1.41379 -1.708081,0 -2.414977,-1.41379 -3.711053,-1.41379 -0.825813,0 -1.413792,0.53032 -1.413792,1.23781 0,0.35315 0.117115,0.64744 0.353147,0.94233 -1.118301,-0.002 -2.413776,-1.06244 -2.413776,-2.53509 z m 2.297862,-3.18254 c -1.119502,0 -1.709283,0.88467 -1.590966,1.59097 0.236032,-0.29429 0.706896,-0.7069 1.649824,-0.7069 0.765754,0 1.355535,0.35315 1.708082,0.76516 0,-0.82341 -0.58858,-1.64923 -1.76694,-1.64923 z m 0.529722,-2.709873 c -0.942328,0 -1.413792,0.53033 -1.47265,1.00179 0.236032,-0.11772 0.588579,-0.23603 1.118902,-0.23603 0.942327,0 1.709282,0.53032 1.944714,1.06064 0.117716,-0.94233 -0.470863,-1.8264 -1.590966,-1.8264 z m 7.659341,-25.92332 c 0,-3.88883 2.946501,-7.36445 7.482767,-8.42509 1.708682,-0.41261 3.181933,-0.64864 5.184905,-1.17836 3.770512,-1.00119 4.948872,-2.65101 4.948872,-4.83116 0,-0.58918 -0.117115,-1.06065 -0.413207,-1.53211 0.06006,0.35375 0.06006,0.64864 0.06006,1.00119 0,2.35672 -2.180747,4.47801 -5.362079,4.77229 -1.708082,0.11772 -3.53508,0.35315 -5.302621,0.53033 -0.412005,0.0589 -0.588579,-0.11832 -0.588579,-0.47147 l -0.05886,-2.82818 c 0,-0.11832 0.05886,-0.23543 0.236032,-0.23543 0.117116,0 0.175974,0.0589 0.236033,0.17657 0.352547,0.53032 1.060043,1.06064 2.061229,1.06064 0.825213,0 1.296677,-0.47146 1.296677,-1.00118 0,-0.58918 -0.530322,-1.1195 -1.590967,-1.1195 -2.297862,0 -3.476222,1.59096 -6.008916,1.59096 -2.769326,0 -3.712254,-1.35553 -3.712254,-2.65161 0,-1.06064 0.588579,-1.70868 1.355534,-2.06183 -0.236032,0.29429 -0.295491,0.52972 -0.295491,0.94293 0,0.88347 1.061245,1.59037 2.946501,1.59037 1.76694,0 2.887043,-0.41201 4.241376,-0.41201 1.76694,0 2.828184,0.58858 3.299649,1.23722 -0.05886,-1.35554 -1.061245,-2.5339 -2.356721,-2.5339 -0.884671,0 -1.237218,0.53033 -1.355534,0.76636 -0.05886,0.17657 -0.177175,0.23543 -0.29429,0.23543 -0.118316,0 -0.236032,-0.0589 -0.236032,-0.17597 l -0.29429,-2.9465 c -0.05946,-0.35255 0.117115,-0.52973 0.588579,-0.58858 l 3.005359,-0.23543 c 0.529722,1.47265 0.884071,2.29726 1.649224,2.29726 0.413207,0 0.588579,-0.47147 0.588579,-0.88347 0.648039,-0.17658 1.296677,-0.17658 1.944715,-0.11832 -0.766354,-0.53032 -3.299048,-0.23603 -4.066003,-1.29547 1.237819,-0.0595 2.180747,-0.11832 3.181933,-0.11832 1.001185,0 1.885256,0 2.709868,0.11832 0.942328,0.11711 1.885256,0.64803 1.885256,1.64982 0,0.64804 -0.353148,1.1189 -1.001186,1.1189 -0.236032,0 -0.413207,-0.0595 -0.648038,-0.23543 0.05946,0.47146 0.530923,0.76575 1.002387,0.76575 0.765153,0 1.295475,-0.47146 1.295475,-1.47325 0,-0.53032 -0.117115,-1.1195 -0.530322,-1.59036 1.237218,1.00118 2.002972,2.76872 2.002972,4.83055 0,3.59394 -1.295475,5.4798 -5.30202,6.89359 -2.063031,0.7069 -3.712255,1.17836 -5.774685,1.94411 -3.357906,1.23722 -5.360278,3.53508 -5.360278,6.77527 0,2.23901 1.118902,4.7723 3.475622,5.95066 -3.593338,-0.47086 -6.127232,-3.71165 -6.127232,-7.30559 z m 3.53508,1.53151 c 0,-3.18073 1.768141,-5.06659 5.184905,-6.36267 1.885256,-0.70689 3.712255,-1.23721 5.420337,-1.76694 4.183118,-1.47325 5.655768,-3.65339 5.655768,-7.54162 0,-1.64982 -0.471464,-3.24079 -1.237218,-4.18312 1.296676,1.1195 2.35672,2.82819 2.35672,5.77409 0,3.06361 -0.88407,6.18669 -5.126047,7.77705 -2.002371,0.76636 -3.121873,1.17836 -5.243162,2.06183 -3.299048,1.41379 -4.359092,3.29965 -4.359092,5.83295 0,2.41497 1.295476,3.77051 2.296662,4.59512 -2.415579,-0.41261 -4.948873,-2.88704 -4.948873,-6.18669 z m 3.53448,1.64982 c 0,-2.35672 1.119502,-3.94708 4.006545,-5.30202 1.826998,-0.82521 3.181932,-1.1195 5.303221,-2.00357 4.183118,-1.64982 5.243162,-4.7717 5.243162,-8.36564 0,-1.23781 -0.177174,-2.71107 -0.824612,-3.94768 0.88347,1.06064 1.944114,2.71047 1.944114,5.95066 0,3.3585 -1.119502,6.48158 -4.831757,8.30737 -1.766939,0.82462 -2.9453,1.29608 -4.948872,2.23901 -2.297262,1.17836 -3.593939,2.82818 -3.593939,4.7723 0,1.53211 0.707497,2.71047 1.355535,3.3585 -2.239004,-0.64863 -3.653397,-2.76932 -3.653397,-5.00893 z m 5.362079,-23.27171 c -1.17836,0 -2.35672,0.0595 -3.593338,0.17657 l -1.590966,-3.12247 2.711069,0 c 0,0.7069 0.529722,1.23722 1.17836,1.23722 0.646837,0 1.178361,-0.52972 1.178361,-1.23722 l 2.414977,0 c 0,0.76575 0.471464,1.23722 1.17836,1.23722 0.648038,0 1.178361,-0.64804 1.178361,-1.23722 l 2.709868,0 -1.825798,3.24079 c -1.473851,-0.17717 -3.359708,-0.29489 -5.539254,-0.29489 z m -2.179546,24.9804 c 0,-1.64923 1.119503,-3.00416 3.121874,-4.06541 1.413792,-0.70749 2.592152,-1.17836 4.948872,-2.35672 3.712255,-1.8264 5.126047,-4.83055 5.126047,-8.89656 0,-1.06064 -0.177174,-1.94411 -0.354349,-3.00415 0.648639,1.29547 1.178361,2.82818 1.178361,4.77229 0,3.88823 -1.354334,7.65874 -5.242562,9.66232 -1.649824,0.82461 -2.592152,1.35493 -3.82937,1.94351 -1.885857,0.82521 -2.769327,2.12069 -2.769327,3.6534 0,1.17836 0.29429,1.8264 0.58918,2.35672 -1.708682,-0.47147 -2.768726,-2.00297 -2.768726,-4.0654 z m 3.004759,10.01606 c 0,-0.58858 0.175973,-0.94233 0.88347,-1.06065 -0.824612,-1.8258 -1.47265,-3.00416 -1.944115,-3.77051 -0.177174,-0.29429 0,-0.47086 0.236033,-0.47086 0.354349,0 0.648038,0.11771 0.88407,0.47086 0.413207,0.53092 0.942328,1.35493 1.355535,2.12129 0.765153,1.35433 1.237218,2.65101 1.295475,4.53687 l -0.588579,0 c -1.238419,0 -2.121889,-0.88408 -2.121889,-1.827 z m 4.182518,16.909653 c 0,-0.41321 0.06006,-0.64864 0.236032,-1.06125 -0.29429,-0.35315 -0.530322,-0.94293 -0.530322,-1.64982 0,-0.7069 0.354349,-1.472653 1.119502,-1.943523 -0.236032,-1.76754 1.17836,-2.9459 2.769327,-2.9459 1.766939,0 2.65101,1.23782 2.945299,2.47444 0.235432,0.88407 0.58918,1.17836 1.001186,1.23722 0.766355,0.11831 2.003573,0 2.475037,-0.11712 0.529721,-0.11832 0.765153,-0.41321 0.765153,-1.29668 0,-1.47265 -0.412606,-3.41616 -0.765153,-5.06658 -0.884071,0.11711 -3.064217,0.23603 -4.713441,0.23603 -3.653397,0 -5.715227,-1.64983 -6.068975,-5.24376 -0.117115,-1.47326 -0.412606,-2.88765 -1.295475,-4.47741 -0.648038,-1.23782 -2.120688,-2.88765 -2.120688,-5.00833 0,-1.59037 0.588579,-2.5333 2.414977,-3.41677 1.295476,-0.58918 2.828185,-1.29607 4.12366,-2.06243 -0.05886,2.06243 1.17836,4.83116 2.769327,6.00952 1.76754,1.29607 3.417364,1.64982 5.832943,1.64982 2.769326,0 5.420336,-0.82461 6.834727,-2.47443 -0.82581,0.53032 -1.944112,0.82461 -3.358505,0.82461 -4.360293,0 -7.129619,-3.35851 -7.129619,-6.95185 0,-2.59215 1.413792,-4.89061 3.770512,-6.83412 1.944715,-1.59097 3.712255,-2.59216 5.067789,-3.94769 0.884073,-0.88347 1.649823,-1.94412 1.649823,-3.18073 0,-1.47325 -1.00178,-2.88705 -2.063029,-3.29965 0.58978,-0.7069 1.768139,-1.35494 2.828189,-1.35494 1.76754,0 3.41736,1.29608 3.41736,3.00476 0,1.29548 -0.76635,2.29726 -1.76754,2.76873 0.0589,1.00179 -0.58858,2.29786 -1.35554,3.12307 -1.47265,1.59037 -4.182513,3.29965 -5.950053,4.71344 -1.76694,1.4138 -2.709868,2.88705 -2.709868,4.89002 0,2.65161 2.120688,4.59512 4.830556,4.59512 2.533895,0 4.713445,-1.94351 4.713445,-4.65458 0,-2.47384 -1.76694,-4.30083 -4.477413,-5.53745 l 2.239603,-1.59097 c 2.41498,1.41379 5.06659,3.35791 5.06659,7.54163 0,5.77348 -4.65458,10.84067 -12.196207,10.84067 -2.357321,0 -3.004158,-0.29429 -4.478009,-0.88407 0.942328,0.88407 1.944714,2.18015 2.003572,3.77051 1.178961,0.35375 2.002972,0.53032 4.536867,0.53032 1.119502,0 2.65101,-0.17657 3.889429,-0.53032 0.882868,-0.23603 1.413788,-0.58858 1.708078,-1.00178 0.29429,0.47146 0.47147,1.00178 0.47147,1.47265 0,1.35553 -1.00119,2.41557 -2.062432,2.65161 0.412602,4.18311 0.765152,8.36623 0.765152,12.136753 0,2.82818 -1.413791,4.53686 -3.416162,4.53686 0.117115,-0.11711 0.177174,-0.29429 0.177174,-0.47146 0,-1.1189 -1.238419,-1.64922 -2.121288,-1.64922 -1.767541,0 -2.710469,1.41379 -4.654583,1.41379 -1.708682,0 -2.414978,-1.41379 -3.712255,-1.41379 -0.824011,0 -1.413792,0.53032 -1.413792,1.23781 0,0.35315 0.118317,0.64744 0.354349,0.94233 -1.120103,-0.002 -2.416779,-1.06244 -2.416779,-2.53509 z m 2.297862,-3.18254 c -1.119502,0 -1.708682,0.88467 -1.590966,1.59097 0.236032,-0.29429 0.707496,-0.7069 1.649824,-0.7069 0.766354,0 1.355535,0.35315 1.709883,0.76516 -6e-4,-0.82341 -0.590381,-1.64923 -1.768741,-1.64923 z m 0.530322,-2.709873 c -0.942928,0 -1.413792,0.53033 -1.47265,1.00179 0.236033,-0.11772 0.58918,-0.23603 1.119502,-0.23603 0.942328,0 1.708683,0.53032 1.943514,1.06064 0.118917,-0.94233 -0.470864,-1.8264 -1.590366,-1.8264 z m 7.365652,-38.35436 c -0.884671,-0.47146 -1.649824,-1.47265 -1.649824,-2.65101 0,-1.70868 1.472649,-3.00476 3.239589,-3.00476 1.355535,0 2.298463,0.64864 2.888244,1.35494 -1.119502,0.58858 -2.003573,2.00237 -2.003573,3.29965 0,1.70868 0.884071,2.76872 1.708082,3.65219 l -2.179546,1.59097 c -1.237819,-1.1201 -2.002972,-2.59275 -2.002972,-4.24198 z" fill="#ffffff" fill-opacity="1" id="2" path="m 40.556775,64.005057 c 0.648038,0.35375 1.413792,0.58978 2.297261,0.76635 l 0.766355,3.53508 -3.535081,15.20097 -1.590365,1.1195 -4.419151,18.970883 -3.593338,2.76873 10.074319,-42.361513 z m 2.9459,0.0595 c -3.299649,-0.0595 -5.950659,-2.65161 -5.950659,-5.8918 0,-3.47562 2.709868,-5.95066 6.127833,-5.95066 1.590366,0 3.004158,0.7069 3.947087,1.88526 -1.354934,-0.17658 -2.651611,0.76635 -3.063617,1.82699 -0.353147,-0.11771 -0.648038,-0.11771 -0.88347,-0.11771 -1.355534,0 -2.415578,1.06064 -2.415578,2.35672 0,1.29608 1.060644,2.41558 2.415578,2.41558 1.354934,0 2.179546,-1.06125 2.179546,-2.41558 0,-0.0589 0,-0.17597 0,-0.23543 0.05886,-0.0595 0.177175,-0.0595 0.353749,-0.0595 0.235431,0 0.471464,0.11831 0.471464,0.53032 0,0.47146 -0.176574,1.35493 -0.176574,2.239 0,0.82522 0.176574,1.4138 0.412606,2.00298 l 2.002972,8.36623 c -0.29429,0.23604 -0.58918,0.52972 -0.824612,0.88407 -1.119502,0.23604 -2.06183,0.94233 -2.474436,1.94412 l -2.121889,-9.78063 z m 12.313924,5.53805 c -1.708082,0 -2.769327,0.11772 -3.947687,0.11772 -1.825798,0 -3.181332,-0.76636 -3.593938,-2.23901 0.706896,0 1.237218,-0.58918 1.237218,-1.29607 0,-1.41379 -2.179546,-2.82759 -2.179546,-5.53806 0,-0.88407 0.118316,-1.70808 0.118316,-2.35672 0,-0.70689 -0.58978,-1.17836 -1.237818,-1.17836 -0.530323,0 -1.001787,0.23604 -1.237819,0.47147 -0.117115,-1.64983 1.237819,-2.88644 2.946501,-2.76933 0.235432,-0.52972 1.118901,-1.17836 2.121288,-1.17836 0.706896,0 1.060044,0.17658 1.413792,0.41261 0.29429,-0.11772 0.647438,-0.17718 1.118902,-0.17718 1.354934,0 2.827584,1.11951 2.827584,2.82819 0,1.59096 -0.942328,2.35672 -1.885256,3.00476 -0.471464,0.35314 -0.58858,0.70689 -0.529722,1.23721 0.05886,0.64864 0.412606,1.76815 0.589781,2.35672 0.175973,0.53033 0.588579,0.76636 1.237218,0.7069 3.240791,-0.23603 7.894172,-0.58858 10.722357,-0.7069 2.652211,-0.11711 4.538068,-0.17657 6.717613,-0.29429 -4.124861,1.00119 -6.481581,3.77052 -7.129018,7.7182 l -1.885257,1.00119 c -0.413206,-1.59037 -2.534495,-2.12069 -7.424509,-2.12069 z m -2.65101,15.96672 c 0.706896,-0.17717 1.060043,-0.70689 1.060043,-1.17836 0,-0.70689 -0.412005,-1.17836 -0.942928,-1.53271 -0.882869,-0.52972 -1.825798,-1.00118 -2.65101,-1.70808 -0.884071,-0.76575 -1.413792,-1.41379 -1.944114,-2.12129 -0.413207,-0.47086 -0.765754,-0.64804 -1.296076,-0.64804 -0.648038,0 -1.119502,0.47147 -1.119502,1.00179 0,0.29489 0.05886,0.53092 0.176573,0.7075 -0.883469,-0.29489 -1.413792,-1.23782 -1.413792,-2.23961 0,-0.94233 0.589181,-1.64922 1.178361,-2.00297 -0.05946,-0.17657 -0.117716,-0.41261 -0.117716,-0.7069 0,-1.23781 1.001185,-2.41557 2.592152,-2.53329 0.29429,-0.82581 1.17836,-1.47325 2.35672,-1.47325 1.413792,0 2.886442,1.06064 2.886442,2.9453 0,0.94293 -0.235432,1.17836 -0.235432,1.88586 0,0.4132 0.118317,0.76515 0.706896,1.35553 0.706896,0.7069 1.061245,1.1189 1.47265,1.1189 0.412606,0 0.648639,-0.17657 1.119502,-0.53092 2.65101,-2.2384 4.948873,-4.59452 8.131406,-6.30381 0.05886,2.76873 1.118902,5.00833 3.416764,6.71702 l -2.002372,1.5321 c -0.354348,-0.35374 -0.707496,-0.47146 -1.17836,-0.47146 -0.766955,0 -1.532709,0.29489 -2.711069,1.06064 -1.354934,0.88468 -3.593338,3.18194 -5.184304,4.71345 -0.88407,0.88467 -1.826999,1.35553 -2.709868,1.35553 -0.706896,-6e-4 -1.296677,-0.29489 -1.590966,-0.94293 z m -5.008331,-10.84067 c -0.765754,0 -1.296677,0.4126 -1.413792,0.88347 0.235432,-0.0595 0.529721,-0.11772 0.88347,-0.11772 0.883469,0 1.649824,0.41321 2.003572,1.1195 0.177175,-1.1201 -0.471464,-1.88525 -1.47325,-1.88525 z m 5.538052,28.868623 -4.41855,-18.970883 -1.590366,-1.1195 -0.765754,-3.6528 c -0.117716,-0.47146 0.117716,-0.70749 0.471464,-0.70749 0.235432,0 0.412006,0.11771 0.648038,0.35375 0.766355,0.88407 1.237218,1.41379 2.062431,2.12068 0.471464,0.41321 1.060044,0.76576 1.649824,1.06065 l 3.652196,15.8496 c -0.588579,0.52972 -1.001186,1.35494 -1.001186,2.238413 0,0.64804 0.176574,1.23782 0.471464,1.76754 -0.117115,0.29429 -0.177174,0.58858 -0.177174,0.94293 0,0.35314 0.06006,0.70689 0.236032,1.06004 L 53.69531,103.59724 Z M 50.808868,56.463467 c 0,-1.00118 -0.825212,-1.64982 -1.590966,-1.64982 -0.353148,0 -0.58858,0.11832 -0.765754,0.17657 1.001186,0.41321 1.708682,1.29608 1.649824,2.9459 0.529722,-0.35254 0.706896,-0.94172 0.706896,-1.47265 z m 0.942929,17.38112 c 0,-0.76576 -0.648639,-1.47265 -1.47265,-1.47265 -0.471464,0 -0.766955,0.17657 -0.942929,0.29429 1.118902,0.23543 2.002372,1.17836 2.06123,2.35672 0.177174,-0.29429 0.354349,-0.58918 0.354349,-1.17836 z m 1.885256,-17.73366 c 0,-0.88407 -0.765754,-1.53271 -1.649825,-1.53271 0.353148,0.29489 0.706896,1.00178 0.706896,1.76814 0,0.35315 -0.05886,0.82461 -0.294289,1.35493 0.706896,-0.23603 1.237218,-0.76635 1.237218,-1.59036 z m 1.885256,47.369243 c 0,-0.41321 0.05886,-0.64864 0.235432,-1.06125 -0.29429,-0.35315 -0.529722,-0.94293 -0.529722,-1.64982 0,-0.7069 0.353148,-1.472653 1.118301,-1.943523 -0.235432,-1.76754 1.17836,-2.9459 2.769327,-2.9459 1.768141,0 2.65101,1.23782 2.946501,2.47444 0.236032,0.88407 0.588579,1.17836 1.001185,1.23722 0.765154,0.11831 2.002372,0 2.473836,-0.11712 0.531523,-0.11832 0.766955,-0.41321 0.766955,-1.29668 0.05886,-6.18609 -0.707496,-10.13377 -0.707496,-12.37218 0,-2.41558 1.354333,-3.47622 2.768725,-3.94768 1.885857,-0.64804 5.596911,-1.17836 7.42391,-1.11951 0.824011,0 1.237218,0.53093 1.590966,1.06125 0.646837,1.00118 1.17836,2.06243 1.825197,3.41616 -0.470864,0.23603 -0.706896,0.64864 -0.706896,1.23782 0,0.82521 0.471464,1.53211 1.119502,1.88586 l -6.893587,0.17657 c -0.05886,0.41261 -0.05886,0.82521 -0.05886,1.17836 0,0.76576 0.530322,1.29668 1.237218,1.29668 0.530322,0 1.001787,-0.17718 1.413792,-0.53092 0.236033,2.41557 -1.237218,3.18193 -2.768726,3.24079 0.05886,2.18014 0.176574,3.77051 0.176574,7.718203 0,2.82818 -1.413792,4.53686 -3.417364,4.53686 0.118316,-0.11711 0.176573,-0.29429 0.176573,-0.47146 0,-1.1189 -1.237218,-1.64922 -2.120687,-1.64922 -1.767541,0 -2.709868,1.41379 -4.655184,1.41379 -1.708081,0 -2.414977,-1.41379 -3.711053,-1.41379 -0.825813,0 -1.413792,0.53032 -1.413792,1.23781 0,0.35315 0.117115,0.64744 0.353147,0.94233 -1.118301,-0.002 -2.413776,-1.06244 -2.413776,-2.53509 z m 2.297862,-3.18254 c -1.119502,0 -1.709283,0.88467 -1.590966,1.59097 0.236032,-0.29429 0.706896,-0.7069 1.649824,-0.7069 0.765754,0 1.355535,0.35315 1.708082,0.76516 0,-0.82341 -0.58858,-1.64923 -1.76694,-1.64923 z m 0.529722,-2.709873 c -0.942328,0 -1.413792,0.53033 -1.47265,1.00179 0.236032,-0.11772 0.588579,-0.23603 1.118902,-0.23603 0.942327,0 1.709282,0.53032 1.944714,1.06064 0.117716,-0.94233 -0.470863,-1.8264 -1.590966,-1.8264 z m 7.659341,-25.92332 c 0,-3.88883 2.946501,-7.36445 7.482767,-8.42509 1.708682,-0.41261 3.181933,-0.64864 5.184905,-1.17836 3.770512,-1.00119 4.948872,-2.65101 4.948872,-4.83116 0,-0.58918 -0.117115,-1.06065 -0.413207,-1.53211 0.06006,0.35375 0.06006,0.64864 0.06006,1.00119 0,2.35672 -2.180747,4.47801 -5.362079,4.77229 -1.708082,0.11772 -3.53508,0.35315 -5.302621,0.53033 -0.412005,0.0589 -0.588579,-0.11832 -0.588579,-0.47147 l -0.05886,-2.82818 c 0,-0.11832 0.05886,-0.23543 0.236032,-0.23543 0.117116,0 0.175974,0.0589 0.236033,0.17657 0.352547,0.53032 1.060043,1.06064 2.061229,1.06064 0.825213,0 1.296677,-0.47146 1.296677,-1.00118 0,-0.58918 -0.530322,-1.1195 -1.590967,-1.1195 -2.297862,0 -3.476222,1.59096 -6.008916,1.59096 -2.769326,0 -3.712254,-1.35553 -3.712254,-2.65161 0,-1.06064 0.588579,-1.70868 1.355534,-2.06183 -0.236032,0.29429 -0.295491,0.52972 -0.295491,0.94293 0,0.88347 1.061245,1.59037 2.946501,1.59037 1.76694,0 2.887043,-0.41201 4.241376,-0.41201 1.76694,0 2.828184,0.58858 3.299649,1.23722 -0.05886,-1.35554 -1.061245,-2.5339 -2.356721,-2.5339 -0.884671,0 -1.237218,0.53033 -1.355534,0.76636 -0.05886,0.17657 -0.177175,0.23543 -0.29429,0.23543 -0.118316,0 -0.236032,-0.0589 -0.236032,-0.17597 l -0.29429,-2.9465 c -0.05946,-0.35255 0.117115,-0.52973 0.588579,-0.58858 l 3.005359,-0.23543 c 0.529722,1.47265 0.884071,2.29726 1.649224,2.29726 0.413207,0 0.588579,-0.47147 0.588579,-0.88347 0.648039,-0.17658 1.296677,-0.17658 1.944715,-0.11832 -0.766354,-0.53032 -3.299048,-0.23603 -4.066003,-1.29547 1.237819,-0.0595 2.180747,-0.11832 3.181933,-0.11832 1.001185,0 1.885256,0 2.709868,0.11832 0.942328,0.11711 1.885256,0.64803 1.885256,1.64982 0,0.64804 -0.353148,1.1189 -1.001186,1.1189 -0.236032,0 -0.413207,-0.0595 -0.648038,-0.23543 0.05946,0.47146 0.530923,0.76575 1.002387,0.76575 0.765153,0 1.295475,-0.47146 1.295475,-1.47325 0,-0.53032 -0.117115,-1.1195 -0.530322,-1.59036 1.237218,1.00118 2.002972,2.76872 2.002972,4.83055 0,3.59394 -1.295475,5.4798 -5.30202,6.89359 -2.063031,0.7069 -3.712255,1.17836 -5.774685,1.94411 -3.357906,1.23722 -5.360278,3.53508 -5.360278,6.77527 0,2.23901 1.118902,4.7723 3.475622,5.95066 -3.593338,-0.47086 -6.127232,-3.71165 -6.127232,-7.30559 z m 3.53508,1.53151 c 0,-3.18073 1.768141,-5.06659 5.184905,-6.36267 1.885256,-0.70689 3.712255,-1.23721 5.420337,-1.76694 4.183118,-1.47325 5.655768,-3.65339 5.655768,-7.54162 0,-1.64982 -0.471464,-3.24079 -1.237218,-4.18312 1.296676,1.1195 2.35672,2.82819 2.35672,5.77409 0,3.06361 -0.88407,6.18669 -5.126047,7.77705 -2.002371,0.76636 -3.121873,1.17836 -5.243162,2.06183 -3.299048,1.41379 -4.359092,3.29965 -4.359092,5.83295 0,2.41497 1.295476,3.77051 2.296662,4.59512 -2.415579,-0.41261 -4.948873,-2.88704 -4.948873,-6.18669 z m 3.53448,1.64982 c 0,-2.35672 1.119502,-3.94708 4.006545,-5.30202 1.826998,-0.82521 3.181932,-1.1195 5.303221,-2.00357 4.183118,-1.64982 5.243162,-4.7717 5.243162,-8.36564 0,-1.23781 -0.177174,-2.71107 -0.824612,-3.94768 0.88347,1.06064 1.944114,2.71047 1.944114,5.95066 0,3.3585 -1.119502,6.48158 -4.831757,8.30737 -1.766939,0.82462 -2.9453,1.29608 -4.948872,2.23901 -2.297262,1.17836 -3.593939,2.82818 -3.593939,4.7723 0,1.53211 0.707497,2.71047 1.355535,3.3585 -2.239004,-0.64863 -3.653397,-2.76932 -3.653397,-5.00893 z m 5.362079,-23.27171 c -1.17836,0 -2.35672,0.0595 -3.593338,0.17657 l -1.590966,-3.12247 2.711069,0 c 0,0.7069 0.529722,1.23722 1.17836,1.23722 0.646837,0 1.178361,-0.52972 1.178361,-1.23722 l 2.414977,0 c 0,0.76575 0.471464,1.23722 1.17836,1.23722 0.648038,0 1.178361,-0.64804 1.178361,-1.23722 l 2.709868,0 -1.825798,3.24079 c -1.473851,-0.17717 -3.359708,-0.29489 -5.539254,-0.29489 z m -2.179546,24.9804 c 0,-1.64923 1.119503,-3.00416 3.121874,-4.06541 1.413792,-0.70749 2.592152,-1.17836 4.948872,-2.35672 3.712255,-1.8264 5.126047,-4.83055 5.126047,-8.89656 0,-1.06064 -0.177174,-1.94411 -0.354349,-3.00415 0.648639,1.29547 1.178361,2.82818 1.178361,4.77229 0,3.88823 -1.354334,7.65874 -5.242562,9.66232 -1.649824,0.82461 -2.592152,1.35493 -3.82937,1.94351 -1.885857,0.82521 -2.769327,2.12069 -2.769327,3.6534 0,1.17836 0.29429,1.8264 0.58918,2.35672 -1.708682,-0.47147 -2.768726,-2.00297 -2.768726,-4.0654 z m 3.004759,10.01606 c 0,-0.58858 0.175973,-0.94233 0.88347,-1.06065 -0.824612,-1.8258 -1.47265,-3.00416 -1.944115,-3.77051 -0.177174,-0.29429 0,-0.47086 0.236033,-0.47086 0.354349,0 0.648038,0.11771 0.88407,0.47086 0.413207,0.53092 0.942328,1.35493 1.355535,2.12129 0.765153,1.35433 1.237218,2.65101 1.295475,4.53687 l -0.588579,0 c -1.238419,0 -2.121889,-0.88408 -2.121889,-1.827 z m 4.182518,16.909653 c 0,-0.41321 0.06006,-0.64864 0.236032,-1.06125 -0.29429,-0.35315 -0.530322,-0.94293 -0.530322,-1.64982 0,-0.7069 0.354349,-1.472653 1.119502,-1.943523 -0.236032,-1.76754 1.17836,-2.9459 2.769327,-2.9459 1.766939,0 2.65101,1.23782 2.945299,2.47444 0.235432,0.88407 0.58918,1.17836 1.001186,1.23722 0.766355,0.11831 2.003573,0 2.475037,-0.11712 0.529721,-0.11832 0.765153,-0.41321 0.765153,-1.29668 0,-1.47265 -0.412606,-3.41616 -0.765153,-5.06658 -0.884071,0.11711 -3.064217,0.23603 -4.713441,0.23603 -3.653397,0 -5.715227,-1.64983 -6.068975,-5.24376 -0.117115,-1.47326 -0.412606,-2.88765 -1.295475,-4.47741 -0.648038,-1.23782 -2.120688,-2.88765 -2.120688,-5.00833 0,-1.59037 0.588579,-2.5333 2.414977,-3.41677 1.295476,-0.58918 2.828185,-1.29607 4.12366,-2.06243 -0.05886,2.06243 1.17836,4.83116 2.769327,6.00952 1.76754,1.29607 3.417364,1.64982 5.832943,1.64982 2.769326,0 5.420336,-0.82461 6.834727,-2.47443 -0.82581,0.53032 -1.944112,0.82461 -3.358505,0.82461 -4.360293,0 -7.129619,-3.35851 -7.129619,-6.95185 0,-2.59215 1.413792,-4.89061 3.770512,-6.83412 1.944715,-1.59097 3.712255,-2.59216 5.067789,-3.94769 0.884073,-0.88347 1.649823,-1.94412 1.649823,-3.18073 0,-1.47325 -1.00178,-2.88705 -2.063029,-3.29965 0.58978,-0.7069 1.768139,-1.35494 2.828189,-1.35494 1.76754,0 3.41736,1.29608 3.41736,3.00476 0,1.29548 -0.76635,2.29726 -1.76754,2.76873 0.0589,1.00179 -0.58858,2.29786 -1.35554,3.12307 -1.47265,1.59037 -4.182513,3.29965 -5.950053,4.71344 -1.76694,1.4138 -2.709868,2.88705 -2.709868,4.89002 0,2.65161 2.120688,4.59512 4.830556,4.59512 2.533895,0 4.713445,-1.94351 4.713445,-4.65458 0,-2.47384 -1.76694,-4.30083 -4.477413,-5.53745 l 2.239603,-1.59097 c 2.41498,1.41379 5.06659,3.35791 5.06659,7.54163 0,5.77348 -4.65458,10.84067 -12.196207,10.84067 -2.357321,0 -3.004158,-0.29429 -4.478009,-0.88407 0.942328,0.88407 1.944714,2.18015 2.003572,3.77051 1.178961,0.35375 2.002972,0.53032 4.536867,0.53032 1.119502,0 2.65101,-0.17657 3.889429,-0.53032 0.882868,-0.23603 1.413788,-0.58858 1.708078,-1.00178 0.29429,0.47146 0.47147,1.00178 0.47147,1.47265 0,1.35553 -1.00119,2.41557 -2.062432,2.65161 0.412602,4.18311 0.765152,8.36623 0.765152,12.136753 0,2.82818 -1.413791,4.53686 -3.416162,4.53686 0.117115,-0.11711 0.177174,-0.29429 0.177174,-0.47146 0,-1.1189 -1.238419,-1.64922 -2.121288,-1.64922 -1.767541,0 -2.710469,1.41379 -4.654583,1.41379 -1.708682,0 -2.414978,-1.41379 -3.712255,-1.41379 -0.824011,0 -1.413792,0.53032 -1.413792,1.23781 0,0.35315 0.118317,0.64744 0.354349,0.94233 -1.120103,-0.002 -2.416779,-1.06244 -2.416779,-2.53509 z m 2.297862,-3.18254 c -1.119502,0 -1.708682,0.88467 -1.590966,1.59097 0.236032,-0.29429 0.707496,-0.7069 1.649824,-0.7069 0.766354,0 1.355535,0.35315 1.709883,0.76516 -6e-4,-0.82341 -0.590381,-1.64923 -1.768741,-1.64923 z m 0.530322,-2.709873 c -0.942928,0 -1.413792,0.53033 -1.47265,1.00179 0.236033,-0.11772 0.58918,-0.23603 1.119502,-0.23603 0.942328,0 1.708683,0.53032 1.943514,1.06064 0.118917,-0.94233 -0.470864,-1.8264 -1.590366,-1.8264 z m 7.365652,-38.35436 c -0.884671,-0.47146 -1.649824,-1.47265 -1.649824,-2.65101 0,-1.70868 1.472649,-3.00476 3.239589,-3.00476 1.355535,0 2.298463,0.64864 2.888244,1.35494 -1.119502,0.58858 -2.003573,2.00237 -2.003573,3.29965 0,1.70868 0.884071,2.76872 1.708082,3.65219 l -2.179546,1.59097 c -1.237819,-1.1201 -2.002972,-2.59275 -2.002972,-4.24198 z" stroke="none" stroke-opacity="1" stroke-width="1"/>
	<rect fill="#0065bd" fill-opacity="1" height="85.12" id="3" rx="0" ry="0" stroke="#ffffff" stroke-opacity="1" stroke-width="1" width="85.12" x="116.04" y="26.55"/>
	<path d="m 143.79362,38.853497 0,13.42922 5.55787,0 0,-13.42922 4.79152,0 0,-4.09904 -15.16914,0 0,4.09904 4.81975,0 z m 17.72285,-4.09904 -5.55728,0 0,11.05869 c 0,4.89722 3.77052,6.88157 8.30858,6.88157 4.53627,0 8.30678,-1.98435 8.30678,-6.88157 l 0,-11.05869 -5.55667,0 0,10.59383 c 0,1.98496 -1.19097,2.86182 -2.75011,2.86182 -1.56033,0 -2.7513,-0.87626 -2.7513,-2.86182 l 0,-10.59383 z m -39.69248,8.76383 c 0,5.59391 4.33807,9.04791 10.00885,9.04791 2.29666,0 4.22456,-0.54114 5.3873,-1.08227 l 0,-4.40834 c -1.10568,0.54174 -2.38254,1.00599 -4.39452,1.00599 -2.01318,0 -4.93386,-1.39277 -4.93386,-4.56329 0,-3.16992 2.66482,-4.66539 5.24496,-4.66539 1.75854,0 2.97774,0.36095 4.0558,0.85043 l 0,-4.35609 c -1.13512,-0.46425 -2.55192,-0.82461 -4.82095,-0.82461 -5.69841,0 -10.54758,3.40235 -10.54758,8.99566 m 40.30568,56.763093 3.58673,0 0,1.18616 -2.08826,0 0,0.83363 2.01919,0 0,1.15493 -2.01919,0 0,0.84083 2.08826,0 0,1.18557 -3.58673,0 0,-5.20112 z m -5.97108,3.28163 0,-3.28163 1.49968,0 0,3.14349 c 0,0.58858 0.32071,0.84864 0.74173,0.84864 0.41981,0 0.74113,-0.26006 0.74113,-0.84864 l 0,-3.14349 1.49907,0 0,3.28163 c 0,1.45283 -1.0174,2.04081 -2.2402,2.04081 -1.22341,0 -2.24141,-0.58798 -2.24141,-2.04081 z m -5.93084,-0.68107 c 0,-1.69787 1.18617,-2.79095 2.95131,-2.79095 0.68887,0 1.19337,0.19039 1.49967,0.32852 l 0,1.22341 c -0.28288,-0.15255 -0.74233,-0.33693 -1.27745,-0.33693 -0.97176,0 -1.53692,0.52071 -1.53692,1.57595 0,0.97896 0.64143,1.4222 1.22281,1.4222 0.11471,0 0.22942,-0.015 0.33753,-0.0378 l 0,-1.40719 1.46064,0 0,2.30207 c -0.31291,0.16096 -0.95614,0.44264 -1.88226,0.44264 -1.45163,0 -2.77533,-1.02461 -2.77533,-2.72188 z m -2.39035,1.5219 -1.66004,0 -0.28348,1.07806 -1.53691,0 1.55253,-5.20052 2.19456,0 1.56034,5.20052 -1.53812,0 -0.28888,-1.07806 z m -0.28288,-1.06305 -0.51291,-1.91949 -0.0679,0 -0.51291,1.91949 1.09368,0 z m -7.97405,-3.05941 2.38675,0 c 1.21499,0 1.95793,0.78016 1.95793,1.71348 0,0.88768 -0.65044,1.27746 -1.1093,1.48406 l -0.008,0.0306 c 0.0679,0.0456 0.19098,0.19879 0.29008,0.36696 l 0.95674,1.60598 -1.69006,0 -0.90329,-1.8276 -0.38198,0 0,1.8276 -1.49907,0 0,-5.20112 z m 2.10267,2.40176 c 0.4054,0 0.64263,-0.32131 0.64263,-0.64984 0,-0.32912 -0.23783,-0.64263 -0.64263,-0.64263 l -0.6036,0 0,1.29247 0.6036,0 z m -7.43833,-2.40176 2.26423,0 c 1.2156,0 1.97295,0.83422 1.97295,1.78976 0,0.95554 -0.75735,1.7279 -1.97295,1.7279 l -0.76395,0 0,1.68286 -1.49967,0 0,-5.20052 z m 2.08826,2.40176 c 0.32852,0 0.62702,-0.26786 0.62702,-0.64263 0,-0.36636 -0.2985,-0.64203 -0.62702,-0.64203 l -0.58798,0 0,1.28526 0.58798,0 z m -10.4575,-2.40176 1.84262,0 1.55973,3.10565 0.0234,0 0,-3.10565 1.49967,0 0,5.20052 -1.8288,0 -1.57535,-3.12007 -0.0222,0 0,3.12007 -1.49908,0 0,-5.20052 z m -3.02758,0 1.49908,0 0,5.20052 -1.49908,0 0,-5.20052 z m 44.92243,-5.983103 -1.75853,-3.29604 1.69787,0 0.81741,1.85883 0.0312,0 0.84863,-1.85883 1.65944,0 -1.79697,3.29604 0,1.90448 -1.49908,0 0,-1.90448 z m -4.80052,-2.08044 -1.29968,0 0,-1.2156 4.09122,0 0,1.2156 -1.29247,0 0,3.98492 -1.49907,0 0,-3.98492 z m -3.79934,-1.2156 1.49907,0 0,5.20052 -1.49907,0 0,-5.20052 z m -5.20533,4.92545 0,-1.36214 c 0.33633,0.23723 1.03242,0.53633 1.72009,0.53633 0.5057,0 0.78077,-0.14595 0.78077,-0.406 0,-0.20661 -0.19038,-0.2979 -0.47446,-0.36697 -0.33634,-0.0841 -0.54294,-0.13032 -0.93332,-0.23002 -0.7027,-0.17537 -1.15494,-0.67987 -1.15494,-1.48346 0,-1.05584 0.95674,-1.73631 2.24861,-1.73631 0.61261,0 1.16275,0.12252 1.49968,0.26786 l 0,1.29187 c -0.26066,-0.14534 -0.78798,-0.34413 -1.4228,-0.34413 -0.58137,0 -0.84083,0.14534 -0.84083,0.37476 0,0.1988 0.15255,0.2985 0.5045,0.37477 0.26005,0.0534 0.45104,0.0847 0.79518,0.16877 0.84864,0.206 1.28527,0.70329 1.28527,1.55193 0,0.86425 -0.78798,1.75913 -2.21078,1.75913 -0.77957,6e-4 -1.37656,-0.16036 -1.79697,-0.39639 z m -5.36568,-4.92545 2.38615,0 c 1.21619,0 1.95792,0.78017 1.95792,1.71349 0,0.88707 -0.64923,1.27745 -1.10809,1.48346 l -0.009,0.0306 c 0.0691,0.0457 0.19159,0.19879 0.29129,0.36756 l 0.95554,1.60598 -1.69006,0 -0.90209,-1.8282 -0.38198,0 0,1.8282 -1.49967,0 0,-5.20112 z m 2.10267,2.40116 c 0.4054,0 0.64263,-0.32071 0.64263,-0.64984 0,-0.32912 -0.23783,-0.64203 -0.64263,-0.64203 l -0.6036,0 0,1.29187 0.6036,0 z m -7.05635,-2.40116 3.58733,0 0,1.18557 -2.08765,0 0,0.83362 2.01798,0 0,1.15493 -2.01798,0 0,0.84143 2.08765,0 0,1.18557 -3.58733,0 0,-5.20112 z m -6.12303,0 1.68286,0 0.88767,3.89243 0.0312,0 0.88768,-3.89243 1.68285,0 -1.56033,5.20052 -2.04982,0 -1.56214,-5.20052 z m -2.29966,0 1.49907,0 0,5.20052 -1.49907,0 0,-5.20052 z m -6.45035,0 1.84201,0 1.56034,3.10506 0.0234,0 0,-3.10506 1.49848,0 0,5.20052 -1.8276,0 -1.57535,-3.12007 -0.0234,0 0,3.12007 -1.49787,0 0,-5.20052 z m -5.96267,3.28103 0,-3.28103 1.49847,0 0,3.14349 c 0,0.58798 0.32072,0.84864 0.74173,0.84864 0.42042,0 0.74233,-0.26066 0.74233,-0.84864 l 0,-3.14349 1.49788,0 0,3.28103 c 0,1.45283 -1.0168,2.04141 -2.24021,2.04141 -1.224,0 -2.2402,-0.58858 -2.2402,-2.04141 z m 68.13588,-12.56137 1.49908,0 0,3.96931 1.85762,0 0,1.23121 -3.3567,0 0,-5.20052 z m -2.61978,4.12306 -1.65943,0 -0.28408,1.07806 -1.53692,0 1.55253,-5.20052 2.19456,0 1.56034,5.20052 -1.53812,0 -0.28888,-1.07806 z m -0.28288,-1.06365 -0.5129,-1.91949 -0.0679,0 -0.5129,1.91949 1.09367,0 z m -7.99747,-0.45825 c 0,-1.65943 1.30869,-2.66902 2.845,-2.66902 0.612,0 0.99458,0.1075 1.29968,0.24444 l 0,1.29247 c -0.29009,-0.14534 -0.61921,-0.25225 -1.09308,-0.25225 -0.69608,0 -1.41439,0.44324 -1.41439,1.38436 0,0.93993 0.78798,1.35374 1.33091,1.35374 0.54233,0 0.88707,-0.13754 1.18617,-0.2979 l 0,1.30749 c -0.31351,0.16096 -0.83422,0.32132 -1.45403,0.32132 -1.52971,-6e-4 -2.70026,-1.02521 -2.70026,-2.68465 z m -2.72128,-2.60116 1.49907,0 0,5.20052 -1.49907,0 0,-5.20052 z m -6.45095,0 1.84261,0 1.56034,3.10566 0.0234,0 0,-3.10566 1.49788,0 0,5.20052 -1.8276,0 -1.57535,-3.12007 -0.0234,0 0,3.12007 -1.49787,0 0,-5.20052 z m -4.56269,0 0,1.98916 1.53811,0 0,-1.98916 1.49787,0 0,5.20052 -1.49787,0 0,-2.0342 -1.53811,0 0,2.0342 -1.49908,0 0,-5.20052 1.49908,0 z m -6.78128,2.60116 c 0,-1.65943 1.30869,-2.66902 2.845,-2.66902 0.6126,0 0.99518,0.1075 1.30028,0.24444 l 0,1.29247 c -0.29009,-0.14534 -0.61981,-0.25225 -1.09308,-0.25225 -0.69608,0 -1.41499,0.44324 -1.41499,1.38436 0,0.93993 0.78798,1.35374 1.33091,1.35374 0.54294,0 0.88768,-0.13754 1.18617,-0.2979 l 0,1.30749 c -0.31291,0.16096 -0.83422,0.32132 -1.45343,0.32132 -1.52971,-6e-4 -2.70086,-1.02521 -2.70086,-2.68465 z m -4.66179,-2.60116 3.58613,0 0,1.18617 -2.08705,0 0,0.83362 2.01858,0 0,1.15494 -2.01858,0 0,0.84083 2.08705,0 0,1.18556 -3.58613,0 0,-5.20112 z m -3.7603,1.2168 -1.30088,0 0,-1.2162 4.09122,0 0,1.2162 -1.29247,0 0,3.98432 -1.49787,0 0,-3.98432 z m -7.0095,-1.2168 0,1.98916 1.53811,0 0,-1.98916 1.49787,0 0,5.20052 -1.49787,0 0,-2.0342 -1.53811,0 0,2.0342 -1.49908,0 0,-5.20052 1.49908,0 z m -6.78128,2.60116 c 0,-1.65943 1.30809,-2.66902 2.845,-2.66902 0.6126,0 0.99398,0.1075 1.30028,0.24444 l 0,1.29247 c -0.29008,-0.14534 -0.61981,-0.25225 -1.09308,-0.25225 -0.69608,0 -1.41499,0.44324 -1.41499,1.38436 0,0.93993 0.78738,1.35374 1.33091,1.35374 0.54294,0 0.88768,-0.13754 1.18497,-0.2979 l 0,1.30749 c -0.31291,0.16096 -0.83302,0.32132 -1.45223,0.32132 -1.53031,-6e-4 -2.70086,-1.02521 -2.70086,-2.68465 z m -4.66119,-2.60116 3.58613,0 0,1.18617 -2.08705,0 0,0.83362 2.01858,0 0,1.15494 -2.01858,0 0,0.84083 2.08705,0 0,1.18556 -3.58613,0 0,-5.20112 z m -5.22154,4.05399 2.17174,-2.83719 -2.1261,0 0,-1.2162 3.99994,0 0,1.09368 -2.21077,2.89065 2.24861,0 0,1.21559 -4.08402,0 0,-1.14653 z m -4.89242,-1.45283 c 0,-1.65943 1.30869,-2.66902 2.845,-2.66902 0.61261,0 0.99458,0.1075 1.30088,0.24444 l 0,1.29247 c -0.29068,-0.14534 -0.61921,-0.25225 -1.09367,-0.25225 -0.69609,0 -1.415,0.44324 -1.415,1.38436 0,0.93993 0.78798,1.35374 1.33091,1.35374 0.54294,0 0.88768,-0.13754 1.18617,-0.2979 l 0,1.30749 c -0.31351,0.16096 -0.83422,0.32132 -1.45343,0.32132 -1.5297,-6e-4 -2.70086,-1.02521 -2.70086,-2.68465 z" fill="#ffffff" fill-opacity="1" id="4" path="m 143.79362,38.853497 0,13.42922 5.55787,0 0,-13.42922 4.79152,0 0,-4.09904 -15.16914,0 0,4.09904 4.81975,0 z m 17.72285,-4.09904 -5.55728,0 0,11.05869 c 0,4.89722 3.77052,6.88157 8.30858,6.88157 4.53627,0 8.30678,-1.98435 8.30678,-6.88157 l 0,-11.05869 -5.55667,0 0,10.59383 c 0,1.98496 -1.19097,2.86182 -2.75011,2.86182 -1.56033,0 -2.7513,-0.87626 -2.7513,-2.86182 l 0,-10.59383 z m -39.69248,8.76383 c 0,5.59391 4.33807,9.04791 10.00885,9.04791 2.29666,0 4.22456,-0.54114 5.3873,-1.08227 l 0,-4.40834 c -1.10568,0.54174 -2.38254,1.00599 -4.39452,1.00599 -2.01318,0 -4.93386,-1.39277 -4.93386,-4.56329 0,-3.16992 2.66482,-4.66539 5.24496,-4.66539 1.75854,0 2.97774,0.36095 4.0558,0.85043 l 0,-4.35609 c -1.13512,-0.46425 -2.55192,-0.82461 -4.82095,-0.82461 -5.69841,0 -10.54758,3.40235 -10.54758,8.99566 m 40.30568,56.763093 3.58673,0 0,1.18616 -2.08826,0 0,0.83363 2.01919,0 0,1.15493 -2.01919,0 0,0.84083 2.08826,0 0,1.18557 -3.58673,0 0,-5.20112 z m -5.97108,3.28163 0,-3.28163 1.49968,0 0,3.14349 c 0,0.58858 0.32071,0.84864 0.74173,0.84864 0.41981,0 0.74113,-0.26006 0.74113,-0.84864 l 0,-3.14349 1.49907,0 0,3.28163 c 0,1.45283 -1.0174,2.04081 -2.2402,2.04081 -1.22341,0 -2.24141,-0.58798 -2.24141,-2.04081 z m -5.93084,-0.68107 c 0,-1.69787 1.18617,-2.79095 2.95131,-2.79095 0.68887,0 1.19337,0.19039 1.49967,0.32852 l 0,1.22341 c -0.28288,-0.15255 -0.74233,-0.33693 -1.27745,-0.33693 -0.97176,0 -1.53692,0.52071 -1.53692,1.57595 0,0.97896 0.64143,1.4222 1.22281,1.4222 0.11471,0 0.22942,-0.015 0.33753,-0.0378 l 0,-1.40719 1.46064,0 0,2.30207 c -0.31291,0.16096 -0.95614,0.44264 -1.88226,0.44264 -1.45163,0 -2.77533,-1.02461 -2.77533,-2.72188 z m -2.39035,1.5219 -1.66004,0 -0.28348,1.07806 -1.53691,0 1.55253,-5.20052 2.19456,0 1.56034,5.20052 -1.53812,0 -0.28888,-1.07806 z m -0.28288,-1.06305 -0.51291,-1.91949 -0.0679,0 -0.51291,1.91949 1.09368,0 z m -7.97405,-3.05941 2.38675,0 c 1.21499,0 1.95793,0.78016 1.95793,1.71348 0,0.88768 -0.65044,1.27746 -1.1093,1.48406 l -0.008,0.0306 c 0.0679,0.0456 0.19098,0.19879 0.29008,0.36696 l 0.95674,1.60598 -1.69006,0 -0.90329,-1.8276 -0.38198,0 0,1.8276 -1.49907,0 0,-5.20112 z m 2.10267,2.40176 c 0.4054,0 0.64263,-0.32131 0.64263,-0.64984 0,-0.32912 -0.23783,-0.64263 -0.64263,-0.64263 l -0.6036,0 0,1.29247 0.6036,0 z m -7.43833,-2.40176 2.26423,0 c 1.2156,0 1.97295,0.83422 1.97295,1.78976 0,0.95554 -0.75735,1.7279 -1.97295,1.7279 l -0.76395,0 0,1.68286 -1.49967,0 0,-5.20052 z m 2.08826,2.40176 c 0.32852,0 0.62702,-0.26786 0.62702,-0.64263 0,-0.36636 -0.2985,-0.64203 -0.62702,-0.64203 l -0.58798,0 0,1.28526 0.58798,0 z m -10.4575,-2.40176 1.84262,0 1.55973,3.10565 0.0234,0 0,-3.10565 1.49967,0 0,5.20052 -1.8288,0 -1.57535,-3.12007 -0.0222,0 0,3.12007 -1.49908,0 0,-5.20052 z m -3.02758,0 1.49908,0 0,5.20052 -1.49908,0 0,-5.20052 z m 44.92243,-5.983103 -1.75853,-3.29604 1.69787,0 0.81741,1.85883 0.0312,0 0.84863,-1.85883 1.65944,0 -1.79697,3.29604 0,1.90448 -1.49908,0 0,-1.90448 z m -4.80052,-2.08044 -1.29968,0 0,-1.2156 4.09122,0 0,1.2156 -1.29247,0 0,3.98492 -1.49907,0 0,-3.98492 z m -3.79934,-1.2156 1.49907,0 0,5.20052 -1.49907,0 0,-5.20052 z m -5.20533,4.92545 0,-1.36214 c 0.33633,0.23723 1.03242,0.53633 1.72009,0.53633 0.5057,0 0.78077,-0.14595 0.78077,-0.406 0,-0.20661 -0.19038,-0.2979 -0.47446,-0.36697 -0.33634,-0.0841 -0.54294,-0.13032 -0.93332,-0.23002 -0.7027,-0.17537 -1.15494,-0.67987 -1.15494,-1.48346 0,-1.05584 0.95674,-1.73631 2.24861,-1.73631 0.61261,0 1.16275,0.12252 1.49968,0.26786 l 0,1.29187 c -0.26066,-0.14534 -0.78798,-0.34413 -1.4228,-0.34413 -0.58137,0 -0.84083,0.14534 -0.84083,0.37476 0,0.1988 0.15255,0.2985 0.5045,0.37477 0.26005,0.0534 0.45104,0.0847 0.79518,0.16877 0.84864,0.206 1.28527,0.70329 1.28527,1.55193 0,0.86425 -0.78798,1.75913 -2.21078,1.75913 -0.77957,6e-4 -1.37656,-0.16036 -1.79697,-0.39639 z m -5.36568,-4.92545 2.38615,0 c 1.21619,0 1.95792,0.78017 1.95792,1.71349 0,0.88707 -0.64923,1.27745 -1.10809,1.48346 l -0.009,0.0306 c 0.0691,0.0457 0.19159,0.19879 0.29129,0.36756 l 0.95554,1.60598 -1.69006,0 -0.90209,-1.8282 -0.38198,0 0,1.8282 -1.49967,0 0,-5.20112 z m 2.10267,2.40116 c 0.4054,0 0.64263,-0.32071 0.64263,-0.64984 0,-0.32912 -0.23783,-0.64203 -0.64263,-0.64203 l -0.6036,0 0,1.29187 0.6036,0 z m -7.05635,-2.40116 3.58733,0 0,1.18557 -2.08765,0 0,0.83362 2.01798,0 0,1.15493 -2.01798,0 0,0.84143 2.08765,0 0,1.18557 -3.58733,0 0,-5.20112 z m -6.12303,0 1.68286,0 0.88767,3.89243 0.0312,0 0.88768,-3.89243 1.68285,0 -1.56033,5.20052 -2.04982,0 -1.56214,-5.20052 z m -2.29966,0 1.49907,0 0,5.20052 -1.49907,0 0,-5.20052 z m -6.45035,0 1.84201,0 1.56034,3.10506 0.0234,0 0,-3.10506 1.49848,0 0,5.20052 -1.8276,0 -1.57535,-3.12007 -0.0234,0 0,3.12007 -1.49787,0 0,-5.20052 z m -5.96267,3.28103 0,-3.28103 1.49847,0 0,3.14349 c 0,0.58798 0.32072,0.84864 0.74173,0.84864 0.42042,0 0.74233,-0.26066 0.74233,-0.84864 l 0,-3.14349 1.49788,0 0,3.28103 c 0,1.45283 -1.0168,2.04141 -2.24021,2.04141 -1.224,0 -2.2402,-0.58858 -2.2402,-2.04141 z m 68.13588,-12.56137 1.49908,0 0,3.96931 1.85762,0 0,1.23121 -3.3567,0 0,-5.20052 z m -2.61978,4.12306 -1.65943,0 -0.28408,1.07806 -1.53692,0 1.55253,-5.20052 2.19456,0 1.56034,5.20052 -1.53812,0 -0.28888,-1.07806 z m -0.28288,-1.06365 -0.5129,-1.91949 -0.0679,0 -0.5129,1.91949 1.09367,0 z m -7.99747,-0.45825 c 0,-1.65943 1.30869,-2.66902 2.845,-2.66902 0.612,0 0.99458,0.1075 1.29968,0.24444 l 0,1.29247 c -0.29009,-0.14534 -0.61921,-0.25225 -1.09308,-0.25225 -0.69608,0 -1.41439,0.44324 -1.41439,1.38436 0,0.93993 0.78798,1.35374 1.33091,1.35374 0.54233,0 0.88707,-0.13754 1.18617,-0.2979 l 0,1.30749 c -0.31351,0.16096 -0.83422,0.32132 -1.45403,0.32132 -1.52971,-6e-4 -2.70026,-1.02521 -2.70026,-2.68465 z m -2.72128,-2.60116 1.49907,0 0,5.20052 -1.49907,0 0,-5.20052 z m -6.45095,0 1.84261,0 1.56034,3.10566 0.0234,0 0,-3.10566 1.49788,0 0,5.20052 -1.8276,0 -1.57535,-3.12007 -0.0234,0 0,3.12007 -1.49787,0 0,-5.20052 z m -4.56269,0 0,1.98916 1.53811,0 0,-1.98916 1.49787,0 0,5.20052 -1.49787,0 0,-2.0342 -1.53811,0 0,2.0342 -1.49908,0 0,-5.20052 1.49908,0 z m -6.78128,2.60116 c 0,-1.65943 1.30869,-2.66902 2.845,-2.66902 0.6126,0 0.99518,0.1075 1.30028,0.24444 l 0,1.29247 c -0.29009,-0.14534 -0.61981,-0.25225 -1.09308,-0.25225 -0.69608,0 -1.41499,0.44324 -1.41499,1.38436 0,0.93993 0.78798,1.35374 1.33091,1.35374 0.54294,0 0.88768,-0.13754 1.18617,-0.2979 l 0,1.30749 c -0.31291,0.16096 -0.83422,0.32132 -1.45343,0.32132 -1.52971,-6e-4 -2.70086,-1.02521 -2.70086,-2.68465 z m -4.66179,-2.60116 3.58613,0 0,1.18617 -2.08705,0 0,0.83362 2.01858,0 0,1.15494 -2.01858,0 0,0.84083 2.08705,0 0,1.18556 -3.58613,0 0,-5.20112 z m -3.7603,1.2168 -1.30088,0 0,-1.2162 4.09122,0 0,1.2162 -1.29247,0 0,3.98432 -1.49787,0 0,-3.98432 z m -7.0095,-1.2168 0,1.98916 1.53811,0 0,-1.98916 1.49787,0 0,5.20052 -1.49787,0 0,-2.0342 -1.53811,0 0,2.0342 -1.49908,0 0,-5.20052 1.49908,0 z m -6.78128,2.60116 c 0,-1.65943 1.30809,-2.66902 2.845,-2.66902 0.6126,0 0.99398,0.1075 1.30028,0.24444 l 0,1.29247 c -0.29008,-0.14534 -0.61981,-0.25225 -1.09308,-0.25225 -0.69608,0 -1.41499,0.44324 -1.41499,1.38436 0,0.93993 0.78738,1.35374 1.33091,1.35374 0.54294,0 0.88768,-0.13754 1.18497,-0.2979 l 0,1.30749 c -0.31291,0.16096 -0.83302,0.32132 -1.45223,0.32132 -1.53031,-6e-4 -2.70086,-1.02521 -2.70086,-2.68465 z m -4.66119,-2.60116 3.58613,0 0,1.18617 -2.08705,0 0,0.83362 2.01858,0 0,1.15494 -2.01858,0 0,0.84083 2.08705,0 0,1.18556 -3.58613,0 0,-5.20112 z m -5.22154,4.05399 2.17174,-2.83719 -2.1261,0 0,-1.2162 3.99994,0 0,1.09368 -2.21077,2.89065 2.24861,0 0,1.21559 -4.08402,0 0,-1.14653 z m -4.89242,-1.45283 c 0,-1.65943 1.30869,-2.66902 2.845,-2.66902 0.61261,0 0.99458,0.1075 1.30088,0.24444 l 0,1.29247 c -0.29068,-0.14534 -0.61921,-0.25225 -1.09367,-0.25225 -0.69609,0 -1.415,0.44324 -1.415,1.38436 0,0.93993 0.78798,1.35374 1.33091,1.35374 0.54294,0 0.88768,-0.13754 1.18617,-0.2979 l 0,1.30749 c -0.31351,0.16096 -0.83422,0.32132 -1.45343,0.32132 -1.5297,-6e-4 -2.70086,-1.02521 -2.70086,-2.68465 z" stroke="none" stroke-opacity="1" stroke-width="1"/>
</svg>
