<?xml version="1.0" encoding="UTF-8"?>
<svg xmlns="http://www.w3.org/2000/svg" width="126.313" height="96.181999">
  <path fill="#000000" d="m 16.883,24.93 c -2.65,-1.472 -5.3,-4.613 -5.3,-9.324 0,-5.692 4.613,-10.011 10.207,-10.011 3.435,0 5.987,1.374 7.95,3.533 0.687,-0.393 1.472,-0.589 2.355,-0.589 1.57,0 2.846,0.785 3.533,1.57 0.491,-0.196 0.981,-0.294 1.668,-0.294 2.061,0 4.024,1.57 4.024,4.024 0,1.767 -0.981,3.141 -1.963,4.122 -0.491,0.491 -0.687,0.785 -0.785,1.472 -0.196,1.57 0.294,3.828 1.178,5.104 0.491,0.687 0.981,1.08 2.257,0.981 3.141,-0.196 8.735,-0.687 14.525,-0.687 4.907,0 8.44,0.098 10.404,0 3.729,-1.178 7.36,-2.257 11.679,-3.337 1.57,-0.393 4.024,-0.883 5.202,-2.257 -1.178,0.687 -3.338,1.178 -5.202,1.374 -2.649,0.393 -5.889,0.981 -7.753,1.276 -0.688,0.098 -1.08,-0.098 -1.08,-0.589 l -0.196,-5.005 c 0,-0.294 0.099,-0.393 0.294,-0.393 0.197,0 0.295,0.098 0.491,0.196 0.884,0.491 1.767,0.785 3.141,0.785 0.981,0 1.864,-0.393 1.864,-1.178 -0.098,-0.687 -0.785,-1.276 -2.061,-1.276 -3.436,0 -5.692,2.748 -9.913,2.748 -3.533,0 -5.791,-2.257 -5.791,-4.809 0,-1.865 1.08,-3.239 2.748,-3.926 -0.589,0.883 -0.785,1.472 -0.785,2.257 0,1.865 1.963,3.239 5.005,3.239 3.239,0 5.005,-0.785 7.459,-0.785 1.963,0 3.336,0.589 3.729,1.276 -0.098,-1.767 -1.373,-3.042 -3.336,-3.042 -0.982,0 -1.963,0.491 -2.355,1.178 -0.099,0.196 -0.197,0.294 -0.393,0.294 -0.197,0 -0.295,-0.098 -0.295,-0.294 L 68.7,6.871 C 68.602,6.184 68.897,5.595 69.78,5.497 L 73.706,5.104 71.154,0 76.159,0 c 0,0.981 0.688,1.668 1.473,1.668 0.785,0 1.473,-0.687 1.473,-1.668 l 4.22,0 c 0,0.981 0.589,1.668 1.472,1.668 0.688,0 1.375,-0.687 1.375,-1.668 l 5.104,0 -2.945,5.889 c 6.674,2.65 11.483,8.931 11.483,16.292 0,6.478 -2.159,10.109 -5.202,14.231 -0.883,1.079 -1.373,2.257 -1.373,4.809 0,5.692 5.104,10.305 11.777,10.305 3.238,0 5.594,-0.49 8.047,-1.668 -0.49,0.098 -1.079,0.098 -1.668,0.098 -6.281,0 -12.072,-5.005 -12.072,-11.777 0,-5.496 3.043,-9.127 7.066,-11.973 0.785,-0.589 1.669,-1.178 2.454,-1.767 -2.552,-2.159 -4.22,-4.417 -4.318,-7.263 -1.669,-0.589 -2.944,-2.061 -2.944,-4.122 0,-2.748 2.453,-5.104 5.496,-5.104 2.159,0 3.828,0.883 4.907,1.767 -1.767,1.276 -3.141,3.141 -3.141,5.594 0,2.748 1.864,4.809 4.22,6.379 2.355,-1.57 4.318,-3.631 4.318,-6.379 0,-2.454 -1.373,-4.318 -3.141,-5.594 1.08,-0.883 2.748,-1.767 4.908,-1.767 3.042,0 5.496,2.355 5.496,5.104 0,2.061 -1.276,3.533 -2.945,4.122 -0.098,3.042 -1.864,5.3 -4.612,7.557 5.202,4.024 9.226,7.852 9.226,13.838 0,9.227 -8.734,18.256 -21.788,18.256 -2.062,0 -3.337,-0.295 -4.515,-0.59 1.08,1.57 2.159,3.141 2.65,5.693 0.98,0.294 3.926,0.49 5.986,0.49 3.729,0 8.833,-1.374 10.109,-2.846 0.49,0.98 0.98,2.355 0.98,3.729 0,2.355 -1.766,3.73 -3.827,4.123 0.785,6.084 1.57,12.955 1.57,18.254 0,7.264 -2.454,10.109 -5.987,10.502 0.197,-0.196 0.295,-0.49 0.295,-0.883 0,-1.669 -1.57,-2.847 -3.337,-2.847 -2.944,0 -4.122,1.472 -7.165,1.472 -2.453,0 -3.336,-1.472 -5.496,-1.472 -1.373,0 -2.355,0.981 -2.355,2.159 0,0.589 0.197,1.08 0.59,1.57 -2.748,-0.098 -5.006,-2.552 -5.006,-5.104 0,-0.883 0.196,-1.57 0.589,-2.355 -0.687,-0.688 -1.276,-1.767 -1.276,-3.043 0,-1.57 1.178,-2.846 2.847,-3.238 0.196,-2.061 1.963,-3.631 4.122,-3.631 2.552,0 4.221,1.668 5.104,4.22 0.196,0.589 0.393,0.785 0.981,0.785 1.079,0.099 2.552,-0.099 3.435,-0.294 0.491,-0.099 0.785,-0.491 0.785,-0.884 -0.098,-2.847 -0.687,-6.87 -1.275,-9.226 -0.981,0.098 -3.926,0.295 -5.594,0.295 -4.318,0 -8.441,-1.865 -10.6,-6.772 -6.281,0.393 -12.562,0.294 -18.648,-0.294 -0.098,0.294 -0.098,0.49 -0.098,0.687 0,1.178 0.981,2.355 2.355,2.355 1.275,0 2.258,-0.491 2.748,-1.178 0.295,0.785 0.49,1.767 0.49,2.748 0,2.454 -1.864,4.024 -4.22,4.024 -0.491,0 -0.981,-0.099 -1.178,-0.197 -0.099,4.123 0.294,8.735 0.294,13.054 0,3.435 -1.963,7.165 -6.379,8.048 0.196,-0.196 0.294,-0.49 0.294,-0.883 0,-1.669 -1.57,-2.847 -3.337,-2.847 -2.944,0 -4.122,1.472 -7.165,1.472 -2.454,0 -3.337,-1.472 -5.496,-1.472 -1.374,0 -2.355,0.981 -2.355,2.159 0,0.589 0.196,1.08 0.589,1.57 -1.963,-0.098 -3.239,-1.374 -4.515,-2.453 l -3.729,-3.239 -6.87,-30.522 -2.846,-1.865 -0.981,-4.515 c -1.963,-1.374 -2.944,-2.944 -2.944,-5.005 0,-1.178 0.491,-2.062 1.08,-2.748 C 24.93,44.851 24.831,43.771 24.831,42.79 L 22.574,32.485 16.783,58.101 13.937,59.966 6.674,90.98 0,96.181 16.883,24.93 Z M 5.499,90.49 12.762,59.378 15.608,57.415 21.987,29.641 21.202,26.206 C 20.221,26.108 19.141,25.813 18.061,25.421 L 1.965,93.337 5.499,90.49 Z m 23.26,-50.151 c 0.196,0 0.393,0 0.687,0.098 0.098,-0.785 0.393,-1.374 0.785,-1.767 L 26.796,22.771 c 0.589,-0.393 1.276,-0.981 1.57,-1.472 -0.196,-1.472 -0.393,-3.337 -1.08,-4.515 -0.393,2.65 -2.65,4.22 -5.202,4.22 -2.748,0 -5.202,-2.257 -5.202,-5.202 0,-2.846 2.355,-5.104 5.202,-5.104 1.178,0 2.257,0.393 3.239,1.08 0.883,-0.687 1.963,-0.883 2.944,-0.883 0.098,-0.294 0.294,-0.589 0.491,-0.883 C 26.991,7.951 24.734,6.97 21.79,6.97 c -5.005,0 -8.931,3.926 -8.931,8.735 0,5.005 3.926,9.029 8.735,9.029 l 0.589,0 3.729,16.979 c 0.393,-0.589 1.375,-1.374 2.847,-1.374 z M 26.207,16.685 c 0,-0.393 -0.294,-0.589 -0.687,-0.589 -0.687,0 -1.178,0.589 -1.472,1.472 -0.294,-0.785 -0.491,-1.472 -0.491,-2.159 0,-0.981 0.294,-1.963 0.883,-2.748 -0.687,-0.491 -1.374,-0.687 -2.159,-0.687 -2.159,0 -3.926,1.668 -3.926,3.828 0,2.16 1.767,3.926 3.926,3.926 2.061,0 3.926,-1.767 3.926,-3.043 z m 31.308,19.237 c 0.294,-3.435 2.355,-7.459 6.674,-9.618 -2.355,-0.098 -5.005,-0.196 -8.244,-0.196 -4.515,0 -9.618,0.294 -14.035,0.687 -1.57,0.098 -2.552,-0.589 -3.337,-1.668 -1.08,-1.57 -1.472,-3.926 -1.374,-5.692 0.098,-1.08 0.589,-1.668 1.374,-2.454 0.785,-0.786 1.374,-1.767 1.374,-3.141 0,-1.767 -1.374,-3.042 -2.846,-3.042 -0.491,0 -0.883,0.098 -1.08,0.196 0.294,0.491 0.589,1.08 0.589,2.061 0,1.472 -0.589,2.944 -1.668,4.22 0.589,-1.57 0.785,-2.355 0.785,-3.533 0,-2.355 -1.668,-4.22 -3.828,-4.22 -1.08,0 -2.257,0.589 -2.748,1.57 2.061,0.687 3.435,2.552 3.435,4.711 0,1.276 -0.393,2.257 -0.785,3.239 0.098,-0.785 0.098,-1.374 0.098,-1.963 0,-2.65 -1.57,-5.005 -3.926,-5.005 -2.65,0 -3.828,1.865 -3.729,3.828 0.294,-0.294 0.883,-0.687 1.865,-0.687 1.276,0 2.748,0.687 3.141,3.435 0.491,3.729 1.178,5.692 2.355,7.852 0.491,0.981 0.981,2.061 0.981,3.337 0,1.374 -0.883,2.552 -1.865,3.141 0.981,1.276 2.65,1.865 5.104,1.865 1.668,0 3.141,-0.294 5.3,-0.294 4.809,0 8.833,1.178 11.385,4.515 1.767,-1.181 3.239,-2.065 5.005,-3.144 z M 43.186,59.476 c 0.883,-1.079 2.257,-3.042 4.122,-4.711 1.767,-1.57 3.435,-2.748 5.3,-3.729 1.374,-0.688 2.748,-1.178 3.926,-1.178 1.963,0 3.042,1.178 3.042,2.159 1.767,-0.981 3.337,-1.864 5.202,-2.649 -4.711,-2.355 -6.968,-6.674 -7.361,-11.582 -4.417,2.258 -9.52,6.281 -13.74,9.814 -1.472,1.178 -2.748,1.178 -4.22,0.688 -1.08,-0.393 -2.355,-1.374 -2.944,-2.453 -0.196,-0.393 -0.294,-0.884 -0.294,-1.375 l 0.098,-2.061 c 0.098,-2.159 -1.57,-3.436 -3.239,-3.436 -1.178,0 -2.257,0.393 -2.748,1.57 1.767,0.688 3.337,2.454 3.533,5.595 -1.472,-3.533 -3.141,-4.612 -4.711,-4.612 -2.552,0 -3.337,2.355 -3.239,3.827 0.589,-0.294 1.276,-0.491 2.061,-0.491 2.355,0 4.122,1.768 4.613,4.123 -1.472,-2.062 -2.65,-2.945 -4.613,-2.945 -1.668,0 -2.748,1.276 -2.748,2.847 0,1.374 0.393,2.649 1.963,3.827 -0.098,-1.373 0.785,-2.551 2.159,-2.551 1.374,0 2.159,0.687 3.042,1.766 1.767,2.258 3.337,3.436 5.202,4.417 1.472,0.785 1.963,1.963 1.963,2.944 0,0.589 -0.196,1.275 -0.589,1.865 0.294,0.195 0.687,0.195 1.178,0.195 0.981,10e-4 2.159,-0.686 3.042,-1.864 z M 31.409,29.837 c 0,-0.785 -0.393,-1.668 -0.687,-2.355 C 30.035,26.01 29.25,24.44 28.759,22.869 l -0.589,0.589 1.963,8.637 c 0.491,-0.197 1.276,-1.179 1.276,-2.258 z m 9.618,61.242 c 0,-0.883 0.196,-1.57 0.589,-2.355 -0.687,-0.688 -1.276,-1.767 -1.276,-3.043 0,-0.49 0.098,-0.883 0.294,-1.275 L 34.058,55.355 c -0.785,-0.688 -1.767,-1.767 -2.552,-2.65 -0.785,-0.98 -1.374,-1.373 -2.159,-1.373 -0.687,0 -1.276,0.588 -1.08,1.668 l 0.981,4.416 2.846,1.963 6.87,30.621 2.159,1.865 C 41.027,91.569 41.027,91.374 41.027,91.079 Z M 42.99,46.62 c 2.355,-2.062 5.3,-4.417 8.539,-6.871 -2.355,-2.748 -6.183,-3.827 -10.305,-3.827 -3.042,0 -4.318,0.196 -5.692,0.196 -1.767,0 -3.926,-0.589 -5.005,-1.865 l 0.883,3.828 c 0.393,-0.196 1.178,-0.393 1.865,-0.393 2.061,0 4.22,1.473 4.22,4.221 0,0.785 -0.196,1.766 -0.196,2.257 0,0.491 0.098,0.884 0.294,1.178 0.491,0.687 1.57,1.57 2.454,1.864 0.98,0.295 1.863,0.295 2.943,-0.588 z m 14.133,36.902 c 0.491,-0.099 0.785,-0.491 0.785,-0.982 -0.098,-5.594 -1.276,-12.856 -1.276,-18.353 0,-4.122 1.08,-7.165 5.791,-8.735 4.318,-1.472 9.716,-2.158 12.562,-2.158 0.59,0 1.276,0 2.65,0.195 -4.221,-1.668 -7.655,-2.551 -11.09,-3.336 -2.454,0.883 -5.496,2.551 -8.44,4.22 0.196,-0.491 0.294,-0.884 0.294,-1.374 0,-0.883 -0.589,-1.767 -1.865,-1.767 -1.178,0 -2.355,0.491 -3.337,0.981 -1.668,0.883 -3.631,2.159 -5.005,3.436 -1.865,1.668 -3.239,3.435 -4.024,4.416 -1.178,1.473 -2.748,2.355 -4.417,2.355 -0.883,0 -1.668,-0.196 -2.355,-0.688 0.491,-0.49 0.981,-1.079 0.981,-2.061 0,-0.785 -0.393,-1.57 -0.981,-2.061 -0.589,-0.491 -1.276,-0.785 -1.767,-1.178 l 5.987,26.695 c 0.393,-0.295 0.883,-0.491 1.57,-0.688 0.196,-2.061 1.963,-3.631 4.122,-3.631 2.552,0 4.22,1.668 5.104,4.22 0.196,0.589 0.393,0.785 0.981,0.785 1.08,0.102 2.846,-0.095 3.73,-0.291 z M 44.462,93.729 c 0,-1.57 1.472,-2.748 3.337,-2.748 2.454,0 3.828,1.57 5.889,1.57 2.454,0 3.141,-1.473 6.576,-1.473 2.552,0 4.417,1.57 4.515,3.337 1.962,-0.785 3.631,-3.239 3.631,-6.281 0,-4.024 -0.196,-9.521 -0.196,-14.525 0.688,0.196 1.374,0.393 2.552,0.393 1.864,0 2.944,-1.178 2.944,-2.552 0,-0.393 0,-0.688 -0.098,-0.981 -0.688,0.294 -1.375,0.393 -1.963,0.393 -1.865,0 -3.533,-1.472 -3.632,-4.122 0,-0.49 0,-0.883 0.099,-1.275 5.104,0.393 10.697,0.687 15.801,0.393 -1.473,-0.59 -2.061,-1.865 -2.061,-2.945 0,-0.785 0.49,-1.472 1.178,-1.766 -1.276,-2.945 -3.632,-5.202 -5.693,-6.576 -3.729,-0.196 -9.814,0.688 -14.329,2.061 -4.122,1.276 -4.907,4.318 -4.907,7.558 0,4.515 0.883,11.483 0.883,18.451 0,0.981 -0.393,1.57 -1.178,1.864 -1.08,0.491 -3.239,0.785 -4.711,0.59 -0.883,-0.099 -1.374,-0.393 -1.767,-1.473 -0.785,-2.258 -2.257,-3.631 -4.024,-3.631 -1.865,0 -2.846,1.373 -3.141,2.355 3.042,0 5.005,1.57 6.085,3.631 -1.767,-1.57 -3.533,-2.552 -5.692,-2.552 -1.963,0 -3.141,1.276 -3.141,2.649 0,0.688 0.098,1.57 0.589,2.062 0.687,-0.981 2.355,-1.57 3.631,-1.57 2.061,0 3.337,1.079 3.828,2.062 -1.08,-0.785 -2.159,-1.08 -3.435,-1.08 -1.963,0 -3.729,1.473 -3.729,3.436 0,1.963 0.981,3.533 2.65,4.416 -0.295,-0.493 -0.491,-1.083 -0.491,-1.671 z M 69.489,14.33 c -2.847,0.589 -4.22,0.785 -5.104,0.785 -3.435,0 -5.496,-1.57 -5.692,-3.632 -0.393,2.454 1.374,4.613 4.515,4.613 1.963,0.001 3.827,-0.588 6.281,-1.766 z m -6.575,25.615 c 0,-5.496 3.828,-9.127 9.422,-11.188 2.748,-0.981 6.281,-1.864 10.6,-3.926 4.318,-2.061 6.575,-5.594 6.575,-10.6 0,-3.926 -1.374,-7.066 -4.22,-8.146 1.766,1.178 2.061,2.355 2.061,3.533 0,1.374 -1.08,2.355 -2.159,2.355 -0.981,0 -1.472,-0.688 -1.864,-1.57 0.49,0.49 0.883,0.687 1.472,0.687 0.981,0 1.472,-0.687 1.472,-1.57 0,-2.649 -2.257,-3.729 -5.397,-3.729 -1.656,0 -3.955,0.143 -6.357,0.364 0.218,0.182 0.441,0.333 0.665,0.421 0.589,0.295 1.275,0.393 2.257,0.491 1.374,0.196 2.65,0.294 3.729,0.687 -1.178,0 -2.257,0.196 -3.238,0.491 -0.295,0.981 -0.688,1.472 -1.374,1.472 -0.688,0 -1.178,-0.393 -1.57,-1.079 C 74.67,8.001 74.35,7.106 74.065,6.198 72.626,6.336 71.162,6.499 69.786,6.676 l 0.393,4.515 c 0.295,-0.393 1.275,-0.883 2.355,-0.883 2.453,0 4.318,1.865 4.318,4.122 0,2.454 -1.57,3.533 -3.533,3.533 -1.178,0 -2.258,-0.491 -2.846,-0.883 l 0.195,3.631 c 2.847,-0.491 5.398,-0.883 8.637,-1.276 3.926,-0.589 7.558,-1.472 7.656,-7.557 0.195,0.393 0.49,1.276 0.49,2.061 0,4.024 -2.453,6.772 -6.379,8.048 -4.318,1.374 -9.619,2.65 -13.25,3.926 -5.104,1.767 -9.029,5.692 -9.029,10.992 0,5.398 2.355,9.912 8.244,12.17 -3.142,-2.849 -4.123,-5.694 -4.123,-9.13 z m 5.79,3.043 c 0,-4.515 3.141,-7.655 7.655,-9.618 3.631,-1.57 6.085,-2.748 9.127,-4.318 4.81,-2.552 6.871,-7.459 6.871,-12.366 0,-4.81 -1.768,-8.637 -4.516,-9.913 1.57,1.374 2.748,4.024 2.748,7.459 0,5.3 -2.355,9.521 -7.164,11.777 -3.337,1.57 -6.379,2.454 -10.305,3.828 -5.301,1.767 -8.833,5.3 -8.833,10.207 0,3.926 2.159,8.44 5.693,9.618 l 1.766,0.589 c -2.158,-2.062 -3.042,-4.515 -3.042,-7.263 z m 5.202,3.435 c 0,-3.926 2.649,-6.575 5.986,-8.342 2.944,-1.57 5.201,-2.65 7.557,-4.221 5.889,-3.827 7.95,-8.44 7.95,-14.329 0,-4.22 -1.472,-8.931 -5.005,-11.581 1.766,2.062 3.042,4.81 3.042,8.833 0,5.3 -1.767,10.109 -7.165,13.151 -2.846,1.669 -5.986,3.141 -9.422,4.613 -3.336,1.374 -6.771,4.22 -6.771,8.637 0,3.729 2.061,6.575 4.809,7.949 l 1.57,0.785 c -1.373,-1.275 -2.551,-3.041 -2.551,-5.495 z m 15.605,-45.441 -2.454,0 c -0.195,0.981 -1.275,1.767 -2.257,1.767 -1.178,0 -2.062,-0.688 -2.257,-1.767 l -2.65,0 c -0.196,0.981 -1.178,1.767 -2.258,1.767 -1.178,0 -1.963,-0.688 -2.158,-1.767 l -2.454,0 1.669,4.023 c 1.864,-0.098 4.22,-0.196 5.889,-0.196 3.238,0 5.005,0.393 6.771,0.785 L 89.511,0.982 Z M 79.108,49.269 c 0,-2.062 0.589,-3.337 1.668,-4.515 2.847,-3.337 7.066,-4.318 10.698,-7.263 4.711,-3.926 7.066,-9.226 7.066,-15.311 0,-5.104 -2.257,-9.324 -5.005,-12.072 1.668,2.258 2.943,5.692 2.943,9.422 0,6.38 -1.766,10.992 -8.146,15.311 -2.062,1.374 -5.3,2.944 -7.852,4.318 -2.649,1.473 -5.202,3.926 -5.202,7.263 0,3.533 2.258,5.889 5.693,7.361 -1.275,-1.177 -1.863,-2.846 -1.863,-4.514 z m 8.439,16.292 c -0.883,-5.104 -2.846,-8.637 -6.869,-10.992 -0.785,-0.49 -1.473,0.098 -0.884,0.589 1.276,1.178 3.926,3.729 4.81,6.575 -0.884,0 -1.276,0.59 -1.276,1.276 0,1.669 1.767,2.748 2.944,2.748 0.49,10e-4 0.882,-0.098 1.275,-0.196 z m 4.908,28.167 c 0,-1.57 1.473,-2.748 3.337,-2.748 2.454,0 3.827,1.57 5.889,1.57 2.454,0 3.141,-1.472 6.575,-1.472 2.553,0 4.417,1.57 4.516,3.337 1.963,-0.785 3.336,-3.141 3.336,-8.048 0,-6.281 -0.883,-14.035 -1.864,-19.924 3.042,-0.196 4.22,-1.374 4.22,-3.141 0,-0.687 -0.195,-1.275 -0.393,-1.668 -2.846,1.374 -5.889,2.159 -9.422,2.159 -2.453,0 -5.691,-0.295 -7.262,-0.884 -0.785,-3.926 -2.945,-7.263 -4.613,-9.029 1.767,0.785 4.907,1.57 7.655,1.57 11.679,0 20.414,-8.146 20.414,-16.881 0,-5.3 -3.337,-9.127 -8.735,-13.053 l -1.963,1.374 c 5.889,4.023 7.852,7.753 7.852,11.286 0,4.81 -4.023,8.637 -9.127,8.637 -5.104,0 -9.127,-3.827 -9.127,-8.637 0,-4.612 3.042,-7.753 8.439,-11.385 1.276,-0.785 2.748,-1.864 4.123,-2.846 2.158,-1.669 4.809,-4.613 4.318,-7.459 1.57,-0.393 2.649,-1.276 2.649,-3.436 0,-2.355 -1.963,-4.023 -4.122,-4.023 -1.57,0 -2.552,0.393 -3.238,0.687 1.766,1.57 2.649,3.632 2.649,5.398 0,2.846 -1.178,4.809 -4.122,6.87 -2.061,1.472 -4.416,2.944 -6.674,4.612 -4.515,3.337 -6.969,6.772 -6.969,11.483 0,6.87 5.595,10.796 10.895,10.796 3.043,0 5.692,-0.589 8.146,-2.355 -2.847,3.238 -8.637,6.281 -14.82,6.281 -7.754,0 -13.151,-5.3 -13.151,-11.581 0,-1.374 0.196,-2.355 0.393,-2.847 -3.827,3.436 -7.558,4.024 -10.207,6.969 -1.178,1.275 -1.57,2.552 -1.57,4.023 0,1.865 0.884,3.533 2.159,4.711 1.374,1.178 2.846,2.65 3.631,3.926 1.276,1.963 1.963,4.318 2.553,6.674 1.373,5.496 5.397,7.754 10.501,7.754 1.669,0 4.81,-0.295 6.38,-0.785 -0.197,0.687 -0.197,1.275 0,2.061 0.687,2.944 1.178,5.987 1.275,8.932 0,0.981 -0.393,1.472 -1.275,1.864 -1.08,0.491 -3.141,0.785 -4.613,0.589 -0.883,-0.098 -1.374,-0.393 -1.767,-1.472 -0.785,-2.258 -2.257,-3.632 -4.024,-3.632 -1.864,0 -2.846,1.374 -3.141,2.355 3.043,0 5.006,1.57 6.086,3.632 -1.768,-1.57 -3.533,-2.552 -5.693,-2.552 -1.963,0 -3.141,1.275 -3.141,2.649 0,0.688 0.099,1.57 0.59,2.062 0.687,-0.981 2.355,-1.57 3.631,-1.57 2.061,0 3.337,1.079 3.828,2.061 -1.08,-0.785 -2.16,-1.079 -3.436,-1.079 -1.963,0 -3.729,1.472 -3.729,3.435 0,1.963 0.981,3.533 2.649,4.417 -0.294,-0.489 -0.491,-1.078 -0.491,-1.667 z m 19.629,-71.449 c -3.238,-2.355 -4.416,-4.318 -4.416,-7.164 0,-1.767 0.883,-3.828 2.649,-5.398 -0.687,-0.294 -1.669,-0.687 -3.239,-0.687 -2.158,0 -4.121,1.668 -4.121,4.023 0,2.159 1.079,3.043 2.649,3.436 -0.491,2.748 1.963,5.496 4.417,7.36 l 2.061,-1.57 z m 8.539,15.9 c 0,-4.122 -2.355,-7.066 -7.558,-10.6 -5.3,3.533 -7.95,6.281 -7.95,10.6 0,4.122 3.436,7.459 7.754,7.459 4.318,0 7.754,-3.337 7.754,-7.459 z"/>
</svg>
